{
  "accessors": [
    {
      "bufferView": 2,
      "componentType": 5126,
      "count": 65533,
      "max": [
        15.115127563476563,
        8.193788528442383,
        16.55306625366211
      ],
      "min": [
        -15.254426956176758,
        -6.61927604675293,
        -13.230839729309082
      ],
      "type": "VEC3"
    },
    {
      "bufferView": 2,
      "byteOffset": 786396,
      "componentType": 5126,
      "count": 65533,
      "max": [
        0.9970164895057678,
        0.9999983310699463,
        0.9995225071907043
      ],
      "min": [
        -0.9999297857284546,
        -0.9999663829803467,
        -0.9999904632568359
      ],
      "type": "VEC3"
    },
    {
      "bufferView": 1,
      "componentType": 5126,
      "count": 65533,
      "max": [
        0.9937670230865479,
        0.9982389807701111
      ],
      "min": [
        0.0039059999398887157,
        0.025983000174164772
      ],
      "type": "VEC2"
    },
    {
      "bufferView": 0,
      "componentType": 5125,
      "count": 65541,
      "type": "SCALAR"
    },
    {
      "bufferView": 2,
      "byteOffset": 1572792,
      "componentType": 5126,
      "count": 65533,
      "max": [
        14.82973861694336,
        8.193788528442383,
        16.55306625366211
      ],
      "min": [
        -15.187032699584961,
        -6.61927604675293,
        -13.230839729309082
      ],
      "type": "VEC3"
    },
    {
      "bufferView": 2,
      "byteOffset": 2359188,
      "componentType": 5126,
      "count": 65533,
      "max": [
        0.9999815225601196,
        0.9999943971633911,
        0.9997190833091736
      ],
      "min": [
        -0.9998549222946167,
        -0.9999371767044067,
        -0.9999945163726807
      ],
      "type": "VEC3"
    },
    {
      "bufferView": 1,
      "byteOffset": 524264,
      "componentType": 5126,
      "count": 65533,
      "max": [
        0.9960409998893738,
        0.9992759823799133
      ],
      "min": [
        0.0038499999791383743,
        0.03238999843597412
      ],
      "type": "VEC2"
    },
    {
      "bufferView": 0,
      "byteOffset": 262164,
      "componentType": 5125,
      "count": 65541,
      "type": "SCALAR"
    },
    {
      "bufferView": 2,
      "byteOffset": 3145584,
      "componentType": 5126,
      "count": 48908,
      "max": [
        15.127013206481934,
        7.5383710861206055,
        13.6567964553833
      ],
      "min": [
        -4.141058921813965,
        -6.138513088226318,
        -13.105691909790039
      ],
      "type": "VEC3"
    },
    {
      "bufferView": 2,
      "byteOffset": 3732480,
      "componentType": 5126,
      "count": 48908,
      "max": [
        0.9999849796295166,
        0.999721348285675,
        0.9987371563911438
      ],
      "min": [
        -0.9995567202568054,
        -0.9998867511749268,
        -0.9999339580535889
      ],
      "type": "VEC3"
    },
    {
      "bufferView": 1,
      "byteOffset": 1048528,
      "componentType": 5126,
      "count": 48908,
      "max": [
        0.988789975643158,
        0.9954490065574646
      ],
      "min": [
        0.0038499999791383743,
        0.0012550000101327896
      ],
      "type": "VEC2"
    },
    {
      "bufferView": 0,
      "byteOffset": 524328,
      "componentType": 5125,
      "count": 48918,
      "type": "SCALAR"
    }
  ],
  "asset": {
    "extras": {
      "author": "urheilumuseo (https://sketchfab.com/urheilumuseo)",
      "license": "CC-BY-NC-4.0 (http://creativecommons.org/licenses/by-nc/4.0/)",
      "source": "https://sketchfab.com/3d-models/teemu-selannes-hockey-shirt-912dd94e0c9c4b43935e21a98c1fe115",
      "title": "Teemu Selänne's Hockey Shirt"
    },
    "generator": "Sketchfab-12.68.0",
    "version": "2.0"
  },
  "bufferViews": [
    {
      "buffer": 0,
      "byteLength": 720000,
      "name": "floatBufferViews",
      "target": 34963
    },
    {
      "buffer": 0,
      "byteLength": 1439792,
      "byteOffset": 720000,
      "byteStride": 8,
      "name": "floatBufferViews",
      "target": 34962
    },
    {
      "buffer": 0,
      "byteLength": 4319376,
      "byteOffset": 2159792,
      "byteStride": 12,
      "name": "floatBufferViews",
      "target": 34962
    }
  ],
  "buffers": [
    {
      "byteLength": 6479168,
      "uri": "scene.bin"
    }
  ],
  "images": [
    {
      "uri": "textures/selanteen_paita_2947-2_baseColor.jpeg"
    }
  ],
  "materials": [
    {
      "doubleSided": true,
      "name": "selanteen_paita_2947-2",
      "pbrMetallicRoughness": {
        "baseColorTexture": {
          "index": 0
        },
        "metallicFactor": 0.0,
        "roughnessFactor": 0.8810792884997279
      }
    }
  ],
  "meshes": [
    {
      "name": "Object_0",
      "primitives": [
        {
          "attributes": {
            "NORMAL": 1,
            "POSITION": 0,
            "TEXCOORD_0": 2
          },
          "indices": 3,
          "material": 0,
          "mode": 4
        }
      ]
    },
    {
      "name": "Object_1",
      "primitives": [
        {
          "attributes": {
            "NORMAL": 5,
            "POSITION": 4,
            "TEXCOORD_0": 6
          },
          "indices": 7,
          "material": 0,
          "mode": 4
        }
      ]
    },
    {
      "name": "Object_2",
      "primitives": [
        {
          "attributes": {
            "NORMAL": 9,
            "POSITION": 8,
            "TEXCOORD_0": 10
          },
          "indices": 11,
          "material": 0,
          "mode": 4
        }
      ]
    }
  ],
  "nodes": [
    {
      "children": [
        1
      ],
      "matrix": [
        1.0,
        0.0,
        0.0,
        0.0,
        0.0,
        2.220446049250313e-16,
        -1.0,
        0.0,
        0.0,
        1.0,
        2.220446049250313e-16,
        0.0,
        0.0,
        0.0,
        0.0,
        1.0
      ],
      "name": "Sketchfab_model"
    },
    {
      "children": [
        2,
        3,
        4
      ],
      "name": "selanteen_paita_2947-2.obj.cleaner.materialmerger.gles"
    },
    {
      "mesh": 0,
      "name": "Object_2"
    },
    {
      "mesh": 1,
      "name": "Object_3"
    },
    {
      "mesh": 2,
      "name": "Object_4"
    }
  ],
  "samplers": [
    {
      "magFilter": 9729,
      "minFilter": 9987,
      "wrapS": 10497,
      "wrapT": 10497
    }
  ],
  "scene": 0,
  "scenes": [
    {
      "name": "Sketchfab_Scene",
      "nodes": [
        0
      ]
    }
  ],
  "textures": [
    {
      "sampler": 0,
      "source": 0
    }
  ]
}
