{
  "accessors": [
    {
      "bufferView": 2,
      "componentType": 5126,
      "count": 3021,
      "max": [
        3.196699857711792,
        15.852599143981934,
        1.6829020977020264
      ],
      "min": [
        -3.3461999893188477,
        9.656399726867676,
        -1.0422983169555664
      ],
      "type": "VEC3"
    },
    {
      "bufferView": 2,
      "byteOffset": 36252,
      "componentType": 5126,
      "count": 3021,
      "max": [
        0.9994335174560547,
        0.9960935115814209,
        0.9998387098312378
      ],
      "min": [
        -0.9998859167098999,
        -0.9999899864196777,
        -0.9998763799667358
      ],
      "type": "VEC3"
    },
    {
      "bufferView": 1,
      "componentType": 5126,
      "count": 3021,
      "max": [
        0.9239999651908875,
        0.981499969959259
      ],
      "min": [
        0.009470924735069275,
        0.07017809897661209
      ],
      "type": "VEC2"
    },
    {
      "bufferView": 1,
      "byteOffset": 24168,
      "componentType": 5126,
      "count": 3021,
      "max": [
        0.9239999651908875,
        0.981499969959259
      ],
      "min": [
        0.009470924735069275,
        0.07017809897661209
      ],
      "type": "VEC2"
    },
    {
      "bufferView": 0,
      "componentType": 5125,
      "count": 16398,
      "type": "SCALAR"
    }
  ],
  "asset": {
    "extras": {
      "author": "ecophobic (https://sketchfab.com/ecophobic)",
      "license": "CC-BY-4.0 (http://creativecommons.org/licenses/by/4.0/)",
      "source": "https://sketchfab.com/3d-models/off-white-monalisa-black-t-shirt-7b5fdc41b031463e99240f7d65dab70a",
      "title": "OFF-WHITE Monalisa Black T-Shirt"
    },
    "generator": "Sketchfab-12.87.0",
    "version": "2.0"
  },
  "bufferViews": [
    {
      "buffer": 0,
      "byteLength": 65592,
      "name": "floatBufferViews",
      "target": 34963
    },
    {
      "buffer": 0,
      "byteLength": 48336,
      "byteOffset": 65592,
      "byteStride": 8,
      "name": "floatBufferViews",
      "target": 34962
    },
    {
      "buffer": 0,
      "byteLength": 72504,
      "byteOffset": 113928,
      "byteStride": 12,
      "name": "floatBufferViews",
      "target": 34962
    }
  ],
  "buffers": [
    {
      "byteLength": 186432,
      "uri": "scene.bin"
    }
  ],
  "extensionsUsed": [
    "KHR_materials_unlit"
  ],
  "images": [
    {
      "uri": "textures/male_casualsuit06_baseColor.png"
    }
  ],
  "materials": [
    {
      "doubleSided": true,
      "extensions": {
        "KHR_materials_unlit": {}
      },
      "name": "male_casualsuit06",
      "pbrMetallicRoughness": {
        "baseColorTexture": {
          "index": 0
        },
        "metallicFactor": 0.0
      }
    }
  ],
  "meshes": [
    {
      "name": "Object_0",
      "primitives": [
        {
          "attributes": {
            "NORMAL": 1,
            "POSITION": 0,
            "TEXCOORD_0": 2,
            "TEXCOORD_1": 3
          },
          "indices": 4,
          "material": 0,
          "mode": 4
        }
      ]
    }
  ],
  "nodes": [
    {
      "children": [
        1
      ],
      "matrix": [
        1.0,
        0.0,
        0.0,
        0.0,
        0.0,
        2.220446049250313e-16,
        -1.0,
        0.0,
        0.0,
        1.0,
        2.220446049250313e-16,
        0.0,
        0.0,
        0.0,
        0.0,
        1.0
      ],
      "name": "Sketchfab_model"
    },
    {
      "children": [
        2
      ],
      "name": "root"
    },
    {
      "children": [
        3
      ],
      "matrix": [
        1.0,
        0.0,
        0.0,
        0.0,
        0.0,
        2.220446049250313e-16,
        1.0,
        0.0,
        0.0,
        -1.0,
        2.220446049250313e-16,
        0.0,
        0.0,
        0.0,
        0.0,
        1.0
      ],
      "name": "GLTF_SceneRootNode"
    },
    {
      "children": [
        4
      ],
      "name": "MONALISATEE_0"
    },
    {
      "mesh": 0,
      "name": "Object_4"
    }
  ],
  "samplers": [
    {
      "magFilter": 9729,
      "minFilter": 9987,
      "wrapS": 10497,
      "wrapT": 10497
    }
  ],
  "scene": 0,
  "scenes": [
    {
      "name": "Sketchfab_Scene",
      "nodes": [
        0
      ]
    }
  ],
  "textures": [
    {
      "sampler": 0,
      "source": 0
    }
  ]
}
