{
  "accessors": [
    {
      "bufferView": 2,
      "componentType": 5126,
      "count": 28511,
      "max": [
        14.825909614562988,
        16.448341369628906,
        17.1745548248291
      ],
      "min": [
        1.5782835483551025,
        -0.1570894569158554,
        -18.35958480834961
      ],
      "type": "VEC3"
    },
    {
      "bufferView": 2,
      "byteOffset": 342132,
      "componentType": 5126,
      "count": 28511,
      "max": [
        0.9999752044677734,
        0.9999712705612183,
        0.9998714923858643
      ],
      "min": [
        -0.9999755620956421,
        -0.999999463558197,
        -0.9997454881668091
      ],
      "type": "VEC3"
    },
    {
      "bufferView": 1,
      "componentType": 5126,
      "count": 28511,
      "max": [
        0.9958000183105469,
        0.9980000257492065
      ],
      "min": [
        0.0020000000949949026,
        0.001999974250793457
      ],
      "type": "VEC2"
    },
    {
      "bufferView": 0,
      "componentType": 5125,
      "count": 153390,
      "type": "SCALAR"
    },
    {
      "bufferView": 2,
      "byteOffset": 684264,
      "componentType": 5126,
      "count": 28511,
      "max": [
        -1.578283429145813,
        16.448341369628906,
        17.1745548248291
      ],
      "min": [
        -14.825908660888672,
        -0.1570894569158554,
        -18.35958480834961
      ],
      "type": "VEC3"
    },
    {
      "bufferView": 2,
      "byteOffset": 1026396,
      "componentType": 5126,
      "count": 28511,
      "max": [
        0.9999755620956421,
        0.9999712705612183,
        0.9998714923858643
      ],
      "min": [
        -0.9999752044677734,
        -0.999999463558197,
        -0.9997454881668091
      ],
      "type": "VEC3"
    },
    {
      "bufferView": 1,
      "byteOffset": 228088,
      "componentType": 5126,
      "count": 28511,
      "max": [
        0.9958000183105469,
        0.9980000257492065
      ],
      "min": [
        0.0020000000949949026,
        0.001999974250793457
      ],
      "type": "VEC2"
    },
    {
      "bufferView": 0,
      "byteOffset": 613560,
      "componentType": 5125,
      "count": 153390,
      "type": "SCALAR"
    }
  ],
  "asset": {
    "extras": {
      "author": "SRUSH651 2th☑ (https://sketchfab.com/THE-OFFICIAL-SRUSH651)",
      "license": "CC-BY-4.0 (http://creativecommons.org/licenses/by/4.0/)",
      "source": "https://sketchfab.com/3d-models/nike-dunk-low-off-white-lot-1-bfb0f01f1d4b4dabbdbc8134d3cbcf59",
      "title": "NIKE DUNK LOW OFF WHITE LOT 1"
    },
    "generator": "Sketchfab-16.53.0",
    "version": "2.0"
  },
  "bufferViews": [
    {
      "buffer": 0,
      "byteLength": 1227120,
      "name": "floatBufferViews",
      "target": 34963
    },
    {
      "buffer": 0,
      "byteLength": 456176,
      "byteOffset": 1227120,
      "byteStride": 8,
      "name": "floatBufferViews",
      "target": 34962
    },
    {
      "buffer": 0,
      "byteLength": 1368528,
      "byteOffset": 1683296,
      "byteStride": 12,
      "name": "floatBufferViews",
      "target": 34962
    }
  ],
  "buffers": [
    {
      "byteLength": 3051824,
      "uri": "scene.bin"
    }
  ],
  "images": [
    {
      "uri": "textures/lambert1_baseColor.jpeg"
    }
  ],
  "materials": [
    {
      "doubleSided": true,
      "emissiveFactor": [
        1.0,
        1.0,
        1.0
      ],
      "emissiveTexture": {
        "index": 0
      },
      "name": "lambert1",
      "pbrMetallicRoughness": {
        "baseColorTexture": {
          "index": 0
        }
      }
    }
  ],
  "meshes": [
    {
      "name": "off_white_x_Nike_Dunk_Low_The_50_NO1_lambert1_0",
      "primitives": [
        {
          "attributes": {
            "NORMAL": 1,
            "POSITION": 0,
            "TEXCOORD_0": 2
          },
          "indices": 3,
          "material": 0,
          "mode": 4
        }
      ]
    },
    {
      "name": "off_white_x_Nike_Dunk_Low_The_50_NO2_lambert1_0",
      "primitives": [
        {
          "attributes": {
            "NORMAL": 5,
            "POSITION": 4,
            "TEXCOORD_0": 6
          },
          "indices": 7,
          "material": 0,
          "mode": 4
        }
      ]
    }
  ],
  "nodes": [
    {
      "children": [
        1
      ],
      "matrix": [
        1.0,
        0.0,
        0.0,
        0.0,
        0.0,
        2.220446049250313e-16,
        -1.0,
        0.0,
        0.0,
        1.0,
        2.220446049250313e-16,
        0.0,
        0.0,
        0.0,
        0.0,
        1.0
      ],
      "name": "Sketchfab_model"
    },
    {
      "children": [
        2
      ],
      "matrix": [
        0.009999999776482582,
        0.0,
        0.0,
        0.0,
        0.0,
        2.2204459996194763e-18,
        0.009999999776482582,
        0.0,
        0.0,
        -0.009999999776482582,
        2.2204459996194763e-18,
        0.0,
        0.0,
        0.0,
        0.0,
        1.0
      ],
      "name": "USDRoot"
    },
    {
      "children": [
        3
      ],
      "name": "scene"
    },
    {
      "children": [
        4
      ],
      "matrix": [
        100.0,
        0.0,
        0.0,
        0.0,
        0.0,
        100.0,
        0.0,
        0.0,
        0.0,
        0.0,
        100.0,
        0.0,
        0.0,
        0.0,
        0.0,
        1.0
      ],
      "name": "Meshes"
    },
    {
      "children": [
        5
      ],
      "matrix": [
        1.0,
        0.0,
        0.0,
        0.0,
        0.0,
        2.220446049250313e-16,
        -1.0,
        0.0,
        0.0,
        1.0,
        2.220446049250313e-16,
        0.0,
        0.0,
        0.0,
        0.0,
        1.0
      ],
      "name": "Sketchfab_model"
    },
    {
      "children": [
        6
      ],
      "matrix": [
        0.009999999776482582,
        0.0,
        0.0,
        0.0,
        0.0,
        0.0,
        0.009999999776482582,
        0.0,
        0.0,
        -0.009999999776482582,
        0.0,
        0.0,
        0.0,
        0.0,
        0.0,
        1.0
      ],
      "name": "_0fc710ff68f4827b548eb760502ace3_fbx"
    },
    {
      "children": [
        7,
        10
      ],
      "name": "RootNode"
    },
    {
      "children": [
        8
      ],
      "name": "off_white_x_Nike_Dunk_Low_The_50_NO1"
    },
    {
      "children": [
        9
      ],
      "name": "off_white_x_Nike_Dunk_Low_The_50_NO1_lambert1_0"
    },
    {
      "mesh": 0,
      "name": "off_white_x_Nike_Dunk_Low_The_50_NO1_lambert1_0"
    },
    {
      "children": [
        11
      ],
      "name": "off_white_x_Nike_Dunk_Low_The_50_NO2"
    },
    {
      "children": [
        12
      ],
      "name": "off_white_x_Nike_Dunk_Low_The_50_NO2_lambert1_0"
    },
    {
      "mesh": 1,
      "name": "off_white_x_Nike_Dunk_Low_The_50_NO2_lambert1_0"
    }
  ],
  "samplers": [
    {
      "magFilter": 9729,
      "minFilter": 9987,
      "wrapS": 10497,
      "wrapT": 10497
    }
  ],
  "scene": 0,
  "scenes": [
    {
      "name": "Sketchfab_Scene",
      "nodes": [
        0
      ]
    }
  ],
  "textures": [
    {
      "sampler": 0,
      "source": 0
    }
  ]
}
