{
  "accessors": [
    {
      "bufferView": 2,
      "componentType": 5126,
      "count": 12732,
      "max": [
        1.55575692653656,
        1.162572979927063,
        -0.10197971761226654
      ],
      "min": [
        -1.48239266872406,
        -0.001516119111329317,
        -1.404344916343689
      ],
      "type": "VEC3"
    },
    {
      "bufferView": 2,
      "byteOffset": 152784,
      "componentType": 5126,
      "count": 12732,
      "max": [
        0.9999376535415649,
        0.9999802112579346,
        0.9999991655349731
      ],
      "min": [
        -0.9999183416366577,
        -0.999990701675415,
        -0.9999932050704956
      ],
      "type": "VEC3"
    },
    {
      "bufferView": 3,
      "componentType": 5126,
      "count": 12732,
      "max": [
        0.9992682933807373,
        0.9999988079071045,
        0.9999998807907104,
        -1.0
      ],
      "min": [
        -0.9998805522918701,
        -0.9999960064888,
        -0.9999931454658508,
        -1.0
      ],
      "type": "VEC4"
    },
    {
      "bufferView": 1,
      "componentType": 5126,
      "count": 12732,
      "max": [
        0.9953809976577759,
        0.9973405599594116
      ],
      "min": [
        0.008425561711192131,
        0.009479165077209473
      ],
      "type": "VEC2"
    },
    {
      "bufferView": 0,
      "componentType": 5125,
      "count": 73632,
      "type": "SCALAR"
    },
    {
      "bufferView": 2,
      "byteOffset": 305568,
      "componentType": 5126,
      "count": 12732,
      "max": [
        1.4465703964233398,
        0.9171276688575745,
        0.6945528984069824
      ],
      "min": [
        -1.5919461250305176,
        -0.24696111679077148,
        -0.6050817370414734
      ],
      "type": "VEC3"
    },
    {
      "bufferView": 2,
      "byteOffset": 458352,
      "componentType": 5126,
      "count": 12732,
      "max": [
        0.9998106956481934,
        0.999980092048645,
        0.999996542930603
      ],
      "min": [
        -0.9999247789382935,
        -0.9999908208847046,
        -0.9999954700469971
      ],
      "type": "VEC3"
    },
    {
      "bufferView": 3,
      "byteOffset": 203712,
      "componentType": 5126,
      "count": 12732,
      "max": [
        0.9987965226173401,
        0.9999987483024597,
        0.9999812841415405,
        1.0
      ],
      "min": [
        -0.9998059272766113,
        -0.9999960064888,
        -0.9999926090240479,
        1.0
      ],
      "type": "VEC4"
    },
    {
      "bufferView": 1,
      "byteOffset": 101856,
      "componentType": 5126,
      "count": 12732,
      "max": [
        0.9953809976577759,
        0.9973405599594116
      ],
      "min": [
        0.008425561711192131,
        0.009479165077209473
      ],
      "type": "VEC2"
    },
    {
      "bufferView": 0,
      "byteOffset": 294528,
      "componentType": 5125,
      "count": 73632,
      "type": "SCALAR"
    }
  ],
  "asset": {
    "extras": {
      "author": "iwo.pilczuk (https://sketchfab.com/iwo.pilczuk)",
      "license": "CC-BY-4.0 (http://creativecommons.org/licenses/by/4.0/)",
      "source": "https://sketchfab.com/3d-models/glow-green-yeezy-slides-b914913fd06f45b18057465e89396c17",
      "title": "glow green yeezy slide's"
    },
    "generator": "Sketchfab-13.91.0",
    "version": "2.0"
  },
  "bufferViews": [
    {
      "buffer": 0,
      "byteLength": 589056,
      "name": "floatBufferViews",
      "target": 34963
    },
    {
      "buffer": 0,
      "byteLength": 203712,
      "byteOffset": 589056,
      "byteStride": 8,
      "name": "floatBufferViews",
      "target": 34962
    },
    {
      "buffer": 0,
      "byteLength": 611136,
      "byteOffset": 792768,
      "byteStride": 12,
      "name": "floatBufferViews",
      "target": 34962
    },
    {
      "buffer": 0,
      "byteLength": 407424,
      "byteOffset": 1403904,
      "byteStride": 16,
      "name": "floatBufferViews",
      "target": 34962
    }
  ],
  "buffers": [
    {
      "byteLength": 1811328,
      "uri": "scene.bin"
    }
  ],
  "images": [
    {
      "uri": "textures/yellow_baseColor.jpeg"
    },
    {
      "uri": "textures/yellow_metallicRoughness.png"
    },
    {
      "uri": "textures/yellow_normal.jpeg"
    }
  ],
  "materials": [
    {
      "doubleSided": true,
      "name": "yellow",
      "normalTexture": {
        "index": 2
      },
      "pbrMetallicRoughness": {
        "baseColorTexture": {
          "index": 0
        },
        "metallicRoughnessTexture": {
          "index": 1
        }
      }
    }
  ],
  "meshes": [
    {
      "name": "Object_0",
      "primitives": [
        {
          "attributes": {
            "NORMAL": 1,
            "POSITION": 0,
            "TANGENT": 2,
            "TEXCOORD_0": 3
          },
          "indices": 4,
          "material": 0,
          "mode": 4
        }
      ]
    },
    {
      "name": "Object_1",
      "primitives": [
        {
          "attributes": {
            "NORMAL": 6,
            "POSITION": 5,
            "TANGENT": 7,
            "TEXCOORD_0": 8
          },
          "indices": 9,
          "material": 0,
          "mode": 4
        }
      ]
    }
  ],
  "nodes": [
    {
      "children": [
        1
      ],
      "matrix": [
        1.0,
        0.0,
        0.0,
        0.0,
        0.0,
        2.220446049250313e-16,
        -1.0,
        0.0,
        0.0,
        1.0,
        2.220446049250313e-16,
        0.0,
        0.0,
        0.0,
        0.0,
        1.0
      ],
      "name": "Sketchfab_model"
    },
    {
      "children": [
        2
      ],
      "matrix": [
        0.009999999776482582,
        0.0,
        0.0,
        0.0,
        0.0,
        2.2204459996194763e-18,
        0.009999999776482582,
        0.0,
        0.0,
        -0.009999999776482582,
        2.2204459996194763e-18,
        0.0,
        0.0,
        0.0,
        0.0,
        1.0
      ],
      "name": "USDRoot"
    },
    {
      "children": [
        3
      ],
      "name": "scene"
    },
    {
      "children": [
        4
      ],
      "matrix": [
        100.0,
        0.0,
        0.0,
        0.0,
        0.0,
        100.0,
        0.0,
        0.0,
        0.0,
        0.0,
        100.0,
        0.0,
        0.0,
        0.0,
        0.0,
        1.0
      ],
      "name": "Meshes"
    },
    {
      "children": [
        5
      ],
      "matrix": [
        1.0,
        0.0,
        0.0,
        0.0,
        0.0,
        2.220446049250313e-16,
        -1.0,
        0.0,
        0.0,
        1.0,
        2.220446049250313e-16,
        0.0,
        0.0,
        0.0,
        0.0,
        1.0
      ],
      "name": "Sketchfab_model"
    },
    {
      "children": [
        6
      ],
      "name": "root"
    },
    {
      "children": [
        7,
        10
      ],
      "matrix": [
        1.0,
        0.0,
        0.0,
        0.0,
        0.0,
        2.220446049250313e-16,
        1.0,
        0.0,
        0.0,
        -1.0,
        2.220446049250313e-16,
        0.0,
        0.0,
        0.0,
        0.0,
        1.0
      ],
      "name": "GLTF_SceneRootNode"
    },
    {
      "children": [
        8
      ],
      "name": "Right_0"
    },
    {
      "children": [
        9
      ],
      "name": "Object_4"
    },
    {
      "mesh": 0,
      "name": "Object_0"
    },
    {
      "children": [
        11
      ],
      "matrix": [
        0.999066948890686,
        0.0,
        0.04318784549832344,
        0.0,
        0.0,
        1.0,
        0.0,
        0.0,
        -0.04318784549832344,
        0.0,
        0.999066948890686,
        0.0,
        0.15632081031799316,
        0.2484951764345169,
        0.7002112865447998,
        1.0
      ],
      "name": "Left_1"
    },
    {
      "children": [
        12
      ],
      "name": "Object_6"
    },
    {
      "mesh": 1,
      "name": "Object_1"
    }
  ],
  "samplers": [
    {
      "magFilter": 9729,
      "minFilter": 9987,
      "wrapS": 10497,
      "wrapT": 10497
    }
  ],
  "scene": 0,
  "scenes": [
    {
      "name": "Sketchfab_Scene",
      "nodes": [
        0
      ]
    }
  ],
  "textures": [
    {
      "sampler": 0,
      "source": 0
    },
    {
      "sampler": 0,
      "source": 1
    },
    {
      "sampler": 0,
      "source": 2
    }
  ]
}
