{
  "accessors": [
    {
      "bufferView": 2,
      "componentType": 5126,
      "count": 1641,
      "max": [
        1.0006002187728882,
        -0.43910789489746094,
        1.000000238418579
      ],
      "min": [
        -1.0000003576278687,
        -1.014261245727539,
        -1.0000005960464478
      ],
      "type": "VEC3"
    },
    {
      "bufferView": 2,
      "byteOffset": 19692,
      "componentType": 5126,
      "count": 1641,
      "max": [
        0.9990199208259583,
        1.0,
        0.9990127086639404
      ],
      "min": [
        -0.999626874923706,
        -0.9937705397605896,
        -0.9990127682685852
      ],
      "type": "VEC3"
    },
    {
      "bufferView": 1,
      "componentType": 5126,
      "count": 1641,
      "max": [
        1.5168349742889404,
        0.9901853203773499
      ],
      "min": [
        -0.9314551949501038,
        0.0
      ],
      "type": "VEC2"
    },
    {
      "bufferView": 1,
      "byteOffset": 13128,
      "componentType": 5126,
      "count": 1641,
      "max": [
        1.5168349742889404,
        0.9901853203773499
      ],
      "min": [
        -0.9314551949501038,
        0.0
      ],
      "type": "VEC2"
    },
    {
      "bufferView": 0,
      "componentType": 5125,
      "count": 6168,
      "type": "SCALAR"
    },
    {
      "bufferView": 2,
      "byteOffset": 39384,
      "componentType": 5126,
      "count": 1334,
      "max": [
        1.1372041702270508,
        0.009997454471886158,
        1.136511206626892
      ],
      "min": [
        -1.1344335079193115,
        -0.009997454471886158,
        -1.1365108489990234
      ],
      "type": "VEC3"
    },
    {
      "bufferView": 2,
      "byteOffset": 55392,
      "componentType": 5126,
      "count": 1334,
      "max": [
        0.999748170375824,
        0.9996178150177002,
        0.9991394877433777
      ],
      "min": [
        -0.9997431039810181,
        -0.9998473525047302,
        -0.9991394877433777
      ],
      "type": "VEC3"
    },
    {
      "bufferView": 1,
      "byteOffset": 26256,
      "componentType": 5126,
      "count": 1334,
      "max": [
        1.0,
        1.0
      ],
      "min": [
        0.0,
        1.564621925354004e-07
      ],
      "type": "VEC2"
    },
    {
      "bufferView": 0,
      "byteOffset": 24672,
      "componentType": 5125,
      "count": 7560,
      "type": "SCALAR"
    },
    {
      "bufferView": 2,
      "byteOffset": 71400,
      "componentType": 5126,
      "count": 1334,
      "max": [
        1.1372041702270508,
        0.009997454471886158,
        1.136511206626892
      ],
      "min": [
        -1.1344335079193115,
        -0.009997454471886158,
        -1.1365108489990234
      ],
      "type": "VEC3"
    },
    {
      "bufferView": 2,
      "byteOffset": 87408,
      "componentType": 5126,
      "count": 1334,
      "max": [
        0.999748170375824,
        0.9996178150177002,
        0.9991394877433777
      ],
      "min": [
        -0.9997431039810181,
        -0.9998473525047302,
        -0.9991394877433777
      ],
      "type": "VEC3"
    },
    {
      "bufferView": 1,
      "byteOffset": 36928,
      "componentType": 5126,
      "count": 1334,
      "max": [
        1.0,
        1.0
      ],
      "min": [
        0.0,
        1.564621925354004e-07
      ],
      "type": "VEC2"
    },
    {
      "bufferView": 0,
      "byteOffset": 54912,
      "componentType": 5125,
      "count": 7560,
      "type": "SCALAR"
    },
    {
      "bufferView": 2,
      "byteOffset": 103416,
      "componentType": 5126,
      "count": 439,
      "max": [
        1.0,
        1.0,
        1.0000001192092896
      ],
      "min": [
        -1.000000238418579,
        -1.0,
        -1.0000004768371582
      ],
      "type": "VEC3"
    },
    {
      "bufferView": 2,
      "byteOffset": 108684,
      "componentType": 5126,
      "count": 439,
      "max": [
        1.0,
        1.0,
        1.0
      ],
      "min": [
        -1.0,
        -1.0,
        -1.0
      ],
      "type": "VEC3"
    },
    {
      "bufferView": 1,
      "byteOffset": 47600,
      "componentType": 5126,
      "count": 439,
      "max": [
        1.0000001192092896,
        1.0
      ],
      "min": [
        0.0,
        0.0
      ],
      "type": "VEC2"
    },
    {
      "bufferView": 0,
      "byteOffset": 85152,
      "componentType": 5125,
      "count": 2280,
      "type": "SCALAR"
    },
    {
      "bufferView": 2,
      "byteOffset": 113952,
      "componentType": 5126,
      "count": 439,
      "max": [
        1.0,
        1.0,
        1.0000001192092896
      ],
      "min": [
        -1.000000238418579,
        -1.0,
        -1.0000004768371582
      ],
      "type": "VEC3"
    },
    {
      "bufferView": 2,
      "byteOffset": 119220,
      "componentType": 5126,
      "count": 439,
      "max": [
        1.0,
        1.0,
        1.0
      ],
      "min": [
        -1.0,
        -1.0,
        -1.0
      ],
      "type": "VEC3"
    },
    {
      "bufferView": 1,
      "byteOffset": 51112,
      "componentType": 5126,
      "count": 439,
      "max": [
        1.0000001192092896,
        1.0
      ],
      "min": [
        0.0,
        0.0
      ],
      "type": "VEC2"
    },
    {
      "bufferView": 0,
      "byteOffset": 94272,
      "componentType": 5125,
      "count": 2280,
      "type": "SCALAR"
    },
    {
      "bufferView": 2,
      "byteOffset": 124488,
      "componentType": 5126,
      "count": 439,
      "max": [
        1.0,
        1.0,
        1.0000001192092896
      ],
      "min": [
        -1.000000238418579,
        -1.0,
        -1.0000004768371582
      ],
      "type": "VEC3"
    },
    {
      "bufferView": 2,
      "byteOffset": 129756,
      "componentType": 5126,
      "count": 439,
      "max": [
        1.0,
        1.0,
        1.0
      ],
      "min": [
        -1.0,
        -1.0,
        -1.0
      ],
      "type": "VEC3"
    },
    {
      "bufferView": 1,
      "byteOffset": 54624,
      "componentType": 5126,
      "count": 439,
      "max": [
        1.0000001192092896,
        1.0
      ],
      "min": [
        0.0,
        0.0
      ],
      "type": "VEC2"
    },
    {
      "bufferView": 0,
      "byteOffset": 103392,
      "componentType": 5125,
      "count": 2280,
      "type": "SCALAR"
    },
    {
      "bufferView": 2,
      "byteOffset": 135024,
      "componentType": 5126,
      "count": 439,
      "max": [
        1.0,
        1.0,
        1.0000001192092896
      ],
      "min": [
        -1.000000238418579,
        -1.0,
        -1.0000004768371582
      ],
      "type": "VEC3"
    },
    {
      "bufferView": 2,
      "byteOffset": 140292,
      "componentType": 5126,
      "count": 439,
      "max": [
        1.0,
        1.0,
        1.0
      ],
      "min": [
        -1.0,
        -1.0,
        -1.0
      ],
      "type": "VEC3"
    },
    {
      "bufferView": 1,
      "byteOffset": 58136,
      "componentType": 5126,
      "count": 439,
      "max": [
        1.0000001192092896,
        1.0
      ],
      "min": [
        0.0,
        0.0
      ],
      "type": "VEC2"
    },
    {
      "bufferView": 0,
      "byteOffset": 112512,
      "componentType": 5125,
      "count": 2280,
      "type": "SCALAR"
    },
    {
      "bufferView": 2,
      "byteOffset": 145560,
      "componentType": 5126,
      "count": 1158,
      "max": [
        11.658013343811035,
        1.1272072792053223,
        11.727448463439941
      ],
      "min": [
        -11.750679969787598,
        -1.1272072792053223,
        -11.727455139160156
      ],
      "type": "VEC3"
    },
    {
      "bufferView": 2,
      "byteOffset": 159456,
      "componentType": 5126,
      "count": 1158,
      "max": [
        1.0,
        1.0,
        0.9999294877052307
      ],
      "min": [
        -1.0,
        -1.0,
        -0.9999821186065674
      ],
      "type": "VEC3"
    },
    {
      "bufferView": 1,
      "byteOffset": 61648,
      "componentType": 5126,
      "count": 1158,
      "max": [
        1.0,
        1.0
      ],
      "min": [
        0.0,
        -1.564621925354004e-07
      ],
      "type": "VEC2"
    },
    {
      "bufferView": 0,
      "byteOffset": 121632,
      "componentType": 5125,
      "count": 5724,
      "type": "SCALAR"
    },
    {
      "bufferView": 2,
      "byteOffset": 173352,
      "componentType": 5126,
      "count": 1173,
      "max": [
        11.658012390136719,
        1.1272072792053223,
        11.727445602416992
      ],
      "min": [
        -11.750679969787598,
        -1.1272072792053223,
        -11.727456092834473
      ],
      "type": "VEC3"
    },
    {
      "bufferView": 2,
      "byteOffset": 187428,
      "componentType": 5126,
      "count": 1173,
      "max": [
        1.0,
        1.0,
        0.9999296069145203
      ],
      "min": [
        -1.0,
        -1.0,
        -0.9999821186065674
      ],
      "type": "VEC3"
    },
    {
      "bufferView": 1,
      "byteOffset": 70912,
      "componentType": 5126,
      "count": 1173,
      "max": [
        1.0,
        1.0
      ],
      "min": [
        0.0,
        -1.564621925354004e-07
      ],
      "type": "VEC2"
    },
    {
      "bufferView": 0,
      "byteOffset": 144528,
      "componentType": 5125,
      "count": 5736,
      "type": "SCALAR"
    }
  ],
  "asset": {
    "extras": {
      "author": "Noelle A. (https://sketchfab.com/nfa274)",
      "license": "CC-BY-4.0 (http://creativecommons.org/licenses/by/4.0/)",
      "source": "https://sketchfab.com/3d-models/gucci-hat-model-white-1d19da430b054958b5ffbe74808c58e7",
      "title": "Gucci Hat Model (White)"
    },
    "generator": "Sketchfab-12.67.0",
    "version": "2.0"
  },
  "bufferViews": [
    {
      "buffer": 0,
      "byteLength": 167472,
      "name": "floatBufferViews",
      "target": 34963
    },
    {
      "buffer": 0,
      "byteLength": 80296,
      "byteOffset": 167472,
      "byteStride": 8,
      "name": "floatBufferViews",
      "target": 34962
    },
    {
      "buffer": 0,
      "byteLength": 201504,
      "byteOffset": 247768,
      "byteStride": 12,
      "name": "floatBufferViews",
      "target": 34962
    }
  ],
  "buffers": [
    {
      "byteLength": 449272,
      "uri": "scene.bin"
    }
  ],
  "images": [
    {
      "uri": "textures/blinn5_baseColor.png"
    }
  ],
  "materials": [
    {
      "doubleSided": true,
      "name": "blinn5",
      "pbrMetallicRoughness": {
        "baseColorTexture": {
          "index": 0
        },
        "metallicFactor": 0.0,
        "roughnessFactor": 0.6175685976
      }
    },
    {
      "doubleSided": true,
      "name": "pasted__blinn5",
      "pbrMetallicRoughness": {
        "baseColorFactor": [
          0.909,
          0.759092,
          0.070902,
          1.0
        ],
        "roughnessFactor": 0.22999237800000005
      }
    },
    {
      "doubleSided": true,
      "name": "pasted__pasted__blinn3",
      "pbrMetallicRoughness": {
        "baseColorFactor": [
          0.815287,
          0.680833,
          0.0635924,
          1.0
        ],
        "roughnessFactor": 0.17511432930000004
      }
    }
  ],
  "meshes": [
    {
      "name": "pasted__pCone1_blinn5_0",
      "primitives": [
        {
          "attributes": {
            "NORMAL": 1,
            "POSITION": 0,
            "TEXCOORD_0": 2,
            "TEXCOORD_1": 3
          },
          "indices": 4,
          "material": 0,
          "mode": 4
        }
      ]
    },
    {
      "name": "pasted__pTorus1_pasted__blinn5_0",
      "primitives": [
        {
          "attributes": {
            "NORMAL": 6,
            "POSITION": 5,
            "TEXCOORD_0": 7
          },
          "indices": 8,
          "material": 1,
          "mode": 4
        }
      ]
    },
    {
      "name": "pasted__pasted__pTorus1_pasted__pasted__blinn3_0",
      "primitives": [
        {
          "attributes": {
            "NORMAL": 10,
            "POSITION": 9,
            "TEXCOORD_0": 11
          },
          "indices": 12,
          "material": 2,
          "mode": 4
        }
      ]
    },
    {
      "name": "pasted__pasted__pSphere1_pasted__pasted__blinn3_0",
      "primitives": [
        {
          "attributes": {
            "NORMAL": 14,
            "POSITION": 13,
            "TEXCOORD_0": 15
          },
          "indices": 16,
          "material": 2,
          "mode": 4
        }
      ]
    },
    {
      "name": "pasted__pasted__pSphere2_pasted__pasted__blinn3_0",
      "primitives": [
        {
          "attributes": {
            "NORMAL": 18,
            "POSITION": 17,
            "TEXCOORD_0": 19
          },
          "indices": 20,
          "material": 2,
          "mode": 4
        }
      ]
    },
    {
      "name": "pasted__pasted__pasted__pSphere1_pasted__pasted__blinn3_0",
      "primitives": [
        {
          "attributes": {
            "NORMAL": 22,
            "POSITION": 21,
            "TEXCOORD_0": 23
          },
          "indices": 24,
          "material": 2,
          "mode": 4
        }
      ]
    },
    {
      "name": "pasted__pSphere1_pasted__pasted__blinn3_0",
      "primitives": [
        {
          "attributes": {
            "NORMAL": 26,
            "POSITION": 25,
            "TEXCOORD_0": 27
          },
          "indices": 28,
          "material": 2,
          "mode": 4
        }
      ]
    },
    {
      "name": "pasted__pTorus2_pasted__blinn5_0",
      "primitives": [
        {
          "attributes": {
            "NORMAL": 30,
            "POSITION": 29,
            "TEXCOORD_0": 31
          },
          "indices": 32,
          "material": 1,
          "mode": 4
        }
      ]
    },
    {
      "name": "pasted__pasted__pTorus2_pasted__blinn5_0",
      "primitives": [
        {
          "attributes": {
            "NORMAL": 34,
            "POSITION": 33,
            "TEXCOORD_0": 35
          },
          "indices": 36,
          "material": 1,
          "mode": 4
        }
      ]
    }
  ],
  "nodes": [
    {
      "children": [
        1
      ],
      "matrix": [
        1.0,
        0.0,
        0.0,
        0.0,
        0.0,
        2.220446049250313e-16,
        -1.0,
        0.0,
        0.0,
        1.0,
        2.220446049250313e-16,
        0.0,
        0.0,
        0.0,
        0.0,
        1.0
      ],
      "name": "Sketchfab_model"
    },
    {
      "children": [
        2
      ],
      "matrix": [
        1.0,
        0.0,
        0.0,
        0.0,
        0.0,
        0.0,
        1.0,
        0.0,
        0.0,
        -1.0,
        0.0,
        0.0,
        0.0,
        0.0,
        0.0,
        1.0
      ],
      "name": "baf68dc34733457b89512a928b8ab14e.fbx"
    },
    {
      "children": [
        3
      ],
      "name": "RootNode"
    },
    {
      "children": [
        4,
        6,
        8,
        11
      ],
      "matrix": [
        1.0,
        0.0,
        0.0,
        0.0,
        0.0,
        1.0,
        0.0,
        0.0,
        0.0,
        0.0,
        1.0,
        0.0,
        2.0887632369995117,
        0.0,
        0.0,
        1.0
      ],
      "name": "group53"
    },
    {
      "children": [
        5
      ],
      "matrix": [
        1.0,
        0.0,
        0.0,
        0.0,
        0.0,
        1.0,
        0.0,
        0.0,
        0.0,
        0.0,
        1.0,
        0.0,
        -1.133879542350769,
        8.72303295135498,
        -2.220446049250313e-16,
        1.0
      ],
      "name": "pasted__pCone1"
    },
    {
      "mesh": 0,
      "name": "pasted__pCone1_blinn5_0"
    },
    {
      "children": [
        7
      ],
      "matrix": [
        0.554193377494812,
        0.0,
        0.0,
        0.0,
        0.0,
        0.554193377494812,
        0.0,
        0.0,
        0.0,
        0.0,
        0.554193377494812,
        0.0,
        -1.133879542350769,
        7.730957984924316,
        -2.220446049250313e-16,
        1.0
      ],
      "name": "pasted__pTorus1"
    },
    {
      "mesh": 1,
      "name": "pasted__pTorus1_pasted__blinn5_0"
    },
    {
      "children": [
        9
      ],
      "matrix": [
        0.9554271101951599,
        0.0,
        0.0,
        0.0,
        0.0,
        0.9554271101951599,
        0.0,
        0.0,
        0.0,
        0.0,
        0.9554271101951599,
        0.0,
        3.4220443922095e-05,
        0.48974210023880005,
        4.417060939232442e-09,
        1.0
      ],
      "name": "pasted__group1"
    },
    {
      "children": [
        10
      ],
      "matrix": [
        0.554193377494812,
        0.0,
        0.0,
        0.0,
        0.0,
        0.554193377494812,
        0.0,
        0.0,
        0.0,
        0.0,
        0.554193377494812,
        0.0,
        -1.1867775917053223,
        7.730957984924316,
        -2.324035002325962e-16,
        1.0
      ],
      "name": "pasted__pasted__pTorus1"
    },
    {
      "mesh": 2,
      "name": "pasted__pasted__pTorus1_pasted__pasted__blinn3_0"
    },
    {
      "children": [
        12,
        14,
        16,
        18,
        20
      ],
      "matrix": [
        0.1046542376279831,
        0.0,
        0.0,
        0.0,
        0.0,
        0.01820990193744997,
        0.10305779410079963,
        0.0,
        0.0,
        -0.10305779410079963,
        0.01820990193744997,
        0.0,
        0.0021287682466208935,
        7.805316925048828,
        0.611499011516571,
        1.0
      ],
      "name": "pasted__group6"
    },
    {
      "children": [
        13
      ],
      "matrix": [
        -0.061562272055198715,
        7.539203942063766e-18,
        -0.0062651369742641305,
        0.0,
        7.056012583505658e-18,
        0.06410733610391617,
        7.810541889216753e-18,
        0.0,
        0.001403833171303318,
        1.526119712355748e-18,
        -0.013794296911128276,
        0.0,
        -11.091419219970703,
        3.552713678800501e-15,
        -0.06823905557394028,
        1.0
      ],
      "name": "pasted__pasted__pSphere1"
    },
    {
      "mesh": 3,
      "name": "pasted__pasted__pSphere1_pasted__pasted__blinn3_0"
    },
    {
      "children": [
        15
      ],
      "matrix": [
        0.054715520671103426,
        -9.947963031056797e-35,
        -0.03427792981815045,
        0.0,
        1.0867616675973319e-18,
        0.06410733610391617,
        1.7347235029490793e-18,
        0.0,
        0.007365821387115428,
        -4.43022694171716e-19,
        0.01175755812864069,
        0.0,
        -10.334188461303711,
        0.0,
        -0.3174816071987152,
        1.0
      ],
      "name": "pasted__pasted__pSphere2"
    },
    {
      "mesh": 4,
      "name": "pasted__pasted__pSphere2_pasted__pasted__blinn3_0"
    },
    {
      "children": [
        17
      ],
      "matrix": [
        -0.05393814481767921,
        6.605517640291723e-18,
        0.03548860674294019,
        0.0,
        1.2166113339101675e-17,
        0.06410733610391617,
        6.558596265336302e-18,
        0.0,
        -0.007625977996129238,
        2.633021561887868e-18,
        -0.011590511527012279,
        0.0,
        -11.016448974609375,
        0.0,
        0.3285869359970093,
        1.0
      ],
      "name": "pasted__pasted__pasted__pSphere1"
    },
    {
      "mesh": 5,
      "name": "pasted__pasted__pasted__pSphere1_pasted__pasted__blinn3_0"
    },
    {
      "children": [
        19
      ],
      "matrix": [
        0.061407385656341476,
        -2.168404295870137e-19,
        0.007635330297894105,
        0.0,
        1.0680724686549586e-20,
        0.06410733610391617,
        1.7347235029490793e-18,
        0.0,
        -0.0017108532487112868,
        -3.7204499393981704e-19,
        0.01375959141859193,
        0.0,
        -10.268078804016113,
        0.0,
        0.08091636747121811,
        1.0
      ],
      "name": "pasted__pSphere1"
    },
    {
      "mesh": 6,
      "name": "pasted__pSphere1_pasted__pasted__blinn3_0"
    },
    {
      "children": [
        21
      ],
      "matrix": [
        1.0,
        0.0,
        0.0,
        0.0,
        0.0,
        1.0,
        2.775557561562892e-17,
        0.0,
        0.0,
        -2.775557561562892e-17,
        1.0,
        0.0,
        0.0,
        0.0,
        0.0,
        1.0
      ],
      "name": "pasted__group7"
    },
    {
      "children": [
        22,
        24
      ],
      "matrix": [
        1.0,
        0.0,
        0.0,
        0.0,
        0.0,
        1.0,
        2.775557561562892e-17,
        0.0,
        0.0,
        -2.775557561562892e-17,
        1.0,
        0.0,
        0.0,
        0.0,
        0.0,
        1.0
      ],
      "name": "pasted__group9"
    },
    {
      "children": [
        23
      ],
      "matrix": [
        0.05385080352425575,
        0.0,
        0.0,
        0.0,
        0.0,
        0.05385080352425575,
        1.7347235276794033e-18,
        0.0,
        0.0,
        -2.0331522590377436e-18,
        0.06311488896608353,
        0.0,
        -10.834529876708984,
        3.552713678800501e-15,
        0.0,
        1.0
      ],
      "name": "pasted__pTorus2"
    },
    {
      "mesh": 7,
      "name": "pasted__pTorus2_pasted__blinn5_0"
    },
    {
      "children": [
        25
      ],
      "matrix": [
        -0.05383743338186652,
        -6.59318404654117e-18,
        0.0011999196060899888,
        0.0,
        -6.447873646266054e-18,
        0.05385080352425575,
        6.59318404654117e-18,
        0.0,
        -0.0014063447107615465,
        7.557117120232283e-18,
        -0.06309921872539757,
        0.0,
        -10.52330493927002,
        7.105427357601002e-15,
        3.538220698828809e-05,
        1.0
      ],
      "name": "pasted__pasted__pTorus2"
    },
    {
      "mesh": 8,
      "name": "pasted__pasted__pTorus2_pasted__blinn5_0"
    }
  ],
  "samplers": [
    {
      "magFilter": 9729,
      "minFilter": 9987,
      "wrapS": 10497,
      "wrapT": 10497
    }
  ],
  "scene": 0,
  "scenes": [
    {
      "name": "Sketchfab_Scene",
      "nodes": [
        0
      ]
    }
  ],
  "textures": [
    {
      "sampler": 0,
      "source": 0
    }
  ]
}
