{
  "accessors": [
    {
      "bufferView": 2,
      "componentType": 5126,
      "count": 21636,
      "max": [
        18.51606559753418,
        118.17842864990234,
        13.826544761657715
      ],
      "min": [
        -19.448833465576172,
        11.72435474395752,
        -13.216323852539063
      ],
      "type": "VEC3"
    },
    {
      "bufferView": 2,
      "byteOffset": 259632,
      "componentType": 5126,
      "count": 21636,
      "max": [
        0.9999352693557739,
        0.8913292288780212,
        0.9999934434890747
      ],
      "min": [
        -0.9999918937683105,
        -0.9993368983268738,
        -0.9999982714653015
      ],
      "type": "VEC3"
    },
    {
      "bufferView": 3,
      "componentType": 5126,
      "count": 21636,
      "max": [
        0.9999931454658508,
        0.6881774067878723,
        0.9999998807907104,
        1.0
      ],
      "min": [
        -0.9999960660934448,
        -0.6404227614402771,
        -0.9999989867210388,
        -1.0
      ],
      "type": "VEC4"
    },
    {
      "bufferView": 1,
      "componentType": 5126,
      "count": 21636,
      "max": [
        0.9910356402397156,
        0.9863484501838684
      ],
      "min": [
        0.06098860502243042,
        0.042312897741794586
      ],
      "type": "VEC2"
    },
    {
      "bufferView": 1,
      "byteOffset": 173088,
      "componentType": 5126,
      "count": 21636,
      "max": [
        0.9910356402397156,
        0.9863484501838684
      ],
      "min": [
        0.06098860502243042,
        0.042312897741794586
      ],
      "type": "VEC2"
    },
    {
      "bufferView": 1,
      "byteOffset": 346176,
      "componentType": 5126,
      "count": 21636,
      "max": [
        0.9910356402397156,
        0.9863484501838684
      ],
      "min": [
        0.06098860502243042,
        0.042312897741794586
      ],
      "type": "VEC2"
    },
    {
      "bufferView": 0,
      "componentType": 5125,
      "count": 115260,
      "type": "SCALAR"
    },
    {
      "bufferView": 2,
      "byteOffset": 519264,
      "componentType": 5126,
      "count": 1831,
      "max": [
        2.545065402984619,
        116.02703857421875,
        13.804242134094238
      ],
      "min": [
        0.5379067659378052,
        114.01220703125,
        13.315155029296875
      ],
      "type": "VEC3"
    },
    {
      "bufferView": 2,
      "byteOffset": 541236,
      "componentType": 5126,
      "count": 1831,
      "max": [
        0.9999761581420898,
        1.0,
        0.9996377825737
      ],
      "min": [
        -1.0,
        -1.0,
        -0.9996377825737
      ],
      "type": "VEC3"
    },
    {
      "bufferView": 3,
      "byteOffset": 346176,
      "componentType": 5126,
      "count": 1831,
      "max": [
        0.9999948740005493,
        1.0,
        0.9999920725822449,
        1.0
      ],
      "min": [
        -0.9999997019767761,
        -1.0,
        -0.9999990463256836,
        -1.0
      ],
      "type": "VEC4"
    },
    {
      "bufferView": 1,
      "byteOffset": 519264,
      "componentType": 5126,
      "count": 1831,
      "max": [
        0.8680415153503418,
        0.9948690533638
      ],
      "min": [
        0.01033291220664978,
        0.7744725346565247
      ],
      "type": "VEC2"
    },
    {
      "bufferView": 1,
      "byteOffset": 533912,
      "componentType": 5126,
      "count": 1831,
      "max": [
        0.8680415153503418,
        0.9948690533638
      ],
      "min": [
        0.01033291220664978,
        0.7744725346565247
      ],
      "type": "VEC2"
    },
    {
      "bufferView": 1,
      "byteOffset": 548560,
      "componentType": 5126,
      "count": 1831,
      "max": [
        0.8680415153503418,
        0.9948690533638
      ],
      "min": [
        0.01033291220664978,
        0.7744725346565247
      ],
      "type": "VEC2"
    },
    {
      "bufferView": 0,
      "byteOffset": 461040,
      "componentType": 5125,
      "count": 8922,
      "type": "SCALAR"
    }
  ],
  "asset": {
    "extras": {
      "author": "artemlevandovskiy24 (https://sketchfab.com/artemlevandovskiy24)",
      "license": "CC-BY-4.0 (http://creativecommons.org/licenses/by/4.0/)",
      "source": "https://sketchfab.com/3d-models/skinny-pants-free-35b2c9363cd441ba860c776be39b41bb",
      "title": "Skinny Pants FREE"
    },
    "generator": "Sketchfab-15.70.0",
    "version": "2.0"
  },
  "bufferViews": [
    {
      "buffer": 0,
      "byteLength": 496728,
      "name": "floatBufferViews",
      "target": 34963
    },
    {
      "buffer": 0,
      "byteLength": 563208,
      "byteOffset": 496728,
      "byteStride": 8,
      "name": "floatBufferViews",
      "target": 34962
    },
    {
      "buffer": 0,
      "byteLength": 563208,
      "byteOffset": 1059936,
      "byteStride": 12,
      "name": "floatBufferViews",
      "target": 34962
    },
    {
      "buffer": 0,
      "byteLength": 375472,
      "byteOffset": 1623144,
      "byteStride": 16,
      "name": "floatBufferViews",
      "target": 34962
    }
  ],
  "buffers": [
    {
      "byteLength": 1998616,
      "uri": "scene.bin"
    }
  ],
  "images": [
    {
      "uri": "textures/Denim_FRONT_2632_baseColor.png"
    },
    {
      "uri": "textures/Denim_FRONT_2632_metallicRoughness.png"
    },
    {
      "uri": "textures/Denim_FRONT_2632_emissive.png"
    },
    {
      "uri": "textures/Denim_FRONT_2632_normal.png"
    },
    {
      "uri": "textures/Material6799682_baseColor.png"
    },
    {
      "uri": "textures/Material6799682_metallicRoughness.png"
    },
    {
      "uri": "textures/Material6799682_emissive.png"
    },
    {
      "uri": "textures/Material6799682_normal.png"
    }
  ],
  "materials": [
    {
      "doubleSided": true,
      "emissiveFactor": [
        1.0,
        1.0,
        1.0
      ],
      "emissiveTexture": {
        "index": 2
      },
      "name": "Denim_FRONT_2632",
      "normalTexture": {
        "index": 3
      },
      "pbrMetallicRoughness": {
        "baseColorTexture": {
          "index": 0
        },
        "metallicRoughnessTexture": {
          "index": 1
        }
      }
    },
    {
      "doubleSided": true,
      "emissiveFactor": [
        1.0,
        1.0,
        1.0
      ],
      "emissiveTexture": {
        "index": 6
      },
      "name": "Material6799682",
      "normalTexture": {
        "index": 7
      },
      "pbrMetallicRoughness": {
        "baseColorTexture": {
          "index": 4
        },
        "metallicRoughnessTexture": {
          "index": 5
        }
      }
    }
  ],
  "meshes": [
    {
      "name": "Pants Skinny LP_Denim_FRONT_2632_0",
      "primitives": [
        {
          "attributes": {
            "NORMAL": 1,
            "POSITION": 0,
            "TANGENT": 2,
            "TEXCOORD_0": 3,
            "TEXCOORD_1": 4,
            "TEXCOORD_2": 5
          },
          "indices": 6,
          "material": 0,
          "mode": 4
        }
      ]
    },
    {
      "name": "Pants Skinny LP_Material6799682_0",
      "primitives": [
        {
          "attributes": {
            "NORMAL": 8,
            "POSITION": 7,
            "TANGENT": 9,
            "TEXCOORD_0": 10,
            "TEXCOORD_1": 11,
            "TEXCOORD_2": 12
          },
          "indices": 13,
          "material": 1,
          "mode": 4
        }
      ]
    }
  ],
  "nodes": [
    {
      "children": [
        1
      ],
      "matrix": [
        1.0,
        0.0,
        0.0,
        0.0,
        0.0,
        2.220446049250313e-16,
        -1.0,
        0.0,
        0.0,
        1.0,
        2.220446049250313e-16,
        0.0,
        0.0,
        0.0,
        0.0,
        1.0
      ],
      "name": "Sketchfab_model"
    },
    {
      "children": [
        2
      ],
      "matrix": [
        0.0010000000474974513,
        0.0,
        0.0,
        0.0,
        0.0,
        0.0,
        0.0010000000474974513,
        0.0,
        0.0,
        -0.0010000000474974513,
        0.0,
        0.0,
        0.0,
        0.0,
        0.0,
        1.0
      ],
      "name": "Pants Skinny LP.fbx"
    },
    {
      "children": [
        3
      ],
      "name": "RootNode"
    },
    {
      "children": [
        4,
        5
      ],
      "matrix": [
        10.0,
        0.0,
        0.0,
        0.0,
        0.0,
        10.0,
        0.0,
        0.0,
        0.0,
        0.0,
        10.0,
        0.0,
        0.0,
        0.0,
        0.0,
        1.0
      ],
      "name": "Pants Skinny LP"
    },
    {
      "mesh": 0,
      "name": "Pants Skinny LP_Denim_FRONT_2632_0"
    },
    {
      "mesh": 1,
      "name": "Pants Skinny LP_Material6799682_0"
    }
  ],
  "samplers": [
    {
      "magFilter": 9729,
      "minFilter": 9987,
      "wrapS": 10497,
      "wrapT": 10497
    }
  ],
  "scene": 0,
  "scenes": [
    {
      "name": "Sketchfab_Scene",
      "nodes": [
        0
      ]
    }
  ],
  "textures": [
    {
      "sampler": 0,
      "source": 0
    },
    {
      "sampler": 0,
      "source": 1
    },
    {
      "sampler": 0,
      "source": 2
    },
    {
      "sampler": 0,
      "source": 3
    },
    {
      "sampler": 0,
      "source": 4
    },
    {
      "sampler": 0,
      "source": 5
    },
    {
      "sampler": 0,
      "source": 6
    },
    {
      "sampler": 0,
      "source": 7
    }
  ]
}
