{
  "accessors": [
    {
      "bufferView": 2,
      "componentType": 5126,
      "count": 1321,
      "max": [
        0.8929316401481628,
        0.6583820581436157,
        1.0116431713104248
      ],
      "min": [
        -0.8751174211502075,
        -1.5152873992919922,
        -0.9481154680252075
      ],
      "type": "VEC3"
    },
    {
      "bufferView": 2,
      "byteOffset": 15852,
      "componentType": 5126,
      "count": 1321,
      "max": [
        0.9737889170646667,
        0.999294102191925,
        0.9997686743736267
      ],
      "min": [
        -0.9996853470802307,
        -0.9999960064888,
        -0.9993994235992432
      ],
      "type": "VEC3"
    },
    {
      "bufferView": 1,
      "componentType": 5126,
      "count": 1321,
      "max": [
        1.0,
        1.0
      ],
      "min": [
        0.0,
        0.01000000536441803
      ],
      "type": "VEC2"
    },
    {
      "bufferView": 0,
      "componentType": 5125,
      "count": 7476,
      "type": "SCALAR"
    },
    {
      "bufferView": 3,
      "componentType": 5126,
      "count": 101,
      "max": [
        10.416666984558105
      ],
      "min": [
        0.0416666679084301
      ],
      "type": "SCALAR"
    },
    {
      "bufferView": 4,
      "componentType": 5126,
      "count": 101,
      "max": [
        -1.3545624017715454,
        4.667885780334473,
        -0.7172622680664063
      ],
      "min": [
        -1.3547394275665283,
        4.667885780334473,
        -0.7177116870880127
      ],
      "type": "VEC3"
    },
    {
      "bufferView": 3,
      "byteOffset": 404,
      "componentType": 5126,
      "count": 101,
      "max": [
        10.416666984558105
      ],
      "min": [
        0.0416666679084301
      ],
      "type": "SCALAR"
    },
    {
      "bufferView": 5,
      "componentType": 5126,
      "count": 101,
      "max": [
        0.014336464926600456,
        0.9996066689491272,
        0.014334328472614288,
        0.9998972415924072
      ],
      "min": [
        -0.011358843185007572,
        -0.9996210932731628,
        -0.008196947164833546,
        0.023496713489294052
      ],
      "type": "VEC4"
    },
    {
      "bufferView": 3,
      "byteOffset": 808,
      "componentType": 5126,
      "count": 100,
      "max": [
        4.166666507720947
      ],
      "min": [
        0.0416666679084301
      ],
      "type": "SCALAR"
    },
    {
      "bufferView": 4,
      "byteOffset": 1212,
      "componentType": 5126,
      "count": 100,
      "max": [
        -1.3545624017715454,
        4.667885780334473,
        -0.7172622680664063
      ],
      "min": [
        -1.3547394275665283,
        4.667885780334473,
        -0.7177116870880127
      ],
      "type": "VEC3"
    },
    {
      "bufferView": 3,
      "byteOffset": 1208,
      "componentType": 5126,
      "count": 100,
      "max": [
        4.166666507720947
      ],
      "min": [
        0.0416666679084301
      ],
      "type": "SCALAR"
    },
    {
      "bufferView": 5,
      "byteOffset": 1616,
      "componentType": 5126,
      "count": 100,
      "max": [
        0.014336464926600456,
        0.9996066689491272,
        0.014334335923194885,
        0.9998972415924072
      ],
      "min": [
        -0.011358842253684998,
        -0.9996210932731628,
        -0.008196947164833546,
        0.023496706038713455
      ],
      "type": "VEC4"
    }
  ],
  "animations": [
    {
      "channels": [
        {
          "sampler": 0,
          "target": {
            "node": 3,
            "path": "translation"
          }
        },
        {
          "sampler": 1,
          "target": {
            "node": 3,
            "path": "rotation"
          }
        }
      ],
      "name": "Action",
      "samplers": [
        {
          "input": 4,
          "interpolation": "LINEAR",
          "output": 5
        },
        {
          "input": 6,
          "interpolation": "LINEAR",
          "output": 7
        }
      ]
    },
    {
      "channels": [
        {
          "sampler": 0,
          "target": {
            "node": 3,
            "path": "translation"
          }
        },
        {
          "sampler": 1,
          "target": {
            "node": 3,
            "path": "rotation"
          }
        }
      ],
      "name": "Cylinder.022Action",
      "samplers": [
        {
          "input": 8,
          "interpolation": "LINEAR",
          "output": 9
        },
        {
          "input": 10,
          "interpolation": "LINEAR",
          "output": 11
        }
      ]
    }
  ],
  "asset": {
    "extras": {
      "author": "yomnafarghal (https://sketchfab.com/yomnafarghal)",
      "license": "CC-BY-4.0 (http://creativecommons.org/licenses/by/4.0/)",
      "source": "https://sketchfab.com/3d-models/red-ice-cap-50522f512b844c7eacc7a1d172ac5c3b",
      "title": "red ice cap"
    },
    "generator": "Sketchfab-14.71.0",
    "version": "2.0"
  },
  "bufferViews": [
    {
      "buffer": 0,
      "byteLength": 29904,
      "name": "floatBufferViews",
      "target": 34963
    },
    {
      "buffer": 0,
      "byteLength": 10568,
      "byteOffset": 29904,
      "byteStride": 8,
      "name": "floatBufferViews",
      "target": 34962
    },
    {
      "buffer": 0,
      "byteLength": 31704,
      "byteOffset": 40472,
      "byteStride": 12,
      "name": "floatBufferViews",
      "target": 34962
    },
    {
      "buffer": 0,
      "byteLength": 1608,
      "byteOffset": 72176,
      "name": "floatBufferViews"
    },
    {
      "buffer": 0,
      "byteLength": 2412,
      "byteOffset": 73784,
      "byteStride": 12,
      "name": "floatBufferViews"
    },
    {
      "buffer": 0,
      "byteLength": 3216,
      "byteOffset": 76196,
      "byteStride": 16,
      "name": "floatBufferViews"
    }
  ],
  "buffers": [
    {
      "byteLength": 79412,
      "uri": "scene.bin"
    }
  ],
  "extensionsUsed": [
    "KHR_materials_specular"
  ],
  "images": [
    {
      "uri": "textures/Material_baseColor.jpeg"
    }
  ],
  "materials": [
    {
      "doubleSided": true,
      "extensions": {
        "KHR_materials_specular": {
          "specularColorFactor": [
            1.0,
            1.0,
            1.0
          ],
          "specularFactor": 0.0
        }
      },
      "name": "Material",
      "pbrMetallicRoughness": {
        "baseColorTexture": {
          "index": 0
        },
        "metallicFactor": 0.5521315624562706
      }
    }
  ],
  "meshes": [
    {
      "name": "Object_0",
      "primitives": [
        {
          "attributes": {
            "NORMAL": 1,
            "POSITION": 0,
            "TEXCOORD_0": 2
          },
          "indices": 3,
          "material": 0,
          "mode": 4
        }
      ]
    }
  ],
  "nodes": [
    {
      "children": [
        1
      ],
      "matrix": [
        1.0,
        0.0,
        0.0,
        0.0,
        0.0,
        2.220446049250313e-16,
        -1.0,
        0.0,
        0.0,
        1.0,
        2.220446049250313e-16,
        0.0,
        0.0,
        0.0,
        0.0,
        1.0
      ],
      "name": "Sketchfab_model"
    },
    {
      "children": [
        2
      ],
      "name": "root"
    },
    {
      "children": [
        3
      ],
      "matrix": [
        1.0,
        0.0,
        0.0,
        0.0,
        0.0,
        2.220446049250313e-16,
        1.0,
        0.0,
        0.0,
        -1.0,
        2.220446049250313e-16,
        0.0,
        0.0,
        0.0,
        0.0,
        1.0
      ],
      "name": "GLTF_SceneRootNode"
    },
    {
      "children": [
        4
      ],
      "name": "Cylinder.022_2",
      "rotation": [
        0.00847841426730156,
        2.816801679728087e-05,
        0.011561022140085697,
        0.9998972415924072
      ],
      "scale": [
        0.3474196195602417,
        0.2790582776069641,
        0.3274039924144745
      ],
      "translation": [
        -1.3547394275665283,
        4.667885780334473,
        -0.7172622680664063
      ]
    },
    {
      "mesh": 0,
      "name": "Object_4"
    }
  ],
  "samplers": [
    {
      "magFilter": 9729,
      "minFilter": 9987,
      "wrapS": 10497,
      "wrapT": 10497
    }
  ],
  "scene": 0,
  "scenes": [
    {
      "name": "Sketchfab_Scene",
      "nodes": [
        0
      ]
    }
  ],
  "textures": [
    {
      "sampler": 0,
      "source": 0
    }
  ]
}
