{
  "accessors": [
    {
      "bufferView": 2,
      "componentType": 5126,
      "count": 5461,
      "max": [
        34.514808654785156,
        13.506579399108887,
        -88.32503509521484
      ],
      "min": [
        -34.467262268066406,
        -15.70569133758545,
        -154.75271606445313
      ],
      "type": "VEC3"
    },
    {
      "bufferView": 2,
      "byteOffset": 65532,
      "componentType": 5126,
      "count": 5461,
      "max": [
        0.9996228814125061,
        0.9998941421508789,
        0.9812708497047424
      ],
      "min": [
        -0.9998769164085388,
        -0.9999039769172668,
        -0.9949917793273926
      ],
      "type": "VEC3"
    },
    {
      "bufferView": 1,
      "componentType": 5126,
      "count": 5461,
      "max": [
        0.9901970028877258,
        0.9901970028877258
      ],
      "min": [
        0.009802999906241894,
        0.09869498014450073
      ],
      "type": "VEC2"
    },
    {
      "bufferView": 0,
      "componentType": 5125,
      "count": 29886,
      "type": "SCALAR"
    }
  ],
  "asset": {
    "extras": {
      "author": "Crezy3D (https://sketchfab.com/mr.alex7007)",
      "license": "CC-BY-4.0 (http://creativecommons.org/licenses/by/4.0/)",
      "source": "https://sketchfab.com/3d-models/shirt-the-punisher-e66a171f9d8d4787bd6e40f378d42191",
      "title": "Shirt (the Punisher)"
    },
    "generator": "Sketchfab-12.66.0",
    "version": "2.0"
  },
  "bufferViews": [
    {
      "buffer": 0,
      "byteLength": 119544,
      "name": "floatBufferViews",
      "target": 34963
    },
    {
      "buffer": 0,
      "byteLength": 43688,
      "byteOffset": 119544,
      "byteStride": 8,
      "name": "floatBufferViews",
      "target": 34962
    },
    {
      "buffer": 0,
      "byteLength": 131064,
      "byteOffset": 163232,
      "byteStride": 12,
      "name": "floatBufferViews",
      "target": 34962
    }
  ],
  "buffers": [
    {
      "byteLength": 294296,
      "uri": "scene.bin"
    }
  ],
  "images": [
    {
      "uri": "textures/MatTornTShirt3.001_baseColor.png"
    }
  ],
  "materials": [
    {
      "doubleSided": true,
      "name": "MatTornTShirt3.001",
      "pbrMetallicRoughness": {
        "baseColorFactor": [
          0.8590144647319556,
          0.8590144647319556,
          0.8590144647319556,
          1.0
        ],
        "baseColorTexture": {
          "index": 0
        },
        "metallicFactor": 0.8529342915686239,
        "roughnessFactor": 0.7191704819753267
      }
    }
  ],
  "meshes": [
    {
      "name": "Object_0",
      "primitives": [
        {
          "attributes": {
            "NORMAL": 1,
            "POSITION": 0,
            "TEXCOORD_0": 2
          },
          "indices": 3,
          "material": 0,
          "mode": 4
        }
      ]
    }
  ],
  "nodes": [
    {
      "children": [
        1
      ],
      "matrix": [
        1.0,
        0.0,
        0.0,
        0.0,
        0.0,
        2.220446049250313e-16,
        -1.0,
        0.0,
        0.0,
        1.0,
        2.220446049250313e-16,
        0.0,
        0.0,
        0.0,
        0.0,
        1.0
      ],
      "name": "Sketchfab_model"
    },
    {
      "children": [
        2
      ],
      "name": "root"
    },
    {
      "children": [
        3
      ],
      "matrix": [
        1.0,
        0.0,
        0.0,
        0.0,
        0.0,
        2.220446049250313e-16,
        1.0,
        0.0,
        0.0,
        -1.0,
        2.220446049250313e-16,
        0.0,
        0.0,
        0.0,
        0.0,
        1.0
      ],
      "name": "GLTF_SceneRootNode"
    },
    {
      "children": [
        4
      ],
      "matrix": [
        1.0,
        0.0,
        0.0,
        0.0,
        0.0,
        0.0,
        1.0,
        0.0,
        0.0,
        -1.0,
        0.0,
        0.0,
        0.0,
        0.0,
        0.0,
        1.0
      ],
      "name": "TornTShirt3.Shape_0"
    },
    {
      "mesh": 0,
      "name": "Object_4"
    }
  ],
  "samplers": [
    {
      "magFilter": 9729,
      "minFilter": 9987,
      "wrapS": 10497,
      "wrapT": 10497
    }
  ],
  "scene": 0,
  "scenes": [
    {
      "name": "Sketchfab_Scene",
      "nodes": [
        0
      ]
    }
  ],
  "textures": [
    {
      "sampler": 0,
      "source": 0
    }
  ]
}
