{
  "accessors": [
    {
      "bufferView": 2,
      "componentType": 5126,
      "count": 31625,
      "max": [
        0.6869410276412964,
        0.2475380003452301,
        1.865509033203125
      ],
      "min": [
        -0.6827099919319153,
        -0.12234999984502792,
        0.4188370108604431
      ],
      "type": "VEC3"
    },
    {
      "bufferView": 2,
      "byteOffset": 379500,
      "componentType": 5126,
      "count": 31625,
      "max": [
        0.9999988079071045,
        0.9999946355819702,
        0.9988986849784851
      ],
      "min": [
        -0.9999814033508301,
        -0.9999983310699463,
        -0.999977707862854
      ],
      "type": "VEC3"
    },
    {
      "bufferView": 3,
      "componentType": 5126,
      "count": 31625,
      "max": [
        0.9968658089637756,
        0.9999904632568359,
        0.9826144576072693,
        1.0
      ],
      "min": [
        -0.9999051094055176,
        -0.9999709129333496,
        -0.9569718241691589,
        -1.0
      ],
      "type": "VEC4"
    },
    {
      "bufferView": 1,
      "componentType": 5126,
      "count": 31625,
      "max": [
        0.9778559803962708,
        0.9056540131568909
      ],
      "min": [
        0.018503999337553978,
        0.014903999865055084
      ],
      "type": "VEC2"
    },
    {
      "bufferView": 0,
      "componentType": 5125,
      "count": 184152,
      "type": "SCALAR"
    }
  ],
  "asset": {
    "extras": {
      "author": "dejan31 (https://sketchfab.com/dejan31)",
      "license": "CC-BY-4.0 (http://creativecommons.org/licenses/by/4.0/)",
      "source": "https://sketchfab.com/3d-models/iridescent-coat-4d11929dbe7d4f3c8abb2652a55aef65",
      "title": "Iridescent Coat"
    },
    "generator": "Sketchfab-14.15.0",
    "version": "2.0"
  },
  "bufferViews": [
    {
      "buffer": 0,
      "byteLength": 736608,
      "name": "floatBufferViews",
      "target": 34963
    },
    {
      "buffer": 0,
      "byteLength": 253000,
      "byteOffset": 736608,
      "byteStride": 8,
      "name": "floatBufferViews",
      "target": 34962
    },
    {
      "buffer": 0,
      "byteLength": 759000,
      "byteOffset": 989608,
      "byteStride": 12,
      "name": "floatBufferViews",
      "target": 34962
    },
    {
      "buffer": 0,
      "byteLength": 506000,
      "byteOffset": 1748608,
      "byteStride": 16,
      "name": "floatBufferViews",
      "target": 34962
    }
  ],
  "buffers": [
    {
      "byteLength": 2254608,
      "uri": "scene.bin"
    }
  ],
  "images": [
    {
      "uri": "textures/FABRIC_1_FRONT_4129.002_baseColor.png"
    },
    {
      "uri": "textures/FABRIC_1_FRONT_4129.002_metallicRoughness.png"
    },
    {
      "uri": "textures/FABRIC_1_FRONT_4129.002_normal.png"
    }
  ],
  "materials": [
    {
      "doubleSided": true,
      "name": "FABRIC_1_FRONT_4129.002",
      "normalTexture": {
        "index": 2
      },
      "pbrMetallicRoughness": {
        "baseColorTexture": {
          "index": 0
        },
        "metallicRoughnessTexture": {
          "index": 1
        }
      }
    }
  ],
  "meshes": [
    {
      "name": "Object_0",
      "primitives": [
        {
          "attributes": {
            "NORMAL": 1,
            "POSITION": 0,
            "TANGENT": 2,
            "TEXCOORD_0": 3
          },
          "indices": 4,
          "material": 0,
          "mode": 4
        }
      ]
    }
  ],
  "nodes": [
    {
      "children": [
        1
      ],
      "matrix": [
        1.0,
        0.0,
        0.0,
        0.0,
        0.0,
        2.220446049250313e-16,
        -1.0,
        0.0,
        0.0,
        1.0,
        2.220446049250313e-16,
        0.0,
        0.0,
        0.0,
        0.0,
        1.0
      ],
      "name": "Sketchfab_model"
    },
    {
      "children": [
        2
      ],
      "name": "Silvervest.obj.cleaner.materialmerger.gles"
    },
    {
      "mesh": 0,
      "name": "Object_2"
    }
  ],
  "samplers": [
    {
      "magFilter": 9729,
      "minFilter": 9987,
      "wrapS": 10497,
      "wrapT": 10497
    }
  ],
  "scene": 0,
  "scenes": [
    {
      "name": "Sketchfab_Scene",
      "nodes": [
        0
      ]
    }
  ],
  "textures": [
    {
      "sampler": 0,
      "source": 0
    },
    {
      "sampler": 0,
      "source": 1
    },
    {
      "sampler": 0,
      "source": 2
    }
  ]
}
