{
  "accessors": [
    {
      "bufferView": 2,
      "componentType": 5126,
      "count": 11679,
      "max": [
        674.6041259765625,
        182.00965881347656,
        1584.3505859375
      ],
      "min": [
        -674.6041259765625,
        -127.5301742553711,
        971.2236328125
      ],
      "type": "VEC3"
    },
    {
      "bufferView": 2,
      "byteOffset": 140148,
      "componentType": 5126,
      "count": 11679,
      "max": [
        0.9999802708625793,
        0.9999656677246094,
        0.9996672868728638
      ],
      "min": [
        -0.9999892115592957,
        -0.999973714351654,
        -0.9999588131904602
      ],
      "type": "VEC3"
    },
    {
      "bufferView": 1,
      "componentType": 5126,
      "count": 11679,
      "max": [
        0.9990000128746033,
        0.8777999877929688
      ],
      "min": [
        0.0010000000474974513,
        0.0010000000474974513
      ],
      "type": "VEC2"
    },
    {
      "bufferView": 0,
      "componentType": 5125,
      "count": 58056,
      "type": "SCALAR"
    },
    {
      "bufferView": 2,
      "byteOffset": 280296,
      "componentType": 5126,
      "count": 1893,
      "max": [
        222.90455627441406,
        164.71070861816406,
        1566.9705810546875
      ],
      "min": [
        -221.32876586914063,
        -118.22928619384766,
        899.4722900390625
      ],
      "type": "VEC3"
    },
    {
      "bufferView": 2,
      "byteOffset": 303012,
      "componentType": 5126,
      "count": 1893,
      "max": [
        0.9997155666351318,
        0.9998392462730408,
        0.9866185784339905
      ],
      "min": [
        -0.9991574287414551,
        -0.9999459981918335,
        -0.7522868514060974
      ],
      "type": "VEC3"
    },
    {
      "bufferView": 1,
      "byteOffset": 93432,
      "componentType": 5126,
      "count": 1893,
      "max": [
        0.965499997138977,
        0.9990000128746033
      ],
      "min": [
        0.0010000000474974513,
        0.0010000000474974513
      ],
      "type": "VEC2"
    },
    {
      "bufferView": 0,
      "byteOffset": 232224,
      "componentType": 5125,
      "count": 9756,
      "type": "SCALAR"
    },
    {
      "bufferView": 2,
      "byteOffset": 325728,
      "componentType": 5126,
      "count": 8839,
      "max": [
        0.9740999937057495,
        -0.5600453615188599,
        0.4482860565185547
      ],
      "min": [
        -1.0234999656677246,
        -1.448744773864746,
        -0.43709999322891235
      ],
      "type": "VEC3"
    },
    {
      "bufferView": 2,
      "byteOffset": 431796,
      "componentType": 5126,
      "count": 8839,
      "max": [
        0.9990425705909729,
        0.9999432563781738,
        0.9999985098838806
      ],
      "min": [
        -0.9998650550842285,
        -0.9999428391456604,
        -0.9999977350234985
      ],
      "type": "VEC3"
    },
    {
      "bufferView": 1,
      "byteOffset": 108576,
      "componentType": 5126,
      "count": 8839,
      "max": [
        0.9988220930099487,
        0.9855079650878906
      ],
      "min": [
        0.0010000000474974513,
        0.0010000000474974513
      ],
      "type": "VEC2"
    },
    {
      "bufferView": 0,
      "byteOffset": 271248,
      "componentType": 5125,
      "count": 30930,
      "type": "SCALAR"
    },
    {
      "bufferView": 2,
      "byteOffset": 537864,
      "componentType": 5126,
      "count": 17599,
      "max": [
        192.1669921875,
        174.8470001220703,
        966.1571655273438
      ],
      "min": [
        -207.77044677734375,
        -155.0509490966797,
        -16.787376403808594
      ],
      "type": "VEC3"
    },
    {
      "bufferView": 2,
      "byteOffset": 749052,
      "componentType": 5126,
      "count": 17599,
      "max": [
        0.999752402305603,
        0.9999983310699463,
        0.9999521970748901
      ],
      "min": [
        -0.9999544024467468,
        -0.999984860420227,
        -0.9999915957450867
      ],
      "type": "VEC3"
    },
    {
      "bufferView": 1,
      "byteOffset": 179288,
      "componentType": 5126,
      "count": 17599,
      "max": [
        0.9987999796867371,
        1.0
      ],
      "min": [
        0.0,
        0.0
      ],
      "type": "VEC2"
    },
    {
      "bufferView": 0,
      "byteOffset": 394968,
      "componentType": 5125,
      "count": 75555,
      "type": "SCALAR"
    },
    {
      "bufferView": 2,
      "byteOffset": 960240,
      "componentType": 5126,
      "count": 14957,
      "max": [
        0.9744999408721924,
        0.4449164867401123,
        0.4482860565185547
      ],
      "min": [
        -1.0234999656677246,
        -0.4437829256057739,
        -0.43709999322891235
      ],
      "type": "VEC3"
    },
    {
      "bufferView": 2,
      "byteOffset": 1139724,
      "componentType": 5126,
      "count": 14957,
      "max": [
        0.9990425705909729,
        0.9999428391456604,
        0.9999985098838806
      ],
      "min": [
        -0.9998650550842285,
        -0.9999874830245972,
        -0.9999977350234985
      ],
      "type": "VEC3"
    },
    {
      "bufferView": 1,
      "byteOffset": 320080,
      "componentType": 5126,
      "count": 14957,
      "max": [
        0.9990000128746033,
        0.9855079650878906
      ],
      "min": [
        0.0010000000474974513,
        0.0010000000474974513
      ],
      "type": "VEC2"
    },
    {
      "bufferView": 0,
      "byteOffset": 697188,
      "componentType": 5125,
      "count": 62400,
      "type": "SCALAR"
    },
    {
      "bufferView": 2,
      "byteOffset": 1319208,
      "componentType": 5126,
      "count": 19560,
      "max": [
        571.1690063476563,
        111.7300033569336,
        1461.738037109375
      ],
      "min": [
        -576.780029296875,
        -136.57699584960938,
        1006.0900268554688
      ],
      "type": "VEC3"
    },
    {
      "bufferView": 2,
      "byteOffset": 1553928,
      "componentType": 5126,
      "count": 19560,
      "max": [
        1.0,
        1.0,
        0.9999819993972778
      ],
      "min": [
        -1.0,
        -1.0,
        -0.999984622001648
      ],
      "type": "VEC3"
    },
    {
      "bufferView": 1,
      "byteOffset": 439736,
      "componentType": 5126,
      "count": 19560,
      "max": [
        0.9993000030517578,
        0.9994999766349792
      ],
      "min": [
        0.0005000000237487257,
        0.0005000000237487257
      ],
      "type": "VEC2"
    },
    {
      "bufferView": 0,
      "byteOffset": 946788,
      "componentType": 5125,
      "count": 42378,
      "type": "SCALAR"
    }
  ],
  "asset": {
    "extras": {
      "author": "maximmus (https://sketchfab.com/shah_max)",
      "license": "CC-BY-4.0 (http://creativecommons.org/licenses/by/4.0/)",
      "source": "https://sketchfab.com/3d-models/punk-street-outfit-no15-1369e676d38d45a785dc337ef6b2f560",
      "title": "Punk Street Outfit  No.15"
    },
    "generator": "Sketchfab-16.72.0",
    "version": "2.0"
  },
  "bufferViews": [
    {
      "buffer": 0,
      "byteLength": 1116300,
      "name": "floatBufferViews",
      "target": 34963
    },
    {
      "buffer": 0,
      "byteLength": 596216,
      "byteOffset": 1116300,
      "byteStride": 8,
      "name": "floatBufferViews",
      "target": 34962
    },
    {
      "buffer": 0,
      "byteLength": 1788648,
      "byteOffset": 1712516,
      "byteStride": 12,
      "name": "floatBufferViews",
      "target": 34962
    }
  ],
  "buffers": [
    {
      "byteLength": 3501164,
      "uri": "scene.bin"
    }
  ],
  "images": [
    {
      "uri": "textures/leather_emissive.jpeg"
    },
    {
      "uri": "textures/shirt_emissive.jpeg"
    },
    {
      "uri": "textures/Material_4_emissive.jpeg"
    },
    {
      "uri": "textures/pants_pr_15_baseColor.png"
    },
    {
      "uri": "textures/pants_pr_15_emissive.jpeg"
    },
    {
      "uri": "textures/black_mateal_emissive.jpeg"
    }
  ],
  "materials": [
    {
      "doubleSided": true,
      "emissiveFactor": [
        0.65,
        0.65,
        0.65
      ],
      "emissiveTexture": {
        "index": 0
      },
      "name": "leather",
      "pbrMetallicRoughness": {
        "metallicFactor": 0.0,
        "roughnessFactor": 0.6
      }
    },
    {
      "emissiveFactor": [
        0.8,
        0.8,
        0.8
      ],
      "emissiveTexture": {
        "index": 1
      },
      "name": "shirt",
      "pbrMetallicRoughness": {
        "baseColorFactor": [
          0.8648245820318267,
          0.8648245820318267,
          0.8648245820318267,
          1.0
        ],
        "metallicFactor": 0.0,
        "roughnessFactor": 0.8929713596497552
      }
    },
    {
      "doubleSided": true,
      "emissiveFactor": [
        1.0,
        1.0,
        1.0
      ],
      "emissiveTexture": {
        "index": 2
      },
      "name": "Material_4",
      "pbrMetallicRoughness": {
        "metallicFactor": 0.0,
        "roughnessFactor": 0.6
      }
    },
    {
      "alphaMode": "BLEND",
      "doubleSided": true,
      "emissiveFactor": [
        0.5,
        0.5,
        0.5
      ],
      "emissiveTexture": {
        "index": 4
      },
      "name": "pants_pr_15",
      "pbrMetallicRoughness": {
        "baseColorTexture": {
          "index": 3
        },
        "metallicFactor": 0.0,
        "roughnessFactor": 0.6
      }
    },
    {
      "doubleSided": true,
      "emissiveFactor": [
        1.0,
        1.0,
        1.0
      ],
      "emissiveTexture": {
        "index": 5
      },
      "name": "black_mateal",
      "pbrMetallicRoughness": {
        "metallicFactor": 0.0,
        "roughnessFactor": 0.6
      }
    }
  ],
  "meshes": [
    {
      "name": "JACKET AD_leather_0",
      "primitives": [
        {
          "attributes": {
            "NORMAL": 1,
            "POSITION": 0,
            "TEXCOORD_0": 2
          },
          "indices": 3,
          "material": 0,
          "mode": 4
        }
      ]
    },
    {
      "name": "SHIRT AD_shirt_0",
      "primitives": [
        {
          "attributes": {
            "NORMAL": 5,
            "POSITION": 4,
            "TEXCOORD_0": 6
          },
          "indices": 7,
          "material": 1,
          "mode": 4
        }
      ]
    },
    {
      "name": "shoes 3_2_Material #4_0",
      "primitives": [
        {
          "attributes": {
            "NORMAL": 9,
            "POSITION": 8,
            "TEXCOORD_0": 10
          },
          "indices": 11,
          "material": 2,
          "mode": 4
        }
      ]
    },
    {
      "name": "PANTS AD_pants pr 15_0",
      "primitives": [
        {
          "attributes": {
            "NORMAL": 13,
            "POSITION": 12,
            "TEXCOORD_0": 14
          },
          "indices": 15,
          "material": 3,
          "mode": 4
        }
      ]
    },
    {
      "name": "Object001_Material #4_0",
      "primitives": [
        {
          "attributes": {
            "NORMAL": 17,
            "POSITION": 16,
            "TEXCOORD_0": 18
          },
          "indices": 19,
          "material": 2,
          "mode": 4
        }
      ]
    },
    {
      "name": "jacket add_black mateal_0",
      "primitives": [
        {
          "attributes": {
            "NORMAL": 21,
            "POSITION": 20,
            "TEXCOORD_0": 22
          },
          "indices": 23,
          "material": 4,
          "mode": 4
        }
      ]
    }
  ],
  "nodes": [
    {
      "children": [
        1
      ],
      "matrix": [
        1.0,
        0.0,
        0.0,
        0.0,
        0.0,
        2.220446049250313e-16,
        -1.0,
        0.0,
        0.0,
        1.0,
        2.220446049250313e-16,
        0.0,
        0.0,
        0.0,
        0.0,
        1.0
      ],
      "name": "Sketchfab_model"
    },
    {
      "children": [
        2
      ],
      "matrix": [
        0.0010000000474974513,
        0.0,
        0.0,
        0.0,
        0.0,
        0.0,
        0.0010000000474974513,
        0.0,
        0.0,
        -0.0010000000474974513,
        0.0,
        0.0,
        0.0,
        0.0,
        0.0,
        1.0
      ],
      "name": "ff7d132a6d964ba8a0d6b57b1780ec6f.fbx"
    },
    {
      "children": [
        3,
        5,
        7,
        10,
        12,
        15
      ],
      "name": "RootNode"
    },
    {
      "children": [
        4
      ],
      "matrix": [
        -0.999999999999996,
        1.2246468525851679e-16,
        -8.742277669594042e-08,
        0.0,
        -8.742277669594042e-08,
        -2.220446049250313e-16,
        0.9999999999999962,
        0.0,
        1.2246467202362698e-16,
        1.0,
        2.220446049250313e-16,
        0.0,
        -2.8054451942443848,
        0.0,
        16.794443130493164,
        1.0
      ],
      "name": "JACKET AD"
    },
    {
      "mesh": 0,
      "name": "JACKET AD_leather_0"
    },
    {
      "children": [
        6
      ],
      "matrix": [
        -0.999999999999996,
        1.2246468525851679e-16,
        -8.742277669594042e-08,
        0.0,
        -8.742277669594042e-08,
        -2.220446049250313e-16,
        0.9999999999999962,
        0.0,
        1.2246467202362698e-16,
        1.0,
        2.220446049250313e-16,
        0.0,
        -2.8054451942443848,
        0.0,
        16.794443130493164,
        1.0
      ],
      "name": "SHIRT AD"
    },
    {
      "mesh": 1,
      "name": "SHIRT AD_shirt_0"
    },
    {
      "children": [
        8
      ],
      "matrix": [
        6.441710848611526e-06,
        -8.180632346120771e-15,
        147.36917114257798,
        0.0,
        147.36917114257798,
        1.6361264692241542e-14,
        -6.441710856792158e-06,
        0.0,
        -2.4541897038362313e-14,
        147.36917114257813,
        0.0,
        0.0,
        -2.8054451942443848,
        2.8341331481933594,
        16.794443130493164,
        1.0
      ],
      "name": "shoes 3_2"
    },
    {
      "children": [
        9
      ],
      "matrix": [
        1.0,
        0.0,
        -0.0,
        0.0,
        0.0,
        1.0,
        0.0,
        0.0,
        0.0,
        0.0,
        1.0,
        0.0,
        -0.48086029291152954,
        0.5019141435623169,
        0.3765827417373657,
        1.0
      ],
      "name": "Object_8"
    },
    {
      "mesh": 2,
      "name": "shoes 3_2_Material #4_0"
    },
    {
      "children": [
        11
      ],
      "matrix": [
        -0.999999999999996,
        1.2246468525851679e-16,
        -8.742277669594042e-08,
        0.0,
        -8.742277669594042e-08,
        -2.220446049250313e-16,
        0.9999999999999962,
        0.0,
        1.2246467202362698e-16,
        1.0,
        2.220446049250313e-16,
        0.0,
        -2.8054451942443848,
        0.0,
        16.794443130493164,
        1.0
      ],
      "name": "PANTS AD"
    },
    {
      "mesh": 3,
      "name": "PANTS AD_pants pr 15_0"
    },
    {
      "children": [
        13
      ],
      "matrix": [
        2.4009486841944874e-05,
        -8.180632346120771e-15,
        147.3691711425762,
        0.0,
        147.3691711425762,
        0.0,
        -2.400948686648677e-05,
        0.0,
        -2.4541897038362313e-14,
        147.36917114257815,
        0.0,
        0.0,
        -2.8054451942443848,
        2.8341331481933594,
        16.794443130493164,
        1.0
      ],
      "name": "Object001"
    },
    {
      "children": [
        14
      ],
      "matrix": [
        1.0,
        0.0,
        -0.0,
        0.0,
        0.0,
        1.0,
        0.0,
        0.0,
        0.0,
        0.0,
        1.0,
        0.0,
        -0.48086029291152954,
        0.5019141435623169,
        0.3765827417373657,
        1.0
      ],
      "name": "Object_13"
    },
    {
      "mesh": 4,
      "name": "Object001_Material #4_0"
    },
    {
      "children": [
        16
      ],
      "matrix": [
        1.0,
        0.0,
        0.0,
        0.0,
        0.0,
        2.220446049250313e-16,
        -1.0,
        0.0,
        0.0,
        1.0,
        2.220446049250313e-16,
        0.0,
        0.0,
        0.0,
        0.0,
        1.0
      ],
      "name": "jacket add"
    },
    {
      "mesh": 5,
      "name": "jacket add_black mateal_0"
    }
  ],
  "samplers": [
    {
      "magFilter": 9729,
      "minFilter": 9987,
      "wrapS": 10497,
      "wrapT": 10497
    }
  ],
  "scene": 0,
  "scenes": [
    {
      "name": "Sketchfab_Scene",
      "nodes": [
        0
      ]
    }
  ],
  "textures": [
    {
      "sampler": 0,
      "source": 0
    },
    {
      "sampler": 0,
      "source": 1
    },
    {
      "sampler": 0,
      "source": 2
    },
    {
      "sampler": 0,
      "source": 3
    },
    {
      "sampler": 0,
      "source": 4
    },
    {
      "sampler": 0,
      "source": 5
    }
  ]
}
