{
  "accessors": [
    {
      "bufferView": 2,
      "componentType": 5126,
      "count": 34567,
      "max": [
        4.17657995223999,
        11.853643417358398,
        10.061358451843262
      ],
      "min": [
        -4.578296184539795,
        -11.801881790161133,
        0.05304500088095665
      ],
      "type": "VEC3"
    },
    {
      "bufferView": 2,
      "byteOffset": 414804,
      "componentType": 5126,
      "count": 34567,
      "max": [
        0.9999983310699463,
        0.9999328851699829,
        0.9999414086341858
      ],
      "min": [
        -0.9999803900718689,
        -0.9994704127311707,
        -0.9999980330467224
      ],
      "type": "VEC3"
    },
    {
      "bufferView": 3,
      "componentType": 5126,
      "count": 34567,
      "max": [
        0.999805212020874,
        0.9999704360961914,
        0.999963641166687,
        1.0
      ],
      "min": [
        -0.9999908208847046,
        -0.9999985098838806,
        -0.9999923706054688,
        -1.0
      ],
      "type": "VEC4"
    },
    {
      "bufferView": 1,
      "componentType": 5126,
      "count": 34567,
      "max": [
        0.940060019493103,
        0.9980400204658508
      ],
      "min": [
        0.0019499999471008778,
        0.0019499999471008778
      ],
      "type": "VEC2"
    },
    {
      "bufferView": 0,
      "componentType": 5125,
      "count": 189672,
      "type": "SCALAR"
    }
  ],
  "asset": {
    "extras": {
      "author": "Dan-Levi Tømta (https://sketchfab.com/danbannan)",
      "license": "CC-BY-4.0 (http://creativecommons.org/licenses/by/4.0/)",
      "source": "https://sketchfab.com/3d-models/nike-fotball-shoe-2247602d99284d689a419f1dd3f07de4",
      "title": "Nike Fotball Shoe"
    },
    "generator": "Sketchfab-12.56.0",
    "version": "2.0"
  },
  "bufferViews": [
    {
      "buffer": 0,
      "byteLength": 758688,
      "name": "floatBufferViews",
      "target": 34963
    },
    {
      "buffer": 0,
      "byteLength": 276536,
      "byteOffset": 758688,
      "byteStride": 8,
      "name": "floatBufferViews",
      "target": 34962
    },
    {
      "buffer": 0,
      "byteLength": 829608,
      "byteOffset": 1035224,
      "byteStride": 12,
      "name": "floatBufferViews",
      "target": 34962
    },
    {
      "buffer": 0,
      "byteLength": 553072,
      "byteOffset": 1864832,
      "byteStride": 16,
      "name": "floatBufferViews",
      "target": 34962
    }
  ],
  "buffers": [
    {
      "byteLength": 2417904,
      "uri": "scene.bin"
    }
  ],
  "images": [
    {
      "uri": "textures/Material__35_baseColor.png"
    },
    {
      "uri": "textures/Material__35_metallicRoughness.png"
    },
    {
      "uri": "textures/Material__35_normal.png"
    }
  ],
  "materials": [
    {
      "doubleSided": true,
      "name": "Material__35",
      "normalTexture": {
        "index": 2
      },
      "pbrMetallicRoughness": {
        "baseColorTexture": {
          "index": 0
        },
        "metallicFactor": 0.29355836054210827,
        "metallicRoughnessTexture": {
          "index": 1
        },
        "roughnessFactor": 0.6158075381986879
      }
    }
  ],
  "meshes": [
    {
      "name": "Object_0",
      "primitives": [
        {
          "attributes": {
            "NORMAL": 1,
            "POSITION": 0,
            "TANGENT": 2,
            "TEXCOORD_0": 3
          },
          "indices": 4,
          "material": 0,
          "mode": 4
        }
      ]
    }
  ],
  "nodes": [
    {
      "children": [
        1
      ],
      "matrix": [
        1.0,
        0.0,
        0.0,
        0.0,
        0.0,
        2.220446049250313e-16,
        -1.0,
        0.0,
        0.0,
        1.0,
        2.220446049250313e-16,
        0.0,
        0.0,
        0.0,
        0.0,
        1.0
      ],
      "name": "Sketchfab_model"
    },
    {
      "children": [
        2
      ],
      "name": "fotball_shoe.obj.cleaner.materialmerger.gles"
    },
    {
      "mesh": 0,
      "name": "Object_2"
    }
  ],
  "samplers": [
    {
      "magFilter": 9729,
      "minFilter": 9987,
      "wrapS": 10497,
      "wrapT": 10497
    }
  ],
  "scene": 0,
  "scenes": [
    {
      "name": "Sketchfab_Scene",
      "nodes": [
        0
      ]
    }
  ],
  "textures": [
    {
      "sampler": 0,
      "source": 0
    },
    {
      "sampler": 0,
      "source": 1
    },
    {
      "sampler": 0,
      "source": 2
    }
  ]
}
