{
  "accessors": [
    {
      "bufferView": 2,
      "componentType": 5126,
      "count": 65533,
      "max": [
        8.800237655639648,
        12.768318176269531,
        9.661200523376465
      ],
      "min": [
        1.3966381549835205,
        -0.1596813201904297,
        -11.223199844360352
      ],
      "type": "VEC3"
    },
    {
      "bufferView": 2,
      "byteOffset": 786396,
      "componentType": 5126,
      "count": 65533,
      "max": [
        0.9999984502792358,
        0.9997010231018066,
        0.9997341632843018
      ],
      "min": [
        -0.9999748468399048,
        -0.9999936819076538,
        -0.9999834299087524
      ],
      "type": "VEC3"
    },
    {
      "bufferView": 1,
      "componentType": 5126,
      "count": 65533,
      "max": [
        0.9980000257492065,
        0.9980000257492065
      ],
      "min": [
        0.0020000000949949026,
        0.001999974250793457
      ],
      "type": "VEC2"
    },
    {
      "bufferView": 0,
      "componentType": 5125,
      "count": 70728,
      "type": "SCALAR"
    },
    {
      "bufferView": 2,
      "byteOffset": 1572792,
      "componentType": 5126,
      "count": 65532,
      "max": [
        8.722638130187988,
        12.804319381713867,
        11.034799575805664
      ],
      "min": [
        0.9862380027770996,
        -0.1764817237854004,
        -11.13479995727539
      ],
      "type": "VEC3"
    },
    {
      "bufferView": 2,
      "byteOffset": 2359176,
      "componentType": 5126,
      "count": 65532,
      "max": [
        0.9995850324630737,
        0.9999582767486572,
        0.9996905326843262
      ],
      "min": [
        -0.999863862991333,
        -0.9999973773956299,
        -0.9999377727508545
      ],
      "type": "VEC3"
    },
    {
      "bufferView": 1,
      "byteOffset": 524264,
      "componentType": 5126,
      "count": 65532,
      "max": [
        0.9958000183105469,
        0.9980000257492065
      ],
      "min": [
        0.0020000000949949026,
        0.029900014400482178
      ],
      "type": "VEC2"
    },
    {
      "bufferView": 0,
      "byteOffset": 282912,
      "componentType": 5125,
      "count": 72135,
      "type": "SCALAR"
    },
    {
      "bufferView": 2,
      "byteOffset": 3145560,
      "componentType": 5126,
      "count": 35821,
      "max": [
        8.845438003540039,
        8.954318046569824,
        10.6003999710083
      ],
      "min": [
        0.9498376846313477,
        -0.1880812644958496,
        -11.274001121520996
      ],
      "type": "VEC3"
    },
    {
      "bufferView": 2,
      "byteOffset": 3575412,
      "componentType": 5126,
      "count": 35821,
      "max": [
        0.9999597072601318,
        0.9999959468841553,
        0.9999573230743408
      ],
      "min": [
        -0.9999983310699463,
        -0.9999995231628418,
        -0.9999938011169434
      ],
      "type": "VEC3"
    },
    {
      "bufferView": 1,
      "byteOffset": 1048520,
      "componentType": 5126,
      "count": 35821,
      "max": [
        0.9514999985694885,
        0.9980000257492065
      ],
      "min": [
        0.0020000000949949026,
        0.001999974250793457
      ],
      "type": "VEC2"
    },
    {
      "bufferView": 0,
      "byteOffset": 571452,
      "componentType": 5125,
      "count": 39381,
      "type": "SCALAR"
    },
    {
      "bufferView": 2,
      "byteOffset": 4005264,
      "componentType": 5126,
      "count": 65533,
      "max": [
        -1.3966381549835205,
        12.768318176269531,
        9.661200523376465
      ],
      "min": [
        -8.800237655639648,
        -0.1596813201904297,
        -11.223199844360352
      ],
      "type": "VEC3"
    },
    {
      "bufferView": 2,
      "byteOffset": 4791660,
      "componentType": 5126,
      "count": 65533,
      "max": [
        0.9999748468399048,
        0.9997010231018066,
        0.9997341632843018
      ],
      "min": [
        -0.9999984502792358,
        -0.9999936819076538,
        -0.9999834299087524
      ],
      "type": "VEC3"
    },
    {
      "bufferView": 1,
      "byteOffset": 1335088,
      "componentType": 5126,
      "count": 65533,
      "max": [
        0.9980000257492065,
        0.9980000257492065
      ],
      "min": [
        0.0020000000949949026,
        0.001999974250793457
      ],
      "type": "VEC2"
    },
    {
      "bufferView": 0,
      "byteOffset": 728976,
      "componentType": 5125,
      "count": 70728,
      "type": "SCALAR"
    },
    {
      "bufferView": 2,
      "byteOffset": 5578056,
      "componentType": 5126,
      "count": 65532,
      "max": [
        -0.9862380027770996,
        12.804319381713867,
        11.034799575805664
      ],
      "min": [
        -8.722638130187988,
        -0.1764817237854004,
        -11.13479995727539
      ],
      "type": "VEC3"
    },
    {
      "bufferView": 2,
      "byteOffset": 6364440,
      "componentType": 5126,
      "count": 65532,
      "max": [
        0.999863862991333,
        0.9999582767486572,
        0.9996905326843262
      ],
      "min": [
        -0.9995850324630737,
        -0.9999973773956299,
        -0.9999377727508545
      ],
      "type": "VEC3"
    },
    {
      "bufferView": 1,
      "byteOffset": 1859352,
      "componentType": 5126,
      "count": 65532,
      "max": [
        0.9958000183105469,
        0.9980000257492065
      ],
      "min": [
        0.0020000000949949026,
        0.029900014400482178
      ],
      "type": "VEC2"
    },
    {
      "bufferView": 0,
      "byteOffset": 1011888,
      "componentType": 5125,
      "count": 72135,
      "type": "SCALAR"
    },
    {
      "bufferView": 2,
      "byteOffset": 7150824,
      "componentType": 5126,
      "count": 35821,
      "max": [
        -0.9498376846313477,
        8.954318046569824,
        10.6003999710083
      ],
      "min": [
        -8.845438003540039,
        -0.1880812644958496,
        -11.274001121520996
      ],
      "type": "VEC3"
    },
    {
      "bufferView": 2,
      "byteOffset": 7580676,
      "componentType": 5126,
      "count": 35821,
      "max": [
        0.9999983310699463,
        0.9999959468841553,
        0.9999573230743408
      ],
      "min": [
        -0.9999597072601318,
        -0.9999995231628418,
        -0.9999938011169434
      ],
      "type": "VEC3"
    },
    {
      "bufferView": 1,
      "byteOffset": 2383608,
      "componentType": 5126,
      "count": 35821,
      "max": [
        0.9514999985694885,
        0.9980000257492065
      ],
      "min": [
        0.0020000000949949026,
        0.001999974250793457
      ],
      "type": "VEC2"
    },
    {
      "bufferView": 0,
      "byteOffset": 1300428,
      "componentType": 5125,
      "count": 39381,
      "type": "SCALAR"
    }
  ],
  "asset": {
    "extras": {
      "author": "SRUSH651 2th☑ (https://sketchfab.com/THE-OFFICIAL-SRUSH651)",
      "license": "CC-BY-4.0 (http://creativecommons.org/licenses/by/4.0/)",
      "source": "https://sketchfab.com/3d-models/nike-air-force-1-low-travis-scott-cactus-jack-06f4ccbadab74a3ebace73eb1b0096f8",
      "title": "NIKE AIR FORCE 1 LOW TRAVIS SCOTT Cactus Jack"
    },
    "generator": "Sketchfab-16.56.0",
    "version": "2.0"
  },
  "bufferViews": [
    {
      "buffer": 0,
      "byteLength": 1457952,
      "name": "floatBufferViews",
      "target": 34963
    },
    {
      "buffer": 0,
      "byteLength": 2670176,
      "byteOffset": 1457952,
      "byteStride": 8,
      "name": "floatBufferViews",
      "target": 34962
    },
    {
      "buffer": 0,
      "byteLength": 8010528,
      "byteOffset": 4128128,
      "byteStride": 12,
      "name": "floatBufferViews",
      "target": 34962
    }
  ],
  "buffers": [
    {
      "byteLength": 12138656,
      "uri": "scene.bin"
    }
  ],
  "images": [
    {
      "uri": "textures/lambert1_baseColor.jpeg"
    }
  ],
  "materials": [
    {
      "doubleSided": true,
      "emissiveFactor": [
        1.0,
        1.0,
        1.0
      ],
      "emissiveTexture": {
        "index": 0
      },
      "name": "lambert1",
      "pbrMetallicRoughness": {
        "baseColorTexture": {
          "index": 0
        }
      }
    }
  ],
  "meshes": [
    {
      "name": "TRAVIS_SCOTT_x_Nike_Air_Force_1_Cactus_Jack_lambert1_0",
      "primitives": [
        {
          "attributes": {
            "NORMAL": 1,
            "POSITION": 0,
            "TEXCOORD_0": 2
          },
          "indices": 3,
          "material": 0,
          "mode": 4
        }
      ]
    },
    {
      "name": "TRAVIS_SCOTT_x_Nike_Air_Force_1_Cactus_Jack_lambert1_0",
      "primitives": [
        {
          "attributes": {
            "NORMAL": 5,
            "POSITION": 4,
            "TEXCOORD_0": 6
          },
          "indices": 7,
          "material": 0,
          "mode": 4
        }
      ]
    },
    {
      "name": "TRAVIS_SCOTT_x_Nike_Air_Force_1_Cactus_Jack_lambert1_0",
      "primitives": [
        {
          "attributes": {
            "NORMAL": 9,
            "POSITION": 8,
            "TEXCOORD_0": 10
          },
          "indices": 11,
          "material": 0,
          "mode": 4
        }
      ]
    },
    {
      "name": "TRAVIS_SCOTT_x_Nike_Air_Force_1_Cactus_Jack1_lambert1_0",
      "primitives": [
        {
          "attributes": {
            "NORMAL": 13,
            "POSITION": 12,
            "TEXCOORD_0": 14
          },
          "indices": 15,
          "material": 0,
          "mode": 4
        }
      ]
    },
    {
      "name": "TRAVIS_SCOTT_x_Nike_Air_Force_1_Cactus_Jack1_lambert1_0",
      "primitives": [
        {
          "attributes": {
            "NORMAL": 17,
            "POSITION": 16,
            "TEXCOORD_0": 18
          },
          "indices": 19,
          "material": 0,
          "mode": 4
        }
      ]
    },
    {
      "name": "TRAVIS_SCOTT_x_Nike_Air_Force_1_Cactus_Jack1_lambert1_0",
      "primitives": [
        {
          "attributes": {
            "NORMAL": 21,
            "POSITION": 20,
            "TEXCOORD_0": 22
          },
          "indices": 23,
          "material": 0,
          "mode": 4
        }
      ]
    }
  ],
  "nodes": [
    {
      "children": [
        1
      ],
      "matrix": [
        1.0,
        0.0,
        0.0,
        0.0,
        0.0,
        2.220446049250313e-16,
        -1.0,
        0.0,
        0.0,
        1.0,
        2.220446049250313e-16,
        0.0,
        0.0,
        0.0,
        0.0,
        1.0
      ],
      "name": "Sketchfab_model"
    },
    {
      "children": [
        2
      ],
      "matrix": [
        0.009999999776482582,
        0.0,
        0.0,
        0.0,
        0.0,
        2.2204459996194763e-18,
        0.009999999776482582,
        0.0,
        0.0,
        -0.009999999776482582,
        2.2204459996194763e-18,
        0.0,
        0.0,
        0.0,
        0.0,
        1.0
      ],
      "name": "USDRoot"
    },
    {
      "children": [
        3
      ],
      "name": "scene"
    },
    {
      "children": [
        4
      ],
      "matrix": [
        100.0,
        0.0,
        0.0,
        0.0,
        0.0,
        100.0,
        0.0,
        0.0,
        0.0,
        0.0,
        100.0,
        0.0,
        0.0,
        0.0,
        0.0,
        1.0
      ],
      "name": "Meshes"
    },
    {
      "children": [
        5
      ],
      "matrix": [
        1.0,
        0.0,
        0.0,
        0.0,
        0.0,
        2.220446049250313e-16,
        -1.0,
        0.0,
        0.0,
        1.0,
        2.220446049250313e-16,
        0.0,
        0.0,
        0.0,
        0.0,
        1.0
      ],
      "name": "Sketchfab_model"
    },
    {
      "children": [
        6
      ],
      "matrix": [
        0.009999999776482582,
        0.0,
        0.0,
        0.0,
        0.0,
        0.0,
        0.009999999776482582,
        0.0,
        0.0,
        -0.009999999776482582,
        0.0,
        0.0,
        0.0,
        0.0,
        0.0,
        1.0
      ],
      "name": "_8dbee48ea5b4ff998c54590d0c29e43_fbx"
    },
    {
      "children": [
        7,
        14
      ],
      "name": "RootNode"
    },
    {
      "children": [
        8,
        10,
        12
      ],
      "name": "TRAVIS_SCOTT_x_Nike_Air_Force_1_Cactus_Jack"
    },
    {
      "children": [
        9
      ],
      "name": "TRAVIS_SCOTT_x_Nike_Air_Force_1_Cactus_Jack_lambert1_0"
    },
    {
      "mesh": 0,
      "name": "TRAVIS_SCOTT_x_Nike_Air_Force_1_Cactus_Jack_lambert1_0"
    },
    {
      "children": [
        11
      ],
      "name": "TRAVIS_SCOTT_x_Nike_Air_Force_1_Cactus_Jack_lambert1_0_1"
    },
    {
      "mesh": 1,
      "name": "TRAVIS_SCOTT_x_Nike_Air_Force_1_Cactus_Jack_lambert1_0"
    },
    {
      "children": [
        13
      ],
      "name": "TRAVIS_SCOTT_x_Nike_Air_Force_1_Cactus_Jack_lambert1_0_2"
    },
    {
      "mesh": 2,
      "name": "TRAVIS_SCOTT_x_Nike_Air_Force_1_Cactus_Jack_lambert1_0"
    },
    {
      "children": [
        15,
        17,
        19
      ],
      "name": "TRAVIS_SCOTT_x_Nike_Air_Force_1_Cactus_Jack1"
    },
    {
      "children": [
        16
      ],
      "name": "TRAVIS_SCOTT_x_Nike_Air_Force_1_Cactus_Jack1_lambert1_0"
    },
    {
      "mesh": 3,
      "name": "TRAVIS_SCOTT_x_Nike_Air_Force_1_Cactus_Jack1_lambert1_0"
    },
    {
      "children": [
        18
      ],
      "name": "TRAVIS_SCOTT_x_Nike_Air_Force_1_Cactus_Jack1_lambert1_0_1"
    },
    {
      "mesh": 4,
      "name": "TRAVIS_SCOTT_x_Nike_Air_Force_1_Cactus_Jack1_lambert1_0"
    },
    {
      "children": [
        20
      ],
      "name": "TRAVIS_SCOTT_x_Nike_Air_Force_1_Cactus_Jack1_lambert1_0_2"
    },
    {
      "mesh": 5,
      "name": "TRAVIS_SCOTT_x_Nike_Air_Force_1_Cactus_Jack1_lambert1_0"
    }
  ],
  "samplers": [
    {
      "magFilter": 9729,
      "minFilter": 9987,
      "wrapS": 10497,
      "wrapT": 10497
    }
  ],
  "scene": 0,
  "scenes": [
    {
      "name": "Sketchfab_Scene",
      "nodes": [
        0
      ]
    }
  ],
  "textures": [
    {
      "sampler": 0,
      "source": 0
    }
  ]
}
