{
  "accessors": [
    {
      "bufferView": 2,
      "componentType": 5126,
      "count": 3294,
      "max": [
        8.161380767822266,
        5.455621719360352,
        0.02526223659515381
      ],
      "min": [
        -8.163178443908691,
        -7.886388301849365,
        -10.725687980651855
      ],
      "type": "VEC3"
    },
    {
      "bufferView": 2,
      "byteOffset": 39528,
      "componentType": 5126,
      "count": 3294,
      "max": [
        0.9994702935218811,
        0.9461705684661865,
        0.9786936640739441
      ],
      "min": [
        -0.9996393918991089,
        -0.9552992582321167,
        -0.9998665452003479
      ],
      "type": "VEC3"
    },
    {
      "bufferView": 3,
      "componentType": 5126,
      "count": 3294,
      "max": [
        0.9999999403953552,
        0.9998428821563721,
        0.9988636374473572,
        1.0
      ],
      "min": [
        -0.9476007223129272,
        -0.9940565228462219,
        -0.9954139590263367,
        -1.0
      ],
      "type": "VEC4"
    },
    {
      "bufferView": 1,
      "componentType": 5126,
      "count": 3294,
      "max": [
        0.9932368397712708,
        0.9951171875
      ],
      "min": [
        0.0048828125,
        0.0048828125
      ],
      "type": "VEC2"
    },
    {
      "bufferView": 1,
      "byteOffset": 26352,
      "componentType": 5126,
      "count": 3294,
      "max": [
        0.9932368397712708,
        0.9951171875
      ],
      "min": [
        0.0048828125,
        0.0048828125
      ],
      "type": "VEC2"
    },
    {
      "bufferView": 1,
      "byteOffset": 52704,
      "componentType": 5126,
      "count": 3294,
      "max": [
        0.9932368397712708,
        0.9951171875
      ],
      "min": [
        0.0048828125,
        0.0048828125
      ],
      "type": "VEC2"
    },
    {
      "bufferView": 1,
      "byteOffset": 79056,
      "componentType": 5126,
      "count": 3294,
      "max": [
        0.9932368397712708,
        0.9951171875
      ],
      "min": [
        0.0048828125,
        0.0048828125
      ],
      "type": "VEC2"
    },
    {
      "bufferView": 0,
      "componentType": 5125,
      "count": 18174,
      "type": "SCALAR"
    },
    {
      "bufferView": 2,
      "byteOffset": 79056,
      "componentType": 5126,
      "count": 2790,
      "max": [
        8.118332862854004,
        8.764862060546875,
        -0.0226147323846817
      ],
      "min": [
        -8.120012283325195,
        -7.874463081359863,
        -10.661531448364258
      ],
      "type": "VEC3"
    },
    {
      "bufferView": 2,
      "byteOffset": 112536,
      "componentType": 5126,
      "count": 2790,
      "max": [
        0.999983012676239,
        0.9992135763168335,
        0.9999803900718689
      ],
      "min": [
        -0.9999825358390808,
        -0.9995056390762329,
        -0.9994953870773315
      ],
      "type": "VEC3"
    },
    {
      "bufferView": 3,
      "byteOffset": 52704,
      "componentType": 5126,
      "count": 2790,
      "max": [
        1.0,
        0.9999999403953552,
        1.0,
        1.0
      ],
      "min": [
        -1.0,
        -0.9999982714653015,
        -0.9999999403953552,
        -1.0
      ],
      "type": "VEC4"
    },
    {
      "bufferView": 1,
      "byteOffset": 105408,
      "componentType": 5126,
      "count": 2790,
      "max": [
        0.9951171875,
        0.9822210669517517
      ],
      "min": [
        0.0048828125,
        0.026497364044189453
      ],
      "type": "VEC2"
    },
    {
      "bufferView": 1,
      "byteOffset": 127728,
      "componentType": 5126,
      "count": 2790,
      "max": [
        0.9951171875,
        0.9822210669517517
      ],
      "min": [
        0.0048828125,
        0.026497364044189453
      ],
      "type": "VEC2"
    },
    {
      "bufferView": 1,
      "byteOffset": 150048,
      "componentType": 5126,
      "count": 2790,
      "max": [
        0.9951171875,
        0.9822210669517517
      ],
      "min": [
        0.0048828125,
        0.026497364044189453
      ],
      "type": "VEC2"
    },
    {
      "bufferView": 1,
      "byteOffset": 172368,
      "componentType": 5126,
      "count": 2790,
      "max": [
        0.9951171875,
        0.9822210669517517
      ],
      "min": [
        0.0048828125,
        0.026497364044189453
      ],
      "type": "VEC2"
    },
    {
      "bufferView": 0,
      "byteOffset": 72696,
      "componentType": 5125,
      "count": 7884,
      "type": "SCALAR"
    },
    {
      "bufferView": 2,
      "byteOffset": 146016,
      "componentType": 5126,
      "count": 3244,
      "max": [
        7.682746887207031,
        15.708176612854004,
        -0.0024068355560302734
      ],
      "min": [
        -7.682744979858398,
        -0.15295585989952087,
        -10.806010246276855
      ],
      "type": "VEC3"
    },
    {
      "bufferView": 2,
      "byteOffset": 184944,
      "componentType": 5126,
      "count": 3244,
      "max": [
        0.9999403953552246,
        0.9994025230407715,
        0.9997471570968628
      ],
      "min": [
        -0.9999403953552246,
        -0.9994195103645325,
        -0.9999651908874512
      ],
      "type": "VEC3"
    },
    {
      "bufferView": 3,
      "byteOffset": 97344,
      "componentType": 5126,
      "count": 3244,
      "max": [
        1.0,
        0.9868730306625366,
        0.9998977184295654,
        -1.0
      ],
      "min": [
        -0.9378116726875305,
        -0.9995357990264893,
        -0.9998265504837036,
        -1.0
      ],
      "type": "VEC4"
    },
    {
      "bufferView": 1,
      "byteOffset": 194688,
      "componentType": 5126,
      "count": 3244,
      "max": [
        0.9726560115814209,
        0.9951171875
      ],
      "min": [
        0.0048828125,
        0.0030699968338012695
      ],
      "type": "VEC2"
    },
    {
      "bufferView": 1,
      "byteOffset": 220640,
      "componentType": 5126,
      "count": 3244,
      "max": [
        0.9726560115814209,
        0.9951171875
      ],
      "min": [
        0.0048828125,
        0.0030699968338012695
      ],
      "type": "VEC2"
    },
    {
      "bufferView": 1,
      "byteOffset": 246592,
      "componentType": 5126,
      "count": 3244,
      "max": [
        0.9726560115814209,
        0.9951171875
      ],
      "min": [
        0.0048828125,
        0.0030699968338012695
      ],
      "type": "VEC2"
    },
    {
      "bufferView": 1,
      "byteOffset": 272544,
      "componentType": 5126,
      "count": 3244,
      "max": [
        0.9726560115814209,
        0.9951171875
      ],
      "min": [
        0.0048828125,
        0.0030699968338012695
      ],
      "type": "VEC2"
    },
    {
      "bufferView": 0,
      "byteOffset": 104232,
      "componentType": 5125,
      "count": 18522,
      "type": "SCALAR"
    },
    {
      "bufferView": 2,
      "byteOffset": 223872,
      "componentType": 5126,
      "count": 10160,
      "max": [
        4.135045528411865,
        0.41294288635253906,
        -0.05800139904022217
      ],
      "min": [
        -4.244707107543945,
        -8.512467384338379,
        -10.953948974609375
      ],
      "type": "VEC3"
    },
    {
      "bufferView": 2,
      "byteOffset": 345792,
      "componentType": 5126,
      "count": 10160,
      "max": [
        0.9999545812606812,
        0.9999639987945557,
        0.9999648928642273
      ],
      "min": [
        -0.9999579787254333,
        -0.9999633431434631,
        -0.9999989867210388
      ],
      "type": "VEC3"
    },
    {
      "bufferView": 3,
      "byteOffset": 149248,
      "componentType": 5126,
      "count": 10160,
      "max": [
        0.9987128376960754,
        0.9997783303260803,
        0.9999995231628418,
        -1.0
      ],
      "min": [
        -0.960512101650238,
        -0.999912440776825,
        -0.9999995231628418,
        -1.0
      ],
      "type": "VEC4"
    },
    {
      "bufferView": 1,
      "byteOffset": 298496,
      "componentType": 5126,
      "count": 10160,
      "max": [
        0.9951171875,
        0.9951171875
      ],
      "min": [
        0.0048828125,
        0.022223830223083496
      ],
      "type": "VEC2"
    },
    {
      "bufferView": 1,
      "byteOffset": 379776,
      "componentType": 5126,
      "count": 10160,
      "max": [
        0.9951171875,
        0.9951171875
      ],
      "min": [
        0.0048828125,
        0.022223830223083496
      ],
      "type": "VEC2"
    },
    {
      "bufferView": 1,
      "byteOffset": 461056,
      "componentType": 5126,
      "count": 10160,
      "max": [
        0.9951171875,
        0.9951171875
      ],
      "min": [
        0.0048828125,
        0.022223830223083496
      ],
      "type": "VEC2"
    },
    {
      "bufferView": 1,
      "byteOffset": 542336,
      "componentType": 5126,
      "count": 10160,
      "max": [
        0.9951171875,
        0.9951171875
      ],
      "min": [
        0.0048828125,
        0.022223830223083496
      ],
      "type": "VEC2"
    },
    {
      "bufferView": 0,
      "byteOffset": 178320,
      "componentType": 5125,
      "count": 43596,
      "type": "SCALAR"
    },
    {
      "bufferView": 4,
      "componentType": 5126,
      "count": 241,
      "max": [
        10.0
      ],
      "min": [
        0.0
      ],
      "type": "SCALAR"
    },
    {
      "bufferView": 5,
      "componentType": 5126,
      "count": 241,
      "max": [
        0.7071068286895752,
        0.7070462107658386,
        0.70710688829422,
        0.7071067094802856
      ],
      "min": [
        5.338507946817117e-08,
        -0.7071066498756409,
        -0.7070462107658386,
        5.3385068810030134e-08
      ],
      "type": "VEC4"
    },
    {
      "bufferView": 4,
      "byteOffset": 964,
      "componentType": 5126,
      "count": 241,
      "max": [
        10.0
      ],
      "min": [
        0.0
      ],
      "type": "SCALAR"
    },
    {
      "bufferView": 5,
      "byteOffset": 3856,
      "componentType": 5126,
      "count": 241,
      "max": [
        0.7071068286895752,
        0.7070462107658386,
        0.70710688829422,
        0.7071067094802856
      ],
      "min": [
        5.338507946817117e-08,
        -0.7071066498756409,
        -0.7070462107658386,
        5.3385068810030134e-08
      ],
      "type": "VEC4"
    },
    {
      "bufferView": 4,
      "byteOffset": 1928,
      "componentType": 5126,
      "count": 241,
      "max": [
        10.0
      ],
      "min": [
        0.0
      ],
      "type": "SCALAR"
    },
    {
      "bufferView": 5,
      "byteOffset": 7712,
      "componentType": 5126,
      "count": 241,
      "max": [
        0.7071068286895752,
        0.7070462107658386,
        0.70710688829422,
        0.7071067094802856
      ],
      "min": [
        5.338507946817117e-08,
        -0.7071066498756409,
        -0.7070462107658386,
        5.3385068810030134e-08
      ],
      "type": "VEC4"
    },
    {
      "bufferView": 4,
      "byteOffset": 2892,
      "componentType": 5126,
      "count": 241,
      "max": [
        10.0
      ],
      "min": [
        0.0
      ],
      "type": "SCALAR"
    },
    {
      "bufferView": 5,
      "byteOffset": 11568,
      "componentType": 5126,
      "count": 241,
      "max": [
        0.7071068286895752,
        0.7070462107658386,
        0.70710688829422,
        0.7071067094802856
      ],
      "min": [
        5.338507946817117e-08,
        -0.7071066498756409,
        -0.7070462107658386,
        5.3385068810030134e-08
      ],
      "type": "VEC4"
    }
  ],
  "animations": [
    {
      "channels": [
        {
          "sampler": 0,
          "target": {
            "node": 3,
            "path": "rotation"
          }
        },
        {
          "sampler": 1,
          "target": {
            "node": 5,
            "path": "rotation"
          }
        },
        {
          "sampler": 2,
          "target": {
            "node": 7,
            "path": "rotation"
          }
        },
        {
          "sampler": 3,
          "target": {
            "node": 9,
            "path": "rotation"
          }
        }
      ],
      "name": "Anim",
      "samplers": [
        {
          "input": 32,
          "interpolation": "LINEAR",
          "output": 33
        },
        {
          "input": 34,
          "interpolation": "LINEAR",
          "output": 35
        },
        {
          "input": 36,
          "interpolation": "LINEAR",
          "output": 37
        },
        {
          "input": 38,
          "interpolation": "LINEAR",
          "output": 39
        }
      ]
    }
  ],
  "asset": {
    "extras": {
      "author": "ely3 (https://sketchfab.com/ely3)",
      "license": "CC-BY-SA-4.0 (http://creativecommons.org/licenses/by-sa/4.0/)",
      "source": "https://sketchfab.com/3d-models/cap-4c90a2ee69b64f58979f7ce2475f230f",
      "title": "Cap"
    },
    "generator": "Sketchfab-13.85.0",
    "version": "2.0"
  },
  "bufferViews": [
    {
      "buffer": 0,
      "byteLength": 352704,
      "name": "floatBufferViews",
      "target": 34963
    },
    {
      "buffer": 0,
      "byteLength": 623616,
      "byteOffset": 352704,
      "byteStride": 8,
      "name": "floatBufferViews",
      "target": 34962
    },
    {
      "buffer": 0,
      "byteLength": 467712,
      "byteOffset": 976320,
      "byteStride": 12,
      "name": "floatBufferViews",
      "target": 34962
    },
    {
      "buffer": 0,
      "byteLength": 311808,
      "byteOffset": 1444032,
      "byteStride": 16,
      "name": "floatBufferViews",
      "target": 34962
    },
    {
      "buffer": 0,
      "byteLength": 3856,
      "byteOffset": 1755840,
      "name": "floatBufferViews"
    },
    {
      "buffer": 0,
      "byteLength": 15424,
      "byteOffset": 1759696,
      "byteStride": 16,
      "name": "floatBufferViews"
    }
  ],
  "buffers": [
    {
      "byteLength": 1775120,
      "uri": "scene.bin"
    }
  ],
  "images": [
    {
      "uri": "textures/lambert5_baseColor.png"
    },
    {
      "uri": "textures/lambert5_metallicRoughness.png"
    },
    {
      "uri": "textures/lambert5_normal.jpeg"
    },
    {
      "uri": "textures/lambert4_baseColor.jpeg"
    },
    {
      "uri": "textures/lambert4_metallicRoughness.png"
    },
    {
      "uri": "textures/lambert4_normal.jpeg"
    },
    {
      "uri": "textures/lambert3_baseColor.jpeg"
    },
    {
      "uri": "textures/lambert3_metallicRoughness.png"
    },
    {
      "uri": "textures/lambert3_normal.jpeg"
    },
    {
      "uri": "textures/lambert6_baseColor.jpeg"
    },
    {
      "uri": "textures/lambert6_metallicRoughness.png"
    },
    {
      "uri": "textures/lambert6_normal.jpeg"
    }
  ],
  "materials": [
    {
      "alphaMode": "MASK",
      "doubleSided": true,
      "name": "lambert5",
      "normalTexture": {
        "index": 2,
        "scale": 0.5
      },
      "pbrMetallicRoughness": {
        "baseColorTexture": {
          "index": 0
        },
        "metallicRoughnessTexture": {
          "index": 1
        }
      }
    },
    {
      "doubleSided": true,
      "name": "lambert4",
      "normalTexture": {
        "index": 5,
        "scale": 0.5
      },
      "pbrMetallicRoughness": {
        "baseColorTexture": {
          "index": 3
        },
        "metallicRoughnessTexture": {
          "index": 4
        }
      }
    },
    {
      "doubleSided": true,
      "name": "lambert3",
      "normalTexture": {
        "index": 8,
        "scale": 0.5
      },
      "pbrMetallicRoughness": {
        "baseColorTexture": {
          "index": 6
        },
        "metallicRoughnessTexture": {
          "index": 7
        }
      }
    },
    {
      "doubleSided": true,
      "name": "lambert6",
      "normalTexture": {
        "index": 11,
        "scale": 0.5
      },
      "pbrMetallicRoughness": {
        "baseColorTexture": {
          "index": 9
        },
        "metallicRoughnessTexture": {
          "index": 10
        }
      }
    }
  ],
  "meshes": [
    {
      "name": "Object_0",
      "primitives": [
        {
          "attributes": {
            "NORMAL": 1,
            "POSITION": 0,
            "TANGENT": 2,
            "TEXCOORD_0": 3,
            "TEXCOORD_1": 4,
            "TEXCOORD_2": 5,
            "TEXCOORD_3": 6
          },
          "indices": 7,
          "material": 0,
          "mode": 4
        }
      ]
    },
    {
      "name": "Object_1",
      "primitives": [
        {
          "attributes": {
            "NORMAL": 9,
            "POSITION": 8,
            "TANGENT": 10,
            "TEXCOORD_0": 11,
            "TEXCOORD_1": 12,
            "TEXCOORD_2": 13,
            "TEXCOORD_3": 14
          },
          "indices": 15,
          "material": 1,
          "mode": 4
        }
      ]
    },
    {
      "name": "Object_2",
      "primitives": [
        {
          "attributes": {
            "NORMAL": 17,
            "POSITION": 16,
            "TANGENT": 18,
            "TEXCOORD_0": 19,
            "TEXCOORD_1": 20,
            "TEXCOORD_2": 21,
            "TEXCOORD_3": 22
          },
          "indices": 23,
          "material": 2,
          "mode": 4
        }
      ]
    },
    {
      "name": "Object_3",
      "primitives": [
        {
          "attributes": {
            "NORMAL": 25,
            "POSITION": 24,
            "TANGENT": 26,
            "TEXCOORD_0": 27,
            "TEXCOORD_1": 28,
            "TEXCOORD_2": 29,
            "TEXCOORD_3": 30
          },
          "indices": 31,
          "material": 3,
          "mode": 4
        }
      ]
    }
  ],
  "nodes": [
    {
      "children": [
        1
      ],
      "matrix": [
        1.0,
        0.0,
        0.0,
        0.0,
        0.0,
        2.220446049250313e-16,
        -1.0,
        0.0,
        0.0,
        1.0,
        2.220446049250313e-16,
        0.0,
        0.0,
        0.0,
        0.0,
        1.0
      ],
      "name": "Sketchfab_model"
    },
    {
      "children": [
        2
      ],
      "name": "root"
    },
    {
      "children": [
        3,
        5,
        7,
        9
      ],
      "matrix": [
        1.0,
        0.0,
        0.0,
        0.0,
        0.0,
        2.220446049250313e-16,
        1.0,
        0.0,
        0.0,
        -1.0,
        2.220446049250313e-16,
        0.0,
        0.0,
        0.0,
        0.0,
        1.0
      ],
      "name": "GLTF_SceneRootNode"
    },
    {
      "children": [
        4
      ],
      "name": "fmk_0",
      "rotation": [
        0.7071068286895752,
        0.0,
        0.0,
        0.7071067094802856
      ],
      "scale": [
        0.009999999776482582,
        0.009999999776482582,
        0.009999999776482582
      ]
    },
    {
      "mesh": 0,
      "name": "Object_4"
    },
    {
      "children": [
        6
      ],
      "name": "ghf_1",
      "rotation": [
        0.7071068286895752,
        0.0,
        0.0,
        0.7071067094802856
      ],
      "scale": [
        0.009999999776482582,
        0.009999999776482582,
        0.009999999776482582
      ]
    },
    {
      "mesh": 1,
      "name": "Object_6"
    },
    {
      "children": [
        8
      ],
      "name": "jgf_2",
      "rotation": [
        0.7071068286895752,
        0.0,
        0.0,
        0.7071067094802856
      ],
      "scale": [
        0.009999999776482582,
        0.009999999776482582,
        0.009999999776482582
      ]
    },
    {
      "mesh": 2,
      "name": "Object_8"
    },
    {
      "children": [
        10
      ],
      "name": "kmh_3",
      "rotation": [
        0.7071068286895752,
        0.0,
        0.0,
        0.7071067094802856
      ],
      "scale": [
        0.009999999776482582,
        0.009999999776482582,
        0.009999999776482582
      ]
    },
    {
      "mesh": 3,
      "name": "Object_10"
    }
  ],
  "samplers": [
    {
      "magFilter": 9729,
      "minFilter": 9987,
      "wrapS": 10497,
      "wrapT": 10497
    }
  ],
  "scene": 0,
  "scenes": [
    {
      "name": "Sketchfab_Scene",
      "nodes": [
        0
      ]
    }
  ],
  "textures": [
    {
      "sampler": 0,
      "source": 0
    },
    {
      "sampler": 0,
      "source": 1
    },
    {
      "sampler": 0,
      "source": 2
    },
    {
      "sampler": 0,
      "source": 3
    },
    {
      "sampler": 0,
      "source": 4
    },
    {
      "sampler": 0,
      "source": 5
    },
    {
      "sampler": 0,
      "source": 6
    },
    {
      "sampler": 0,
      "source": 7
    },
    {
      "sampler": 0,
      "source": 8
    },
    {
      "sampler": 0,
      "source": 9
    },
    {
      "sampler": 0,
      "source": 10
    },
    {
      "sampler": 0,
      "source": 11
    }
  ]
}
