{
  "accessors": [
    {
      "bufferView": 3,
      "componentType": 5126,
      "count": 34,
      "max": [
        0.012663962319493294,
        0.579458475112915,
        0.07733624428510666
      ],
      "min": [
        0.000581316533498466,
        0.5671375393867493,
        0.07364472001791
      ],
      "type": "VEC3"
    },
    {
      "bufferView": 3,
      "byteOffset": 408,
      "componentType": 5126,
      "count": 34,
      "max": [
        0.7787203192710876,
        0.7222124934196472,
        0.9983428716659546
      ],
      "min": [
        -0.7631816267967224,
        -0.834367573261261,
        -0.9977360963821411
      ],
      "type": "VEC3"
    },
    {
      "bufferView": 4,
      "componentType": 5126,
      "count": 34,
      "max": [
        0.9943724870681763,
        0.8903856873512268,
        0.7479223608970642,
        1.0
      ],
      "min": [
        -0.9530808925628662,
        -0.8996017575263977,
        -0.7117941975593567,
        1.0
      ],
      "type": "VEC4"
    },
    {
      "bufferView": 2,
      "componentType": 5126,
      "count": 34,
      "max": [
        0.9931206107139587,
        0.7432498335838318
      ],
      "min": [
        0.9382943511009216,
        0.6579805016517639
      ],
      "type": "VEC2"
    },
    {
      "bufferView": 1,
      "componentType": 5125,
      "count": 144,
      "type": "SCALAR"
    },
    {
      "bufferView": 3,
      "byteOffset": 816,
      "componentType": 5126,
      "count": 2364,
      "max": [
        0.12830385565757751,
        0.5890146493911743,
        0.07910244911909103
      ],
      "min": [
        -0.12908101081848145,
        0.012590373866260052,
        -0.07715744525194168
      ],
      "type": "VEC3"
    },
    {
      "bufferView": 3,
      "byteOffset": 29184,
      "componentType": 5126,
      "count": 2364,
      "max": [
        0.9986808896064758,
        1.0,
        0.9999496936798096
      ],
      "min": [
        -1.0,
        -0.9961341619491577,
        -0.9998894929885864
      ],
      "type": "VEC3"
    },
    {
      "bufferView": 4,
      "byteOffset": 544,
      "componentType": 5126,
      "count": 2364,
      "max": [
        0.9999995231628418,
        0.9962557554244995,
        0.9999951124191284,
        1.0
      ],
      "min": [
        -1.0,
        -0.997100293636322,
        -0.9999813437461853,
        -1.0
      ],
      "type": "VEC4"
    },
    {
      "bufferView": 2,
      "byteOffset": 272,
      "componentType": 5126,
      "count": 2364,
      "max": [
        0.9921321868896484,
        0.9956828951835632
      ],
      "min": [
        0.006034358404576778,
        0.006839245557785034
      ],
      "type": "VEC2"
    },
    {
      "bufferView": 1,
      "byteOffset": 576,
      "componentType": 5125,
      "count": 10848,
      "type": "SCALAR"
    },
    {
      "bufferView": 3,
      "byteOffset": 57552,
      "componentType": 5126,
      "count": 240,
      "max": [
        0.11586978286504745,
        0.5346371531486511,
        0.07346604764461517
      ],
      "min": [
        -0.12449123710393906,
        0.08845020085573196,
        -0.06971634924411774
      ],
      "type": "VEC3"
    },
    {
      "bufferView": 3,
      "byteOffset": 60432,
      "componentType": 5126,
      "count": 240,
      "max": [
        0.9996613264083862,
        0.9094898700714111,
        0.9992497563362122
      ],
      "min": [
        -0.9994269609451294,
        -0.713259220123291,
        -0.9983318448066711
      ],
      "type": "VEC3"
    },
    {
      "bufferView": 2,
      "byteOffset": 19184,
      "componentType": 5126,
      "count": 240,
      "max": [
        1.9739353656768799,
        0.9859743118286133
      ],
      "min": [
        1.0243254899978638,
        0.024004340171813965
      ],
      "type": "VEC2"
    },
    {
      "bufferView": 1,
      "byteOffset": 43968,
      "componentType": 5125,
      "count": 780,
      "type": "SCALAR"
    },
    {
      "bufferView": 5,
      "componentType": 5126,
      "count": 27,
      "max": [
        1.0,
        1.0,
        0.029786452651023865,
        0.0,
        1.0,
        1.0,
        0.8992279171943665,
        0.0,
        0.8971410989761353,
        0.06808561831712723,
        1.0,
        0.0,
        0.5254951119422913,
        0.05218134820461273,
        0.059258799999952316,
        1.0
      ],
      "min": [
        -1.0479494605419859e-08,
        -1.0,
        -2.558449523348827e-07,
        0.0,
        -0.9998940825462341,
        -1.5399606922983367e-07,
        -0.8992279767990112,
        0.0,
        -0.8971409797668457,
        -0.06808606535196304,
        -0.9998940229415894,
        0.0,
        -0.6457404494285583,
        -0.052181363105773926,
        -0.06305018067359924,
        1.0
      ],
      "type": "MAT4"
    },
    {
      "bufferView": 0,
      "componentType": 5123,
      "count": 34,
      "type": "VEC4"
    },
    {
      "bufferView": 4,
      "byteOffset": 38368,
      "componentType": 5126,
      "count": 34,
      "max": [
        0.6822231411933899,
        0.2673848867416382,
        0.1375836730003357,
        0.01827356219291687
      ],
      "min": [
        0.6513200998306274,
        0.1801932007074356,
        0.06302148103713989,
        0.0
      ],
      "type": "VEC4"
    },
    {
      "bufferView": 0,
      "byteOffset": 272,
      "componentType": 5123,
      "count": 2364,
      "type": "VEC4"
    },
    {
      "bufferView": 4,
      "byteOffset": 38912,
      "componentType": 5126,
      "count": 2364,
      "max": [
        1.0,
        0.498054563999176,
        0.298936665058136,
        0.17329460382461548
      ],
      "min": [
        0.33366814255714417,
        0.0,
        0.0,
        0.0
      ],
      "type": "VEC4"
    },
    {
      "bufferView": 0,
      "byteOffset": 19184,
      "componentType": 5123,
      "count": 240,
      "type": "VEC4"
    },
    {
      "bufferView": 4,
      "byteOffset": 76736,
      "componentType": 5126,
      "count": 240,
      "max": [
        0.9526941776275635,
        0.49859222769737244,
        0.28478312492370605,
        0.11094441264867783
      ],
      "min": [
        0.3729903995990753,
        0.025325685739517212,
        0.0,
        0.0
      ],
      "type": "VEC4"
    }
  ],
  "asset": {
    "extras": {
      "author": "zHairezt (https://sketchfab.com/zHairezt)",
      "license": "CC-BY-4.0 (http://creativecommons.org/licenses/by/4.0/)",
      "source": "https://sketchfab.com/3d-models/my-sweet-piano-pants-with-bones-9b11cd770f5f4144b78521f4baa55f02",
      "title": "My Sweet Piano Pants (With Bones)"
    },
    "generator": "Sketchfab-16.72.0",
    "version": "2.0"
  },
  "bufferViews": [
    {
      "buffer": 0,
      "byteLength": 21104,
      "byteStride": 8,
      "name": "shortBufferViews",
      "target": 34962
    },
    {
      "buffer": 0,
      "byteLength": 47088,
      "byteOffset": 21104,
      "name": "floatBufferViews",
      "target": 34963
    },
    {
      "buffer": 0,
      "byteLength": 21104,
      "byteOffset": 68192,
      "byteStride": 8,
      "name": "floatBufferViews",
      "target": 34962
    },
    {
      "buffer": 0,
      "byteLength": 63312,
      "byteOffset": 89296,
      "byteStride": 12,
      "name": "floatBufferViews",
      "target": 34962
    },
    {
      "buffer": 0,
      "byteLength": 80576,
      "byteOffset": 152608,
      "byteStride": 16,
      "name": "floatBufferViews",
      "target": 34962
    },
    {
      "buffer": 0,
      "byteLength": 1728,
      "byteOffset": 233184,
      "name": "floatBufferViews"
    }
  ],
  "buffers": [
    {
      "byteLength": 234912,
      "uri": "scene.bin"
    }
  ],
  "extensionsUsed": [
    "KHR_materials_specular"
  ],
  "images": [
    {
      "uri": "textures/CN_IP_MSP_BTM_2_02_shd_baseColor.png"
    },
    {
      "uri": "textures/CN_IP_MSP_BTM_2_02_shd_normal.png"
    },
    {
      "uri": "textures/CN_IP_MSP_BTM_2_01_shd_baseColor.png"
    }
  ],
  "materials": [
    {
      "doubleSided": true,
      "extensions": {
        "KHR_materials_specular": {
          "specularColorFactor": [
            1.0,
            1.0,
            1.0
          ],
          "specularFactor": 0.0
        }
      },
      "name": "CN_IP_MSP_BTM_2_02_shd",
      "normalTexture": {
        "index": 1
      },
      "pbrMetallicRoughness": {
        "baseColorTexture": {
          "index": 0
        },
        "metallicFactor": 0.0,
        "roughnessFactor": 0.9577051494623774
      }
    },
    {
      "doubleSided": true,
      "extensions": {
        "KHR_materials_specular": {
          "specularColorFactor": [
            1.0,
            1.0,
            1.0
          ],
          "specularFactor": 0.0
        }
      },
      "name": "CN_IP_MSP_BTM_2_shd",
      "normalTexture": {
        "index": 1
      },
      "pbrMetallicRoughness": {
        "baseColorTexture": {
          "index": 0
        },
        "metallicFactor": 0.0,
        "roughnessFactor": 0.9577051494623774
      }
    },
    {
      "alphaMode": "BLEND",
      "doubleSided": true,
      "extensions": {
        "KHR_materials_specular": {
          "specularColorFactor": [
            1.0,
            1.0,
            1.0
          ],
          "specularFactor": 0.0
        }
      },
      "name": "CN_IP_MSP_BTM_2_01_shd",
      "pbrMetallicRoughness": {
        "baseColorTexture": {
          "index": 2
        },
        "metallicFactor": 0.0,
        "roughnessFactor": 0.9577051494623774
      }
    }
  ],
  "meshes": [
    {
      "name": "CN_IP_MSP_BTM_2_CN_IP_MSP_BTM_2_02_shd_0",
      "primitives": [
        {
          "attributes": {
            "JOINTS_0": 15,
            "NORMAL": 1,
            "POSITION": 0,
            "TANGENT": 2,
            "TEXCOORD_0": 3,
            "WEIGHTS_0": 16
          },
          "indices": 4,
          "material": 0,
          "mode": 4
        }
      ]
    },
    {
      "name": "CN_IP_MSP_BTM_2_CN_IP_MSP_BTM_2_shd_0",
      "primitives": [
        {
          "attributes": {
            "JOINTS_0": 17,
            "NORMAL": 6,
            "POSITION": 5,
            "TANGENT": 7,
            "TEXCOORD_0": 8,
            "TEXCOORD_1": 8,
            "WEIGHTS_0": 18
          },
          "indices": 9,
          "material": 1,
          "mode": 4
        }
      ]
    },
    {
      "name": "CN_IP_MSP_BTM_2_CN_IP_MSP_BTM_2_01_shd_0",
      "primitives": [
        {
          "attributes": {
            "JOINTS_0": 19,
            "NORMAL": 11,
            "POSITION": 10,
            "TEXCOORD_0": 12,
            "WEIGHTS_0": 20
          },
          "indices": 13,
          "material": 2,
          "mode": 4
        }
      ]
    }
  ],
  "nodes": [
    {
      "children": [
        1
      ],
      "matrix": [
        1.0,
        0.0,
        0.0,
        0.0,
        0.0,
        2.220446049250313e-16,
        -1.0,
        0.0,
        0.0,
        1.0,
        2.220446049250313e-16,
        0.0,
        0.0,
        0.0,
        0.0,
        1.0
      ],
      "name": "Sketchfab_model"
    },
    {
      "children": [
        2
      ],
      "matrix": [
        0.009999999776482582,
        0.0,
        0.0,
        0.0,
        0.0,
        0.0,
        0.009999999776482582,
        0.0,
        0.0,
        -0.009999999776482582,
        0.0,
        0.0,
        0.0,
        0.0,
        0.0,
        1.0
      ],
      "name": "15b3755794544900973bf3fb1f6272b3.fbx"
    },
    {
      "children": [
        3
      ],
      "name": "RootNode"
    },
    {
      "children": [
        4
      ],
      "name": "CN_IP_MSP_BTM_2"
    },
    {
      "children": [
        5,
        7,
        8,
        9,
        6
      ],
      "name": "Object_4"
    },
    {
      "children": [
        10
      ],
      "name": "_rootJoint"
    },
    {
      "matrix": [
        1.0,
        6.617444900424222e-24,
        0.0,
        0.0,
        -6.617444900424222e-24,
        1.0,
        0.0,
        0.0,
        0.0,
        0.0,
        0.9999999999999999,
        0.0,
        -6.938893903907228e-18,
        0.0,
        3.469446951953614e-18,
        1.0
      ],
      "name": "Object_6"
    },
    {
      "mesh": 0,
      "name": "Object_7",
      "skin": 0
    },
    {
      "mesh": 1,
      "name": "Object_8",
      "skin": 0
    },
    {
      "mesh": 2,
      "name": "Object_9",
      "skin": 0
    },
    {
      "children": [
        11,
        12,
        32
      ],
      "name": "hips_01",
      "rotation": [
        0.04217461496591568,
        -0.04217479005455971,
        0.705847978591919,
        0.705847978591919
      ],
      "translation": [
        -9.568104644904737e-19,
        0.5318578481674194,
        0.004101729020476341
      ]
    },
    {
      "name": "hips_scale_02",
      "rotation": [
        5.293955920339377e-23,
        0.0,
        3.308722450212111e-24,
        1.0
      ]
    },
    {
      "children": [
        13,
        14,
        23
      ],
      "name": "pelvis_03",
      "rotation": [
        1.3388847719397745e-07,
        0.059644028544425964,
        8.781983140693228e-09,
        0.9982197284698486
      ],
      "translation": [
        2.220446049250313e-16,
        -4.1359030627651384e-22,
        3.469446951953614e-17
      ]
    },
    {
      "name": "pelvis_scale_04",
      "rotation": [
        1.6543612251060553e-24,
        -8.271806125530277e-25,
        -3.2544510879080076e-25,
        1.0
      ]
    },
    {
      "children": [
        15,
        16
      ],
      "name": "upperLeg_L_05",
      "rotation": [
        -0.007267134729772806,
        1.3298753209767256e-08,
        0.9999735951423645,
        9.664644778917264e-11
      ],
      "translation": [
        -0.006406494416296482,
        -0.05081365630030632,
        0.0027239322662353516
      ]
    },
    {
      "name": "upperLeg_L_scale_06",
      "rotation": [
        0.0,
        -0.0,
        -2.908056841006738e-26,
        1.0
      ]
    },
    {
      "children": [
        17,
        22
      ],
      "name": "upperLegTwist_L_07",
      "rotation": [
        0.0,
        -0.0,
        -2.908056841006738e-26,
        1.0
      ],
      "translation": [
        0.11920048296451569,
        -1.0408340855860843e-16,
        6.071532165918825e-17
      ]
    },
    {
      "children": [
        18,
        19
      ],
      "name": "lowerLeg_L_08",
      "rotation": [
        -7.44103845207178e-09,
        0.05059456080198288,
        3.7695888077671214e-10,
        0.9987192749977112
      ],
      "translation": [
        0.11920050531625748,
        1.2226223367051148e-09,
        8.253955852133288e-11
      ]
    },
    {
      "name": "lowerLeg_L_scale_09",
      "rotation": [
        -8.271806125530277e-25,
        -6.938893903907228e-18,
        -1.0339757656912846e-25,
        1.0
      ]
    },
    {
      "children": [
        20,
        21
      ],
      "name": "lowerLegTwist_L_010",
      "rotation": [
        -7.450580596923828e-09,
        -6.938893903907228e-18,
        2.5849394142282115e-25,
        1.0
      ],
      "translation": [
        0.10899998247623444,
        -1.6958656701149266e-14,
        0.0
      ]
    },
    {
      "name": "foot_L_011",
      "rotation": [
        -0.0298746470361948,
        -0.5781607627868652,
        0.01636396534740925,
        0.8152115345001221
      ],
      "translation": [
        0.10899999737739563,
        -1.6958656701149266e-14,
        -2.0816681711721685e-17
      ]
    },
    {
      "name": "lowerLegTwist_L_scale_012",
      "rotation": [
        1.6543612251060553e-24,
        -6.938893903907228e-18,
        1.1479437019748901e-41,
        1.0
      ]
    },
    {
      "name": "upperLegTwist_L_scale_013",
      "rotation": [
        2.0679515313825692e-25,
        0.0,
        3.8450973786644646e-25,
        1.0
      ]
    },
    {
      "children": [
        24,
        25
      ],
      "name": "upperReg_R_014",
      "rotation": [
        0.9999735951423645,
        -4.878591397527998e-08,
        0.007267388049513102,
        3.545554683181962e-10
      ],
      "translation": [
        -0.006406417116522789,
        0.05081360787153244,
        0.0027239294722676277
      ]
    },
    {
      "name": "upperReg_R_scale_015",
      "rotation": [
        -4.963083675318166e-24,
        -1.734723475976807e-18,
        -2.481541837659083e-24,
        1.0
      ]
    },
    {
      "children": [
        26,
        31
      ],
      "name": "upperRegTwist_R_016",
      "rotation": [
        9.149563773291902e-09,
        -1.240327285323417e-16,
        1.6518332217276615e-24,
        1.0
      ],
      "translation": [
        -0.11920049041509628,
        3.4168379237087265e-09,
        -1.208708466649e-09
      ]
    },
    {
      "children": [
        27,
        28
      ],
      "name": "lowerReg_R_017",
      "rotation": [
        -5.099934024045715e-16,
        0.05059405788779259,
        1.3058107928287654e-09,
        0.9987192749977112
      ],
      "translation": [
        -0.11920049041509628,
        4.916838935997703e-09,
        -1.2440456442774916e-09
      ]
    },
    {
      "name": "lowerReg_R_scale_00",
      "rotation": [
        -6.617444900424222e-24,
        -6.938893903907228e-18,
        -9.512577044359818e-24,
        1.0
      ]
    },
    {
      "children": [
        29,
        30
      ],
      "name": "lowerRegTwist_R_018",
      "rotation": [
        -3.802061776525534e-09,
        3.423349623982106e-18,
        9.246415300090405e-10,
        1.0
      ],
      "translation": [
        -0.10899999737739563,
        -7.395842271940012e-10,
        -6.769990346100485e-09
      ]
    },
    {
      "name": "foot_R_019",
      "rotation": [
        -0.029874548316001892,
        -0.5781604647636414,
        0.016363751143217087,
        0.8152117729187012
      ],
      "translation": [
        -0.10899999737739563,
        -7.395842827051524e-10,
        -6.769990346100485e-09
      ]
    },
    {
      "name": "lowerRegTwist_R_scale_020",
      "rotation": [
        1.4349296274686127e-41,
        -6.938893903907228e-18,
        2.0679515313825692e-24,
        1.0
      ]
    },
    {
      "name": "upperRegTwist_R_scale_021",
      "rotation": [
        -3.308722450212111e-24,
        8.673617379884035e-19,
        -4.963083675318166e-24,
        1.0
      ]
    },
    {
      "children": [
        33,
        35
      ],
      "name": "spine_022",
      "rotation": [
        -6.9146923742380295e-09,
        0.06285341084003448,
        1.977048569301587e-08,
        0.9980227947235107
      ],
      "translation": [
        0.05864175036549568,
        1.4989078034322034e-10,
        2.0816681711721685e-17
      ]
    },
    {
      "children": [
        34
      ],
      "name": "chest_023",
      "rotation": [
        2.3507210400453005e-08,
        0.03718986362218857,
        -1.8783508082265143e-09,
        0.9993082284927368
      ],
      "translation": [
        0.05864175036549568,
        -1.3687793953831573e-10,
        -1.214306433183765e-16
      ]
    },
    {
      "name": "chest_scale_024",
      "rotation": [
        -2.6469779601696886e-23,
        -0.0,
        1.6543612251060553e-24,
        1.0
      ]
    },
    {
      "name": "spine_scale_025",
      "rotation": [
        0.0,
        0.0,
        3.101927297073854e-25,
        1.0
      ]
    }
  ],
  "samplers": [
    {
      "magFilter": 9729,
      "minFilter": 9987,
      "wrapS": 10497,
      "wrapT": 10497
    }
  ],
  "scene": 0,
  "scenes": [
    {
      "name": "Sketchfab_Scene",
      "nodes": [
        0
      ]
    }
  ],
  "skins": [
    {
      "inverseBindMatrices": 14,
      "joints": [
        5,
        10,
        11,
        12,
        13,
        14,
        15,
        16,
        17,
        18,
        19,
        20,
        21,
        22,
        23,
        24,
        25,
        26,
        27,
        28,
        29,
        30,
        31,
        32,
        33,
        34,
        35
      ],
      "skeleton": 5
    }
  ],
  "textures": [
    {
      "sampler": 0,
      "source": 0
    },
    {
      "sampler": 0,
      "source": 1
    },
    {
      "sampler": 0,
      "source": 2
    }
  ]
}
