{
  "accessors": [
    {
      "bufferView": 2,
      "componentType": 5126,
      "count": 30639,
      "max": [
        24.43079948425293,
        119.52996063232422,
        14.055770874023438
      ],
      "min": [
        -24.64031982421875,
        6.04217004776001,
        -13.671890258789063
      ],
      "type": "VEC3"
    },
    {
      "bufferView": 2,
      "byteOffset": 367668,
      "componentType": 5126,
      "count": 30639,
      "max": [
        0.9999796152114868,
        0.9955520629882813,
        0.9999520778656006
      ],
      "min": [
        -0.9999846816062927,
        -0.999333381652832,
        -0.9999983310699463
      ],
      "type": "VEC3"
    },
    {
      "bufferView": 3,
      "componentType": 5126,
      "count": 30639,
      "max": [
        0.9999817609786987,
        0.9094382524490356,
        0.9999995827674866,
        1.0
      ],
      "min": [
        -0.9999730587005615,
        -0.9033156633377075,
        -0.9999281764030457,
        -1.0
      ],
      "type": "VEC4"
    },
    {
      "bufferView": 1,
      "componentType": 5126,
      "count": 30639,
      "max": [
        0.9910356402397156,
        0.9863484501838684
      ],
      "min": [
        0.036150917410850525,
        0.00921472255140543
      ],
      "type": "VEC2"
    },
    {
      "bufferView": 1,
      "byteOffset": 245112,
      "componentType": 5126,
      "count": 30639,
      "max": [
        0.9910356402397156,
        0.9863484501838684
      ],
      "min": [
        0.036150917410850525,
        0.00921472255140543
      ],
      "type": "VEC2"
    },
    {
      "bufferView": 1,
      "byteOffset": 490224,
      "componentType": 5126,
      "count": 30639,
      "max": [
        0.9910356402397156,
        0.9863484501838684
      ],
      "min": [
        0.036150917410850525,
        0.00921472255140543
      ],
      "type": "VEC2"
    },
    {
      "bufferView": 0,
      "componentType": 5125,
      "count": 168372,
      "type": "SCALAR"
    },
    {
      "bufferView": 2,
      "byteOffset": 735336,
      "componentType": 5126,
      "count": 1831,
      "max": [
        3.4575469493865967,
        117.21258544921875,
        14.642779350280762
      ],
      "min": [
        1.6115747690200806,
        115.36766815185547,
        13.012430191040039
      ],
      "type": "VEC3"
    },
    {
      "bufferView": 2,
      "byteOffset": 757308,
      "componentType": 5126,
      "count": 1831,
      "max": [
        0.9999761581420898,
        1.0,
        0.9996377825737
      ],
      "min": [
        -1.0,
        -1.0,
        -0.9996377825737
      ],
      "type": "VEC3"
    },
    {
      "bufferView": 3,
      "byteOffset": 490224,
      "componentType": 5126,
      "count": 1831,
      "max": [
        0.9999948740005493,
        1.0,
        0.9999920725822449,
        1.0
      ],
      "min": [
        -0.999983549118042,
        -1.0,
        -0.9999990463256836,
        -1.0
      ],
      "type": "VEC4"
    },
    {
      "bufferView": 1,
      "byteOffset": 735336,
      "componentType": 5126,
      "count": 1831,
      "max": [
        0.8575006723403931,
        0.9948690533638
      ],
      "min": [
        0.01033291220664978,
        0.7744725346565247
      ],
      "type": "VEC2"
    },
    {
      "bufferView": 1,
      "byteOffset": 749984,
      "componentType": 5126,
      "count": 1831,
      "max": [
        0.8575006723403931,
        0.9948690533638
      ],
      "min": [
        0.01033291220664978,
        0.7744725346565247
      ],
      "type": "VEC2"
    },
    {
      "bufferView": 1,
      "byteOffset": 764632,
      "componentType": 5126,
      "count": 1831,
      "max": [
        0.8575006723403931,
        0.9948690533638
      ],
      "min": [
        0.01033291220664978,
        0.7744725346565247
      ],
      "type": "VEC2"
    },
    {
      "bufferView": 0,
      "byteOffset": 673488,
      "componentType": 5125,
      "count": 8922,
      "type": "SCALAR"
    }
  ],
  "asset": {
    "extras": {
      "author": "artemlevandovskiy24 (https://sketchfab.com/artemlevandovskiy24)",
      "license": "CC-BY-4.0 (http://creativecommons.org/licenses/by/4.0/)",
      "source": "https://sketchfab.com/3d-models/baggy-pants-free-5a9b5a0ce4944cad97fc9e2d6ddfc6a4",
      "title": "Baggy Pants FREE"
    },
    "generator": "Sketchfab-15.70.0",
    "version": "2.0"
  },
  "bufferViews": [
    {
      "buffer": 0,
      "byteLength": 709176,
      "name": "floatBufferViews",
      "target": 34963
    },
    {
      "buffer": 0,
      "byteLength": 779280,
      "byteOffset": 709176,
      "byteStride": 8,
      "name": "floatBufferViews",
      "target": 34962
    },
    {
      "buffer": 0,
      "byteLength": 779280,
      "byteOffset": 1488456,
      "byteStride": 12,
      "name": "floatBufferViews",
      "target": 34962
    },
    {
      "buffer": 0,
      "byteLength": 519520,
      "byteOffset": 2267736,
      "byteStride": 16,
      "name": "floatBufferViews",
      "target": 34962
    }
  ],
  "buffers": [
    {
      "byteLength": 2787256,
      "uri": "scene.bin"
    }
  ],
  "images": [
    {
      "uri": "textures/Denim_FRONT_1918_baseColor.png"
    },
    {
      "uri": "textures/Denim_FRONT_1918_metallicRoughness.png"
    },
    {
      "uri": "textures/Denim_FRONT_1918_emissive.png"
    },
    {
      "uri": "textures/Denim_FRONT_1918_normal.png"
    },
    {
      "uri": "textures/Material6799682_baseColor.png"
    },
    {
      "uri": "textures/Material6799682_metallicRoughness.png"
    },
    {
      "uri": "textures/Material6799682_emissive.png"
    },
    {
      "uri": "textures/Material6799682_normal.png"
    }
  ],
  "materials": [
    {
      "doubleSided": true,
      "emissiveFactor": [
        1.0,
        1.0,
        1.0
      ],
      "emissiveTexture": {
        "index": 2
      },
      "name": "Denim_FRONT_1918",
      "normalTexture": {
        "index": 3
      },
      "pbrMetallicRoughness": {
        "baseColorTexture": {
          "index": 0
        },
        "metallicRoughnessTexture": {
          "index": 1
        }
      }
    },
    {
      "doubleSided": true,
      "emissiveFactor": [
        1.0,
        1.0,
        1.0
      ],
      "emissiveTexture": {
        "index": 6
      },
      "name": "Material6799682",
      "normalTexture": {
        "index": 7
      },
      "pbrMetallicRoughness": {
        "baseColorTexture": {
          "index": 4
        },
        "metallicRoughnessTexture": {
          "index": 5
        }
      }
    }
  ],
  "meshes": [
    {
      "name": "Pants LP v2_Denim_FRONT_1918_0",
      "primitives": [
        {
          "attributes": {
            "NORMAL": 1,
            "POSITION": 0,
            "TANGENT": 2,
            "TEXCOORD_0": 3,
            "TEXCOORD_1": 4,
            "TEXCOORD_2": 5
          },
          "indices": 6,
          "material": 0,
          "mode": 4
        }
      ]
    },
    {
      "name": "Pants LP v2_Material6799682_0",
      "primitives": [
        {
          "attributes": {
            "NORMAL": 8,
            "POSITION": 7,
            "TANGENT": 9,
            "TEXCOORD_0": 10,
            "TEXCOORD_1": 11,
            "TEXCOORD_2": 12
          },
          "indices": 13,
          "material": 1,
          "mode": 4
        }
      ]
    }
  ],
  "nodes": [
    {
      "children": [
        1
      ],
      "matrix": [
        1.0,
        0.0,
        0.0,
        0.0,
        0.0,
        2.220446049250313e-16,
        -1.0,
        0.0,
        0.0,
        1.0,
        2.220446049250313e-16,
        0.0,
        0.0,
        0.0,
        0.0,
        1.0
      ],
      "name": "Sketchfab_model"
    },
    {
      "children": [
        2
      ],
      "matrix": [
        0.0010000000474974513,
        0.0,
        0.0,
        0.0,
        0.0,
        0.0,
        0.0010000000474974513,
        0.0,
        0.0,
        -0.0010000000474974513,
        0.0,
        0.0,
        0.0,
        0.0,
        0.0,
        1.0
      ],
      "name": "Pants Baggy LP.fbx"
    },
    {
      "children": [
        3
      ],
      "name": "RootNode"
    },
    {
      "children": [
        4,
        5
      ],
      "matrix": [
        10.0,
        0.0,
        0.0,
        0.0,
        0.0,
        10.0,
        0.0,
        0.0,
        0.0,
        0.0,
        10.0,
        0.0,
        0.0,
        0.0,
        0.0,
        1.0
      ],
      "name": "Pants LP v2"
    },
    {
      "mesh": 0,
      "name": "Pants LP v2_Denim_FRONT_1918_0"
    },
    {
      "mesh": 1,
      "name": "Pants LP v2_Material6799682_0"
    }
  ],
  "samplers": [
    {
      "magFilter": 9729,
      "minFilter": 9987,
      "wrapS": 10497,
      "wrapT": 10497
    }
  ],
  "scene": 0,
  "scenes": [
    {
      "name": "Sketchfab_Scene",
      "nodes": [
        0
      ]
    }
  ],
  "textures": [
    {
      "sampler": 0,
      "source": 0
    },
    {
      "sampler": 0,
      "source": 1
    },
    {
      "sampler": 0,
      "source": 2
    },
    {
      "sampler": 0,
      "source": 3
    },
    {
      "sampler": 0,
      "source": 4
    },
    {
      "sampler": 0,
      "source": 5
    },
    {
      "sampler": 0,
      "source": 6
    },
    {
      "sampler": 0,
      "source": 7
    }
  ]
}
