{
  "accessors": [
    {
      "bufferView": 2,
      "componentType": 5126,
      "count": 65532,
      "max": [
        27.757570266723633,
        112.60596466064453,
        17.03765296936035
      ],
      "min": [
        -26.214080810546875,
        -0.2393232136964798,
        -16.93009376525879
      ],
      "type": "VEC3"
    },
    {
      "bufferView": 2,
      "byteOffset": 786384,
      "componentType": 5126,
      "count": 65532,
      "max": [
        0.9999836087226868,
        1.0,
        0.9999995231628418
      ],
      "min": [
        -0.9999958276748657,
        -1.0,
        -0.999999463558197
      ],
      "type": "VEC3"
    },
    {
      "bufferView": 3,
      "componentType": 5126,
      "count": 65532,
      "max": [
        0.9999991655349731,
        0.9989092946052551,
        0.9999291896820068,
        1.0
      ],
      "min": [
        -0.9999951720237732,
        -0.9959521293640137,
        -0.9999999403953552,
        -1.0
      ],
      "type": "VEC4"
    },
    {
      "bufferView": 1,
      "componentType": 5126,
      "count": 65532,
      "max": [
        0.9547498226165771,
        0.9696783423423767
      ],
      "min": [
        0.006117767654359341,
        0.006117650307714939
      ],
      "type": "VEC2"
    },
    {
      "bufferView": 1,
      "byteOffset": 524256,
      "componentType": 5126,
      "count": 65532,
      "max": [
        0.9547498226165771,
        0.9696783423423767
      ],
      "min": [
        0.006117767654359341,
        0.006117650307714939
      ],
      "type": "VEC2"
    },
    {
      "bufferView": 1,
      "byteOffset": 1048512,
      "componentType": 5126,
      "count": 65532,
      "max": [
        0.9547498226165771,
        0.9696783423423767
      ],
      "min": [
        0.006117767654359341,
        0.006117650307714939
      ],
      "type": "VEC2"
    },
    {
      "bufferView": 0,
      "componentType": 5125,
      "count": 332523,
      "type": "SCALAR"
    },
    {
      "bufferView": 2,
      "byteOffset": 1572768,
      "componentType": 5126,
      "count": 65532,
      "max": [
        27.81313705444336,
        112.6043701171875,
        17.045059204101563
      ],
      "min": [
        -27.341833114624023,
        -0.2393232136964798,
        -16.91343879699707
      ],
      "type": "VEC3"
    },
    {
      "bufferView": 2,
      "byteOffset": 2359152,
      "componentType": 5126,
      "count": 65532,
      "max": [
        0.9999994039535522,
        1.0,
        0.9999961256980896
      ],
      "min": [
        -0.9999994039535522,
        -1.0,
        -0.9999952912330627
      ],
      "type": "VEC3"
    },
    {
      "bufferView": 3,
      "byteOffset": 1048512,
      "componentType": 5126,
      "count": 65532,
      "max": [
        0.9999995231628418,
        0.9998912215232849,
        0.9999687671661377,
        1.0
      ],
      "min": [
        -0.9999871850013733,
        -0.994186282157898,
        -0.9999905824661255,
        -1.0
      ],
      "type": "VEC4"
    },
    {
      "bufferView": 1,
      "byteOffset": 1572768,
      "componentType": 5126,
      "count": 65532,
      "max": [
        0.9938823580741882,
        0.9696783423423767
      ],
      "min": [
        0.006117767654359341,
        0.007403881289064884
      ],
      "type": "VEC2"
    },
    {
      "bufferView": 1,
      "byteOffset": 2097024,
      "componentType": 5126,
      "count": 65532,
      "max": [
        0.9938823580741882,
        0.9696783423423767
      ],
      "min": [
        0.006117767654359341,
        0.007403881289064884
      ],
      "type": "VEC2"
    },
    {
      "bufferView": 1,
      "byteOffset": 2621280,
      "componentType": 5126,
      "count": 65532,
      "max": [
        0.9938823580741882,
        0.9696783423423767
      ],
      "min": [
        0.006117767654359341,
        0.007403881289064884
      ],
      "type": "VEC2"
    },
    {
      "bufferView": 0,
      "byteOffset": 1330092,
      "componentType": 5125,
      "count": 324084,
      "type": "SCALAR"
    },
    {
      "bufferView": 2,
      "byteOffset": 3145536,
      "componentType": 5126,
      "count": 45740,
      "max": [
        28.032901763916016,
        112.28486633300781,
        16.622617721557617
      ],
      "min": [
        -27.341833114624023,
        -0.02325734868645668,
        -16.47353172302246
      ],
      "type": "VEC3"
    },
    {
      "bufferView": 2,
      "byteOffset": 3694416,
      "componentType": 5126,
      "count": 45740,
      "max": [
        0.9999706149101257,
        1.0,
        0.9999961256980896
      ],
      "min": [
        -0.9999356865882874,
        -1.0,
        -0.9999961256980896
      ],
      "type": "VEC3"
    },
    {
      "bufferView": 3,
      "byteOffset": 2097024,
      "componentType": 5126,
      "count": 45740,
      "max": [
        0.9999993443489075,
        0.9999323487281799,
        0.9999672174453735,
        1.0
      ],
      "min": [
        -0.9999951720237732,
        -0.9999016523361206,
        -0.9999867677688599,
        -1.0
      ],
      "type": "VEC4"
    },
    {
      "bufferView": 1,
      "byteOffset": 3145536,
      "componentType": 5126,
      "count": 45740,
      "max": [
        0.9911803007125854,
        0.965347409248352
      ],
      "min": [
        0.008269409649074078,
        0.006301397457718849
      ],
      "type": "VEC2"
    },
    {
      "bufferView": 1,
      "byteOffset": 3511456,
      "componentType": 5126,
      "count": 45740,
      "max": [
        0.9911803007125854,
        0.965347409248352
      ],
      "min": [
        0.008269409649074078,
        0.006301397457718849
      ],
      "type": "VEC2"
    },
    {
      "bufferView": 1,
      "byteOffset": 3877376,
      "componentType": 5126,
      "count": 45740,
      "max": [
        0.9911803007125854,
        0.965347409248352
      ],
      "min": [
        0.008269409649074078,
        0.006301397457718849
      ],
      "type": "VEC2"
    },
    {
      "bufferView": 0,
      "byteOffset": 2626428,
      "componentType": 5125,
      "count": 183537,
      "type": "SCALAR"
    },
    {
      "bufferView": 2,
      "byteOffset": 4243296,
      "componentType": 5126,
      "count": 65532,
      "max": [
        3355.487060546875,
        1192.7459716796875,
        -1.7109870910644531
      ],
      "min": [
        -3632.0029296875,
        -1499.592529296875,
        -18674.119140625
      ],
      "type": "VEC3"
    },
    {
      "bufferView": 2,
      "byteOffset": 5029680,
      "componentType": 5126,
      "count": 65532,
      "max": [
        0.9999997019767761,
        0.9999654293060303,
        0.9999924302101135
      ],
      "min": [
        -0.9999979734420776,
        -0.9999902844429016,
        -0.9996685981750488
      ],
      "type": "VEC3"
    },
    {
      "bufferView": 0,
      "byteOffset": 3360576,
      "componentType": 5125,
      "count": 353253,
      "type": "SCALAR"
    },
    {
      "bufferView": 2,
      "byteOffset": 5816064,
      "componentType": 5126,
      "count": 65532,
      "max": [
        3429.0068359375,
        1924.742919921875,
        -1.7153739929199219
      ],
      "min": [
        -3457.3134765625,
        -1239.033447265625,
        -18673.482421875
      ],
      "type": "VEC3"
    },
    {
      "bufferView": 2,
      "byteOffset": 6602448,
      "componentType": 5126,
      "count": 65532,
      "max": [
        0.999980628490448,
        0.9999720454216003,
        0.9999995827674866
      ],
      "min": [
        -0.9999996423721313,
        -0.9999644160270691,
        -0.999993085861206
      ],
      "type": "VEC3"
    },
    {
      "bufferView": 0,
      "byteOffset": 4773588,
      "componentType": 5125,
      "count": 349152,
      "type": "SCALAR"
    },
    {
      "bufferView": 2,
      "byteOffset": 7388832,
      "componentType": 5126,
      "count": 65532,
      "max": [
        3471.82763671875,
        2064.3134765625,
        -1.0119438171386719
      ],
      "min": [
        -3637.40625,
        -1499.5697021484375,
        -18674.119140625
      ],
      "type": "VEC3"
    },
    {
      "bufferView": 2,
      "byteOffset": 8175216,
      "componentType": 5126,
      "count": 65532,
      "max": [
        0.999984085559845,
        0.9999935626983643,
        0.9999992251396179
      ],
      "min": [
        -0.9999979734420776,
        -0.9999359846115112,
        -0.9999945163726807
      ],
      "type": "VEC3"
    },
    {
      "bufferView": 0,
      "byteOffset": 6170196,
      "componentType": 5125,
      "count": 326073,
      "type": "SCALAR"
    },
    {
      "bufferView": 2,
      "byteOffset": 8961600,
      "componentType": 5126,
      "count": 32195,
      "max": [
        3283.69287109375,
        2044.8577880859375,
        -1.5275955200195313
      ],
      "min": [
        -3489.12060546875,
        -1499.261474609375,
        -18657.3828125
      ],
      "type": "VEC3"
    },
    {
      "bufferView": 2,
      "byteOffset": 9347940,
      "componentType": 5126,
      "count": 32195,
      "max": [
        0.9999484419822693,
        0.999987006187439,
        0.9999991655349731
      ],
      "min": [
        -0.9999801516532898,
        -0.9999644160270691,
        -0.9998886585235596
      ],
      "type": "VEC3"
    },
    {
      "bufferView": 0,
      "byteOffset": 7474488,
      "componentType": 5125,
      "count": 125850,
      "type": "SCALAR"
    }
  ],
  "asset": {
    "extras": {
      "author": "SKVORSOW (https://sketchfab.com/SKVORSOW)",
      "license": "CC-BY-4.0 (http://creativecommons.org/licenses/by/4.0/)",
      "source": "https://sketchfab.com/3d-models/oversized-baggy-custom-jeans-a663bab1b858417da8c1b1765793309d",
      "title": "Oversized Baggy Custom Jeans"
    },
    "generator": "Sketchfab-16.41.0",
    "version": "2.0"
  },
  "bufferViews": [
    {
      "buffer": 0,
      "byteLength": 7977888,
      "name": "floatBufferViews",
      "target": 34963
    },
    {
      "buffer": 0,
      "byteLength": 4243296,
      "byteOffset": 7977888,
      "byteStride": 8,
      "name": "floatBufferViews",
      "target": 34962
    },
    {
      "buffer": 0,
      "byteLength": 9734280,
      "byteOffset": 12221184,
      "byteStride": 12,
      "name": "floatBufferViews",
      "target": 34962
    },
    {
      "buffer": 0,
      "byteLength": 2828864,
      "byteOffset": 21955464,
      "byteStride": 16,
      "name": "floatBufferViews",
      "target": 34962
    }
  ],
  "buffers": [
    {
      "byteLength": 24784328,
      "uri": "scene.bin"
    }
  ],
  "extensionsUsed": [
    "KHR_materials_specular"
  ],
  "images": [
    {
      "uri": "textures/Milky-Way-Pants_SKVORSOW_baseColor.png"
    },
    {
      "uri": "textures/Milky-Way-Pants_SKVORSOW_metallicRoughness.png"
    },
    {
      "uri": "textures/Milky-Way-Pants_SKVORSOW_normal.png"
    }
  ],
  "materials": [
    {
      "doubleSided": true,
      "extensions": {
        "KHR_materials_specular": {
          "specularColorFactor": [
            1.0,
            1.0,
            1.0
          ],
          "specularFactor": 0.3
        }
      },
      "name": "Milky-Way-Pants_SKVORSOW",
      "normalTexture": {
        "index": 2
      },
      "pbrMetallicRoughness": {
        "baseColorTexture": {
          "index": 0
        },
        "metallicRoughnessTexture": {
          "index": 1
        }
      }
    },
    {
      "doubleSided": true,
      "name": "Body",
      "pbrMetallicRoughness": {
        "baseColorFactor": [
          0.0290996,
          0.0290996,
          0.0290996,
          1.0
        ],
        "metallicFactor": 0.0
      }
    }
  ],
  "meshes": [
    {
      "name": "Milky-Way-Pants_SKVORSOW_Milky-Way-Pants_SKVORSOW_0",
      "primitives": [
        {
          "attributes": {
            "NORMAL": 1,
            "POSITION": 0,
            "TANGENT": 2,
            "TEXCOORD_0": 3,
            "TEXCOORD_1": 4,
            "TEXCOORD_2": 5
          },
          "indices": 6,
          "material": 0,
          "mode": 4
        }
      ]
    },
    {
      "name": "Milky-Way-Pants_SKVORSOW_Milky-Way-Pants_SKVORSOW_0",
      "primitives": [
        {
          "attributes": {
            "NORMAL": 8,
            "POSITION": 7,
            "TANGENT": 9,
            "TEXCOORD_0": 10,
            "TEXCOORD_1": 11,
            "TEXCOORD_2": 12
          },
          "indices": 13,
          "material": 0,
          "mode": 4
        }
      ]
    },
    {
      "name": "Milky-Way-Pants_SKVORSOW_Milky-Way-Pants_SKVORSOW_0",
      "primitives": [
        {
          "attributes": {
            "NORMAL": 15,
            "POSITION": 14,
            "TANGENT": 16,
            "TEXCOORD_0": 17,
            "TEXCOORD_1": 18,
            "TEXCOORD_2": 19
          },
          "indices": 20,
          "material": 0,
          "mode": 4
        }
      ]
    },
    {
      "name": "body_Body_0",
      "primitives": [
        {
          "attributes": {
            "NORMAL": 22,
            "POSITION": 21
          },
          "indices": 23,
          "material": 1,
          "mode": 4
        }
      ]
    },
    {
      "name": "body_Body_0",
      "primitives": [
        {
          "attributes": {
            "NORMAL": 25,
            "POSITION": 24
          },
          "indices": 26,
          "material": 1,
          "mode": 4
        }
      ]
    },
    {
      "name": "body_Body_0",
      "primitives": [
        {
          "attributes": {
            "NORMAL": 28,
            "POSITION": 27
          },
          "indices": 29,
          "material": 1,
          "mode": 4
        }
      ]
    },
    {
      "name": "body_Body_0",
      "primitives": [
        {
          "attributes": {
            "NORMAL": 31,
            "POSITION": 30
          },
          "indices": 32,
          "material": 1,
          "mode": 4
        }
      ]
    }
  ],
  "nodes": [
    {
      "children": [
        1
      ],
      "matrix": [
        1.0,
        0.0,
        0.0,
        0.0,
        0.0,
        2.220446049250313e-16,
        -1.0,
        0.0,
        0.0,
        1.0,
        2.220446049250313e-16,
        0.0,
        0.0,
        0.0,
        0.0,
        1.0
      ],
      "name": "Sketchfab_model"
    },
    {
      "children": [
        2
      ],
      "matrix": [
        0.009999999776482582,
        0.0,
        0.0,
        0.0,
        0.0,
        0.0,
        0.009999999776482582,
        0.0,
        0.0,
        -0.009999999776482582,
        0.0,
        0.0,
        0.0,
        0.0,
        0.0,
        1.0
      ],
      "name": "7922905c9ba440478bf01d334a36bba5.fbx"
    },
    {
      "children": [
        3,
        7
      ],
      "name": "RootNode"
    },
    {
      "children": [
        4,
        5,
        6
      ],
      "name": "Milky-Way-Pants_SKVORSOW"
    },
    {
      "mesh": 0,
      "name": "Milky-Way-Pants_SKVORSOW_Milky-Way-Pants_SKVORSOW_0"
    },
    {
      "mesh": 1,
      "name": "Milky-Way-Pants_SKVORSOW_Milky-Way-Pants_SKVORSOW_0"
    },
    {
      "mesh": 2,
      "name": "Milky-Way-Pants_SKVORSOW_Milky-Way-Pants_SKVORSOW_0"
    },
    {
      "children": [
        8,
        9,
        10,
        11
      ],
      "matrix": [
        0.009999999776482582,
        7.799827276243324e-11,
        -1.5133999270791447e-11,
        0.0,
        1.5134011978322846e-11,
        -1.6292067575027046e-09,
        0.00999999977648245,
        0.0,
        7.799827029679077e-11,
        -0.00999999977648245,
        -1.6292067575027046e-09,
        0.0,
        -4.76837158203125e-07,
        5.960463909104874e-07,
        -4.5000251626143434e-14,
        1.0
      ],
      "name": "body"
    },
    {
      "mesh": 3,
      "name": "body_Body_0"
    },
    {
      "mesh": 4,
      "name": "body_Body_0"
    },
    {
      "mesh": 5,
      "name": "body_Body_0"
    },
    {
      "mesh": 6,
      "name": "body_Body_0"
    }
  ],
  "samplers": [
    {
      "magFilter": 9729,
      "minFilter": 9987,
      "wrapS": 10497,
      "wrapT": 10497
    }
  ],
  "scene": 0,
  "scenes": [
    {
      "name": "Sketchfab_Scene",
      "nodes": [
        0
      ]
    }
  ],
  "textures": [
    {
      "sampler": 0,
      "source": 0
    },
    {
      "sampler": 0,
      "source": 1
    },
    {
      "sampler": 0,
      "source": 2
    }
  ]
}
