{
  "accessors": [
    {
      "bufferView": 2,
      "componentType": 5126,
      "count": 20331,
      "max": [
        11.308114051818848,
        13.176684379577637,
        11.589200019836426
      ],
      "min": [
        1.9613137245178223,
        0.09268426895141602,
        -11.609999656677246
      ],
      "type": "VEC3"
    },
    {
      "bufferView": 2,
      "byteOffset": 243972,
      "componentType": 5126,
      "count": 20331,
      "max": [
        0.999862551689148,
        1.0,
        0.9998947381973267
      ],
      "min": [
        -0.9999911189079285,
        -0.9999964833259583,
        -0.9999710321426392
      ],
      "type": "VEC3"
    },
    {
      "bufferView": 1,
      "componentType": 5126,
      "count": 20331,
      "max": [
        0.9976999759674072,
        0.9980000257492065
      ],
      "min": [
        0.0020000000949949026,
        0.001999974250793457
      ],
      "type": "VEC2"
    },
    {
      "bufferView": 0,
      "componentType": 5125,
      "count": 115782,
      "type": "SCALAR"
    },
    {
      "bufferView": 2,
      "byteOffset": 487944,
      "componentType": 5126,
      "count": 20331,
      "max": [
        -1.9613137245178223,
        13.176684379577637,
        11.589200019836426
      ],
      "min": [
        -11.308114051818848,
        0.09268426895141602,
        -11.609999656677246
      ],
      "type": "VEC3"
    },
    {
      "bufferView": 2,
      "byteOffset": 731916,
      "componentType": 5126,
      "count": 20331,
      "max": [
        0.9999911189079285,
        1.0,
        0.9998946189880371
      ],
      "min": [
        -0.999862551689148,
        -0.9999964833259583,
        -0.9999710321426392
      ],
      "type": "VEC3"
    },
    {
      "bufferView": 1,
      "byteOffset": 162648,
      "componentType": 5126,
      "count": 20331,
      "max": [
        0.9976999759674072,
        0.9980000257492065
      ],
      "min": [
        0.0020000000949949026,
        0.001999974250793457
      ],
      "type": "VEC2"
    },
    {
      "bufferView": 0,
      "byteOffset": 463128,
      "componentType": 5125,
      "count": 115782,
      "type": "SCALAR"
    }
  ],
  "asset": {
    "extras": {
      "author": "SRUSH651 2th☑ (https://sketchfab.com/THE-OFFICIAL-SRUSH651)",
      "license": "CC-BY-4.0 (http://creativecommons.org/licenses/by/4.0/)",
      "source": "https://sketchfab.com/3d-models/air-jordan-4-lightning-gs-9820d5bcb9e94dafa5a691c497a1af18",
      "title": "AIR JORDAN 4 LIGHTNING GS"
    },
    "generator": "Sketchfab-16.56.0",
    "version": "2.0"
  },
  "bufferViews": [
    {
      "buffer": 0,
      "byteLength": 926256,
      "name": "floatBufferViews",
      "target": 34963
    },
    {
      "buffer": 0,
      "byteLength": 325296,
      "byteOffset": 926256,
      "byteStride": 8,
      "name": "floatBufferViews",
      "target": 34962
    },
    {
      "buffer": 0,
      "byteLength": 975888,
      "byteOffset": 1251552,
      "byteStride": 12,
      "name": "floatBufferViews",
      "target": 34962
    }
  ],
  "buffers": [
    {
      "byteLength": 2227440,
      "uri": "scene.bin"
    }
  ],
  "images": [
    {
      "uri": "textures/mat_0_001_baseColor.jpeg"
    }
  ],
  "materials": [
    {
      "doubleSided": true,
      "emissiveFactor": [
        1.0,
        1.0,
        1.0
      ],
      "emissiveTexture": {
        "index": 0
      },
      "name": "mat_0_001",
      "pbrMetallicRoughness": {
        "baseColorTexture": {
          "index": 0
        }
      }
    }
  ],
  "meshes": [
    {
      "name": "Nike_Air_Jordan_4_Retro_tour_mat_0_001_0",
      "primitives": [
        {
          "attributes": {
            "NORMAL": 1,
            "POSITION": 0,
            "TEXCOORD_0": 2
          },
          "indices": 3,
          "material": 0,
          "mode": 4
        }
      ]
    },
    {
      "name": "Nike_Air_Jordan_4_Retro_tour1_mat_0_001_0",
      "primitives": [
        {
          "attributes": {
            "NORMAL": 5,
            "POSITION": 4,
            "TEXCOORD_0": 6
          },
          "indices": 7,
          "material": 0,
          "mode": 4
        }
      ]
    }
  ],
  "nodes": [
    {
      "children": [
        1
      ],
      "matrix": [
        1.0,
        0.0,
        0.0,
        0.0,
        0.0,
        2.220446049250313e-16,
        -1.0,
        0.0,
        0.0,
        1.0,
        2.220446049250313e-16,
        0.0,
        0.0,
        0.0,
        0.0,
        1.0
      ],
      "name": "Sketchfab_model"
    },
    {
      "children": [
        2
      ],
      "matrix": [
        0.009999999776482582,
        0.0,
        0.0,
        0.0,
        0.0,
        2.2204459996194763e-18,
        0.009999999776482582,
        0.0,
        0.0,
        -0.009999999776482582,
        2.2204459996194763e-18,
        0.0,
        0.0,
        0.0,
        0.0,
        1.0
      ],
      "name": "USDRoot"
    },
    {
      "children": [
        3
      ],
      "name": "scene"
    },
    {
      "children": [
        4
      ],
      "matrix": [
        100.0,
        0.0,
        0.0,
        0.0,
        0.0,
        100.0,
        0.0,
        0.0,
        0.0,
        0.0,
        100.0,
        0.0,
        0.0,
        0.0,
        0.0,
        1.0
      ],
      "name": "Meshes"
    },
    {
      "children": [
        5
      ],
      "matrix": [
        1.0,
        0.0,
        0.0,
        0.0,
        0.0,
        2.220446049250313e-16,
        -1.0,
        0.0,
        0.0,
        1.0,
        2.220446049250313e-16,
        0.0,
        0.0,
        0.0,
        0.0,
        1.0
      ],
      "name": "Sketchfab_model"
    },
    {
      "children": [
        6
      ],
      "matrix": [
        0.009999999776482582,
        0.0,
        0.0,
        0.0,
        0.0,
        0.0,
        0.009999999776482582,
        0.0,
        0.0,
        -0.009999999776482582,
        0.0,
        0.0,
        0.0,
        0.0,
        0.0,
        1.0
      ],
      "name": "c9b72f3d81334141a915c76534740a40_fbx"
    },
    {
      "children": [
        7,
        10
      ],
      "name": "RootNode"
    },
    {
      "children": [
        8
      ],
      "name": "Nike_Air_Jordan_4_Retro_tour"
    },
    {
      "children": [
        9
      ],
      "name": "Nike_Air_Jordan_4_Retro_tour_mat_0_001_0"
    },
    {
      "mesh": 0,
      "name": "Nike_Air_Jordan_4_Retro_tour_mat_0_001_0"
    },
    {
      "children": [
        11
      ],
      "name": "Nike_Air_Jordan_4_Retro_tour1"
    },
    {
      "children": [
        12
      ],
      "name": "Nike_Air_Jordan_4_Retro_tour1_mat_0_001_0"
    },
    {
      "mesh": 1,
      "name": "Nike_Air_Jordan_4_Retro_tour1_mat_0_001_0"
    }
  ],
  "samplers": [
    {
      "magFilter": 9729,
      "minFilter": 9987,
      "wrapS": 10497,
      "wrapT": 10497
    }
  ],
  "scene": 0,
  "scenes": [
    {
      "name": "Sketchfab_Scene",
      "nodes": [
        0
      ]
    }
  ],
  "textures": [
    {
      "sampler": 0,
      "source": 0
    }
  ]
}
