{
  "accessors": [
    {
      "bufferView": 2,
      "componentType": 5126,
      "count": 1270,
      "max": [
        4.8647918701171875,
        2.076915979385376,
        16.876136779785156
      ],
      "min": [
        -4.881534099578857,
        -1.5672390460968018,
        10.637784957885742
      ],
      "type": "VEC3"
    },
    {
      "bufferView": 2,
      "byteOffset": 15240,
      "componentType": 5126,
      "count": 1270,
      "max": [
        0.9991639852523804,
        0.9978065490722656,
        0.9843902587890625
      ],
      "min": [
        -0.998688817024231,
        -0.999992847442627,
        -0.9994655251502991
      ],
      "type": "VEC3"
    },
    {
      "bufferView": 3,
      "componentType": 5126,
      "count": 1270,
      "max": [
        0.999975860118866,
        0.9994196891784668,
        0.9984272122383118,
        1.0
      ],
      "min": [
        -1.0,
        -0.998232901096344,
        -0.9988003373146057,
        -1.0
      ],
      "type": "VEC4"
    },
    {
      "bufferView": 1,
      "componentType": 5126,
      "count": 1270,
      "max": [
        0.9884999990463257,
        0.9811999797821045
      ],
      "min": [
        0.008100000210106373,
        0.02759999968111515
      ],
      "type": "VEC2"
    },
    {
      "bufferView": 0,
      "componentType": 5125,
      "count": 6015,
      "type": "SCALAR"
    },
    {
      "bufferView": 2,
      "byteOffset": 30480,
      "componentType": 5126,
      "count": 580,
      "max": [
        2.4990110397338867,
        1.9835259914398193,
        11.036428451538086
      ],
      "min": [
        -2.4165749549865723,
        -1.3159559965133667,
        1.0879809856414795
      ],
      "type": "VEC3"
    },
    {
      "bufferView": 2,
      "byteOffset": 37440,
      "componentType": 5126,
      "count": 580,
      "max": [
        0.9983053803443909,
        0.9981772899627686,
        0.9966951012611389
      ],
      "min": [
        -0.9998406767845154,
        -0.9995520710945129,
        -0.985578715801239
      ],
      "type": "VEC3"
    },
    {
      "bufferView": 3,
      "byteOffset": 20320,
      "componentType": 5126,
      "count": 580,
      "max": [
        0.9999932050704956,
        0.9982369542121887,
        0.8631786108016968,
        1.0
      ],
      "min": [
        -0.9999890327453613,
        -0.9998214840888977,
        -0.8927183151245117,
        -1.0
      ],
      "type": "VEC4"
    },
    {
      "bufferView": 1,
      "byteOffset": 10160,
      "componentType": 5126,
      "count": 580,
      "max": [
        0.9777029752731323,
        0.9798420071601868
      ],
      "min": [
        0.023661000654101372,
        0.024607999250292778
      ],
      "type": "VEC2"
    },
    {
      "bufferView": 0,
      "byteOffset": 24060,
      "componentType": 5125,
      "count": 2976,
      "type": "SCALAR"
    }
  ],
  "asset": {
    "extras": {
      "author": "Liam Moffitt (https://sketchfab.com/divadan)",
      "license": "CC-BY-4.0 (http://creativecommons.org/licenses/by/4.0/)",
      "source": "https://sketchfab.com/3d-models/corrupted-hoodie-and-pants-73307af93cc843bb8f59f6c135c2188b",
      "title": "Corrupted Hoodie and Pants"
    },
    "generator": "Sketchfab-12.66.0",
    "version": "2.0"
  },
  "bufferViews": [
    {
      "buffer": 0,
      "byteLength": 35964,
      "name": "floatBufferViews",
      "target": 34963
    },
    {
      "buffer": 0,
      "byteLength": 14800,
      "byteOffset": 35964,
      "byteStride": 8,
      "name": "floatBufferViews",
      "target": 34962
    },
    {
      "buffer": 0,
      "byteLength": 44400,
      "byteOffset": 50764,
      "byteStride": 12,
      "name": "floatBufferViews",
      "target": 34962
    },
    {
      "buffer": 0,
      "byteLength": 29600,
      "byteOffset": 95164,
      "byteStride": 16,
      "name": "floatBufferViews",
      "target": 34962
    }
  ],
  "buffers": [
    {
      "byteLength": 124764,
      "uri": "scene.bin"
    }
  ],
  "extensionsRequired": [
    "KHR_materials_pbrSpecularGlossiness"
  ],
  "extensionsUsed": [
    "KHR_materials_pbrSpecularGlossiness"
  ],
  "images": [
    {
      "uri": "textures/hoodie_diffuse.png"
    },
    {
      "uri": "textures/hoodie_specularGlossiness.png"
    },
    {
      "uri": "textures/hoodie_normal.png"
    },
    {
      "uri": "textures/hoodie_occlusion.png"
    },
    {
      "uri": "textures/pants_diffuse.png"
    },
    {
      "uri": "textures/pants_specularGlossiness.png"
    },
    {
      "uri": "textures/pants_normal.png"
    },
    {
      "uri": "textures/pants_occlusion.png"
    }
  ],
  "materials": [
    {
      "doubleSided": true,
      "extensions": {
        "KHR_materials_pbrSpecularGlossiness": {
          "diffuseFactor": [
            1.0,
            1.0,
            1.0,
            1.0
          ],
          "diffuseTexture": {
            "index": 0
          },
          "glossinessFactor": 0.6583966213206999,
          "specularFactor": [
            1.0,
            1.0,
            1.0
          ],
          "specularGlossinessTexture": {
            "index": 1
          }
        }
      },
      "name": "hoodie",
      "normalTexture": {
        "index": 2
      },
      "occlusionTexture": {
        "index": 3
      }
    },
    {
      "doubleSided": true,
      "extensions": {
        "KHR_materials_pbrSpecularGlossiness": {
          "diffuseFactor": [
            1.0,
            1.0,
            1.0,
            1.0
          ],
          "diffuseTexture": {
            "index": 4
          },
          "glossinessFactor": 0.16536000269974163,
          "specularFactor": [
            1.0,
            1.0,
            1.0
          ],
          "specularGlossinessTexture": {
            "index": 5
          }
        }
      },
      "name": "pants",
      "normalTexture": {
        "index": 6
      },
      "occlusionTexture": {
        "index": 7
      }
    }
  ],
  "meshes": [
    {
      "name": "Object_0",
      "primitives": [
        {
          "attributes": {
            "NORMAL": 1,
            "POSITION": 0,
            "TANGENT": 2,
            "TEXCOORD_0": 3
          },
          "indices": 4,
          "material": 0,
          "mode": 4
        }
      ]
    },
    {
      "name": "Object_1",
      "primitives": [
        {
          "attributes": {
            "NORMAL": 6,
            "POSITION": 5,
            "TANGENT": 7,
            "TEXCOORD_0": 8
          },
          "indices": 9,
          "material": 1,
          "mode": 4
        }
      ]
    }
  ],
  "nodes": [
    {
      "children": [
        1
      ],
      "matrix": [
        1.0,
        0.0,
        0.0,
        0.0,
        0.0,
        2.220446049250313e-16,
        -1.0,
        0.0,
        0.0,
        1.0,
        2.220446049250313e-16,
        0.0,
        0.0,
        0.0,
        0.0,
        1.0
      ],
      "name": "Sketchfab_model"
    },
    {
      "children": [
        2,
        3
      ],
      "name": "66c1f63e7bbc426787bb488dd9a7b63d.obj.cleaner.materialmerger.gles"
    },
    {
      "mesh": 0,
      "name": "Object_2"
    },
    {
      "mesh": 1,
      "name": "Object_3"
    }
  ],
  "samplers": [
    {
      "magFilter": 9729,
      "minFilter": 9987,
      "wrapS": 10497,
      "wrapT": 10497
    }
  ],
  "scene": 0,
  "scenes": [
    {
      "name": "Sketchfab_Scene",
      "nodes": [
        0
      ]
    }
  ],
  "textures": [
    {
      "sampler": 0,
      "source": 0
    },
    {
      "sampler": 0,
      "source": 1
    },
    {
      "sampler": 0,
      "source": 2
    },
    {
      "sampler": 0,
      "source": 3
    },
    {
      "sampler": 0,
      "source": 4
    },
    {
      "sampler": 0,
      "source": 5
    },
    {
      "sampler": 0,
      "source": 6
    },
    {
      "sampler": 0,
      "source": 7
    }
  ]
}
