{
  "accessors": [
    {
      "bufferView": 2,
      "componentType": 5126,
      "count": 24547,
      "max": [
        8.95397663116455,
        12.550930976867676,
        11.578174591064453
      ],
      "min": [
        0.5529062151908875,
        0.08669090270996094,
        -11.459063529968262
      ],
      "type": "VEC3"
    },
    {
      "bufferView": 2,
      "byteOffset": 294564,
      "componentType": 5126,
      "count": 24547,
      "max": [
        0.9999815225601196,
        0.9999933242797852,
        0.9991662502288818
      ],
      "min": [
        -0.9999979734420776,
        -0.9999975562095642,
        -0.9999743700027466
      ],
      "type": "VEC3"
    },
    {
      "bufferView": 1,
      "componentType": 5126,
      "count": 24547,
      "max": [
        0.995307981967926,
        0.9980469942092896
      ],
      "min": [
        0.0019529999699443579,
        0.0019530057907104492
      ],
      "type": "VEC2"
    },
    {
      "bufferView": 0,
      "componentType": 5125,
      "count": 138078,
      "type": "SCALAR"
    },
    {
      "bufferView": 2,
      "byteOffset": 589128,
      "componentType": 5126,
      "count": 24547,
      "max": [
        -0.5529061555862427,
        12.550930976867676,
        11.578174591064453
      ],
      "min": [
        -8.95397663116455,
        0.08669090270996094,
        -11.459063529968262
      ],
      "type": "VEC3"
    },
    {
      "bufferView": 2,
      "byteOffset": 883692,
      "componentType": 5126,
      "count": 24547,
      "max": [
        0.9999979734420776,
        0.9999933242797852,
        0.9991661906242371
      ],
      "min": [
        -0.9999814629554749,
        -0.9999975562095642,
        -0.9999743700027466
      ],
      "type": "VEC3"
    },
    {
      "bufferView": 1,
      "byteOffset": 196376,
      "componentType": 5126,
      "count": 24547,
      "max": [
        0.995307981967926,
        0.9980469942092896
      ],
      "min": [
        0.0019529999699443579,
        0.0019530057907104492
      ],
      "type": "VEC2"
    },
    {
      "bufferView": 0,
      "byteOffset": 552312,
      "componentType": 5125,
      "count": 138078,
      "type": "SCALAR"
    }
  ],
  "asset": {
    "extras": {
      "author": "SRUSH651 2th☑ (https://sketchfab.com/THE-OFFICIAL-SRUSH651)",
      "license": "CC-BY-4.0 (http://creativecommons.org/licenses/by/4.0/)",
      "source": "https://sketchfab.com/3d-models/nike-air-force-1-mid-white-5ab1a6350a044d83895e6d8e274eb70d",
      "title": "NIKE AIR FORCE 1 MID WHITE"
    },
    "generator": "Sketchfab-16.56.0",
    "version": "2.0"
  },
  "bufferViews": [
    {
      "buffer": 0,
      "byteLength": 1104624,
      "name": "floatBufferViews",
      "target": 34963
    },
    {
      "buffer": 0,
      "byteLength": 392752,
      "byteOffset": 1104624,
      "byteStride": 8,
      "name": "floatBufferViews",
      "target": 34962
    },
    {
      "buffer": 0,
      "byteLength": 1178256,
      "byteOffset": 1497376,
      "byteStride": 12,
      "name": "floatBufferViews",
      "target": 34962
    }
  ],
  "buffers": [
    {
      "byteLength": 2675632,
      "uri": "scene.bin"
    }
  ],
  "images": [
    {
      "uri": "textures/NIKE_air_force_one_1_white_highlambert3_baseColor.jpeg"
    },
    {
      "uri": "textures/lambert2_baseColor.jpeg"
    }
  ],
  "materials": [
    {
      "doubleSided": true,
      "emissiveFactor": [
        1.0,
        1.0,
        1.0
      ],
      "emissiveTexture": {
        "index": 0
      },
      "name": "NIKE_air_force_one_1_white_highlambert3",
      "pbrMetallicRoughness": {
        "baseColorTexture": {
          "index": 0
        }
      }
    },
    {
      "doubleSided": true,
      "emissiveFactor": [
        1.0,
        1.0,
        1.0
      ],
      "emissiveTexture": {
        "index": 1
      },
      "name": "lambert2",
      "pbrMetallicRoughness": {
        "baseColorTexture": {
          "index": 1
        }
      }
    }
  ],
  "meshes": [
    {
      "name": "NIKE_air_force_one_1_white_high_NIKE_air_force_one_1_white_high1_NIKE_air_force_one_1_white_high_lambert3_0",
      "primitives": [
        {
          "attributes": {
            "NORMAL": 1,
            "POSITION": 0,
            "TEXCOORD_0": 2
          },
          "indices": 3,
          "material": 0,
          "mode": 4
        }
      ]
    },
    {
      "name": "NIKE_air_force_one_1_white_high_NIKE_air_force_one_1_white_high_lambert2_0",
      "primitives": [
        {
          "attributes": {
            "NORMAL": 5,
            "POSITION": 4,
            "TEXCOORD_0": 6
          },
          "indices": 7,
          "material": 1,
          "mode": 4
        }
      ]
    }
  ],
  "nodes": [
    {
      "children": [
        1
      ],
      "matrix": [
        1.0,
        0.0,
        0.0,
        0.0,
        0.0,
        2.220446049250313e-16,
        -1.0,
        0.0,
        0.0,
        1.0,
        2.220446049250313e-16,
        0.0,
        0.0,
        0.0,
        0.0,
        1.0
      ],
      "name": "Sketchfab_model"
    },
    {
      "children": [
        2
      ],
      "matrix": [
        0.009999999776482582,
        0.0,
        0.0,
        0.0,
        0.0,
        2.2204459996194763e-18,
        0.009999999776482582,
        0.0,
        0.0,
        -0.009999999776482582,
        2.2204459996194763e-18,
        0.0,
        0.0,
        0.0,
        0.0,
        1.0
      ],
      "name": "USDRoot"
    },
    {
      "children": [
        3
      ],
      "name": "scene"
    },
    {
      "children": [
        4
      ],
      "matrix": [
        100.0,
        0.0,
        0.0,
        0.0,
        0.0,
        100.0,
        0.0,
        0.0,
        0.0,
        0.0,
        100.0,
        0.0,
        0.0,
        0.0,
        0.0,
        1.0
      ],
      "name": "Meshes"
    },
    {
      "children": [
        5
      ],
      "matrix": [
        1.0,
        0.0,
        0.0,
        0.0,
        0.0,
        2.220446049250313e-16,
        -1.0,
        0.0,
        0.0,
        1.0,
        2.220446049250313e-16,
        0.0,
        0.0,
        0.0,
        0.0,
        1.0
      ],
      "name": "Sketchfab_model"
    },
    {
      "children": [
        6
      ],
      "matrix": [
        0.009999999776482582,
        0.0,
        0.0,
        0.0,
        0.0,
        0.0,
        0.009999999776482582,
        0.0,
        0.0,
        -0.009999999776482582,
        0.0,
        0.0,
        0.0,
        0.0,
        0.0,
        1.0
      ],
      "name": "_f86b0e47fb44054adff61f971d0d8de_fbx"
    },
    {
      "children": [
        7,
        10
      ],
      "name": "RootNode"
    },
    {
      "children": [
        8
      ],
      "name": "NIKE_air_force_one_1_white_high_NIKE_air_force_one_1_white_high1"
    },
    {
      "children": [
        9
      ],
      "name": "NIKE_air_force_one_1_white_high_NIKE_air_force_one_1_white_high1_NIKE_air_force_one_1_white_high_lambert3_0"
    },
    {
      "mesh": 0,
      "name": "NIKE_air_force_one_1_white_high_NIKE_air_force_one_1_white_high1_NIKE_air_force_one_1_white_high_lambert3_0"
    },
    {
      "children": [
        11
      ],
      "name": "NIKE_air_force_one_1_white_high_NIKE_air_force_one_1_white_high"
    },
    {
      "children": [
        12
      ],
      "name": "NIKE_air_force_one_1_white_high_NIKE_air_force_one_1_white_high_lambert2_0"
    },
    {
      "mesh": 1,
      "name": "NIKE_air_force_one_1_white_high_NIKE_air_force_one_1_white_high_lambert2_0"
    }
  ],
  "samplers": [
    {
      "magFilter": 9729,
      "minFilter": 9987,
      "wrapS": 10497,
      "wrapT": 10497
    }
  ],
  "scene": 0,
  "scenes": [
    {
      "name": "Sketchfab_Scene",
      "nodes": [
        0
      ]
    }
  ],
  "textures": [
    {
      "sampler": 0,
      "source": 0
    },
    {
      "sampler": 0,
      "source": 1
    }
  ]
}
