{
  "accessors": [
    {
      "bufferView": 2,
      "componentType": 5126,
      "count": 65532,
      "max": [
        15.857585906982422,
        29.620826721191406,
        23.943220138549805
      ],
      "min": [
        -16.890745162963867,
        -31.101808547973633,
        -21.676027297973633
      ],
      "type": "VEC3"
    },
    {
      "bufferView": 2,
      "byteOffset": 786384,
      "componentType": 5126,
      "count": 65532,
      "max": [
        0.9999784827232361,
        0.9999925494194031,
        0.9999927878379822
      ],
      "min": [
        -0.9999454617500305,
        -0.9999739527702332,
        -0.9999646544456482
      ],
      "type": "VEC3"
    },
    {
      "bufferView": 1,
      "componentType": 5126,
      "count": 65532,
      "max": [
        0.9977934956550598,
        0.9976170063018799
      ],
      "min": [
        0.0021920001599937677,
        0.05939500033855438
      ],
      "type": "VEC2"
    },
    {
      "bufferView": 0,
      "componentType": 5125,
      "count": 362400,
      "type": "SCALAR"
    },
    {
      "bufferView": 2,
      "byteOffset": 1572768,
      "componentType": 5126,
      "count": 65532,
      "max": [
        15.72999382019043,
        29.620826721191406,
        19.267452239990234
      ],
      "min": [
        -16.797428131103516,
        -31.15337371826172,
        -24.579925537109375
      ],
      "type": "VEC3"
    },
    {
      "bufferView": 2,
      "byteOffset": 2359152,
      "componentType": 5126,
      "count": 65532,
      "max": [
        0.9999998807907104,
        0.9998746514320374,
        0.9999836683273315
      ],
      "min": [
        -0.9999337196350098,
        -0.9999828934669495,
        -0.9999895691871643
      ],
      "type": "VEC3"
    },
    {
      "bufferView": 1,
      "byteOffset": 524256,
      "componentType": 5126,
      "count": 65532,
      "max": [
        0.9710767269134521,
        0.9951958656311035
      ],
      "min": [
        0.009316632524132729,
        0.05939500033855438
      ],
      "type": "VEC2"
    },
    {
      "bufferView": 0,
      "byteOffset": 1449600,
      "componentType": 5125,
      "count": 362259,
      "type": "SCALAR"
    },
    {
      "bufferView": 2,
      "byteOffset": 3145536,
      "componentType": 5126,
      "count": 38742,
      "max": [
        15.757631301879883,
        30.150981903076172,
        23.701244354248047
      ],
      "min": [
        -17.11680030822754,
        -31.133682250976563,
        -24.553510665893555
      ],
      "type": "VEC3"
    },
    {
      "bufferView": 2,
      "byteOffset": 3610440,
      "componentType": 5126,
      "count": 38742,
      "max": [
        0.9999510645866394,
        0.999879777431488,
        0.9999927878379822
      ],
      "min": [
        -0.9999880790710449,
        -0.9998223781585693,
        -0.9999986886978149
      ],
      "type": "VEC3"
    },
    {
      "bufferView": 1,
      "byteOffset": 1048512,
      "componentType": 5126,
      "count": 38742,
      "max": [
        0.9853720664978027,
        0.9973827004432678
      ],
      "min": [
        0.0029246255289763212,
        0.014406999573111534
      ],
      "type": "VEC2"
    },
    {
      "bufferView": 0,
      "byteOffset": 2898636,
      "componentType": 5125,
      "count": 204429,
      "type": "SCALAR"
    }
  ],
  "asset": {
    "extras": {
      "author": "Gabrielelel (https://sketchfab.com/Gabrielelel)",
      "license": "CC-BY-4.0 (http://creativecommons.org/licenses/by/4.0/)",
      "source": "https://sketchfab.com/3d-models/fc-porto-concept-shirt-8d2ad1b0c7014fb398ae05a52d230a39",
      "title": "FC Porto Concept Shirt"
    },
    "generator": "Sketchfab-14.41.0",
    "version": "2.0"
  },
  "bufferViews": [
    {
      "buffer": 0,
      "byteLength": 3716352,
      "name": "floatBufferViews",
      "target": 34963
    },
    {
      "buffer": 0,
      "byteLength": 1358448,
      "byteOffset": 3716352,
      "byteStride": 8,
      "name": "floatBufferViews",
      "target": 34962
    },
    {
      "buffer": 0,
      "byteLength": 4075344,
      "byteOffset": 5074800,
      "byteStride": 12,
      "name": "floatBufferViews",
      "target": 34962
    }
  ],
  "buffers": [
    {
      "byteLength": 9150144,
      "uri": "scene.bin"
    }
  ],
  "images": [
    {
      "uri": "textures/Louis_Vuitton_Original_baseColor.png"
    }
  ],
  "materials": [
    {
      "doubleSided": true,
      "name": "Louis_Vuitton_Original",
      "pbrMetallicRoughness": {
        "baseColorTexture": {
          "index": 0
        },
        "metallicFactor": 0.0,
        "roughnessFactor": 0.916423
      }
    }
  ],
  "meshes": [
    {
      "name": "Object_0",
      "primitives": [
        {
          "attributes": {
            "NORMAL": 1,
            "POSITION": 0,
            "TEXCOORD_0": 2
          },
          "indices": 3,
          "material": 0,
          "mode": 4
        }
      ]
    },
    {
      "name": "Object_1",
      "primitives": [
        {
          "attributes": {
            "NORMAL": 5,
            "POSITION": 4,
            "TEXCOORD_0": 6
          },
          "indices": 7,
          "material": 0,
          "mode": 4
        }
      ]
    },
    {
      "name": "Object_2",
      "primitives": [
        {
          "attributes": {
            "NORMAL": 9,
            "POSITION": 8,
            "TEXCOORD_0": 10
          },
          "indices": 11,
          "material": 0,
          "mode": 4
        }
      ]
    }
  ],
  "nodes": [
    {
      "children": [
        1
      ],
      "matrix": [
        1.0549540519714355,
        0.0,
        0.0,
        0.0,
        0.0,
        4.038964033996773e-16,
        -1.0549540519714355,
        0.0,
        0.0,
        1.0549540519714355,
        4.038964033996773e-16,
        0.0,
        0.0,
        0.0,
        0.0,
        1.0
      ],
      "name": "Sketchfab_model"
    },
    {
      "children": [
        2
      ],
      "name": "root"
    },
    {
      "children": [
        3
      ],
      "matrix": [
        1.0,
        0.0,
        0.0,
        0.0,
        0.0,
        2.220446049250313e-16,
        1.0,
        0.0,
        0.0,
        -1.0,
        2.220446049250313e-16,
        0.0,
        0.0,
        0.0,
        0.0,
        1.0
      ],
      "name": "GLTF_SceneRootNode"
    },
    {
      "children": [
        4,
        5,
        6
      ],
      "matrix": [
        0.005357909622327172,
        -5.349586172152944e-05,
        0.00923545194562919,
        0.0,
        5.235183399395111e-05,
        0.010677074434794489,
        3.1474680845385974e-05,
        0.0,
        -0.009235459307077368,
        2.9488342379286905e-05,
        0.005358084702688139,
        0.0,
        0.0,
        0.0,
        0.0,
        1.0
      ],
      "name": "T_Shirt_1"
    },
    {
      "mesh": 0,
      "name": "Object_4"
    },
    {
      "mesh": 1,
      "name": "Object_5"
    },
    {
      "mesh": 2,
      "name": "Object_6"
    }
  ],
  "samplers": [
    {
      "magFilter": 9729,
      "minFilter": 9987,
      "wrapS": 10497,
      "wrapT": 10497
    }
  ],
  "scene": 0,
  "scenes": [
    {
      "name": "Sketchfab_Scene",
      "nodes": [
        0
      ]
    }
  ],
  "textures": [
    {
      "sampler": 0,
      "source": 0
    }
  ]
}
