{
  "accessors": [
    {
      "bufferView": 2,
      "componentType": 5126,
      "count": 32781,
      "max": [
        10.529211044311523,
        10.579025268554688,
        11.429636001586914
      ],
      "min": [
        0.681938648223877,
        -0.06641006469726563,
        -11.428972244262695
      ],
      "type": "VEC3"
    },
    {
      "bufferView": 2,
      "byteOffset": 393372,
      "componentType": 5126,
      "count": 32781,
      "max": [
        0.999967634677887,
        1.0,
        0.9999794960021973
      ],
      "min": [
        -0.9999630451202393,
        -0.9999865889549255,
        -0.9998431205749512
      ],
      "type": "VEC3"
    },
    {
      "bufferView": 1,
      "componentType": 5126,
      "count": 32781,
      "max": [
        0.980139970779419,
        0.9858999848365784
      ],
      "min": [
        0.016540000215172768,
        0.019689977169036865
      ],
      "type": "VEC2"
    },
    {
      "bufferView": 0,
      "componentType": 5125,
      "count": 177114,
      "type": "SCALAR"
    },
    {
      "bufferView": 2,
      "byteOffset": 786744,
      "componentType": 5126,
      "count": 32781,
      "max": [
        -0.681938648223877,
        10.579025268554688,
        11.429636001586914
      ],
      "min": [
        -10.529211044311523,
        -0.06641006469726563,
        -11.428972244262695
      ],
      "type": "VEC3"
    },
    {
      "bufferView": 2,
      "byteOffset": 1180116,
      "componentType": 5126,
      "count": 32781,
      "max": [
        0.999963104724884,
        1.0,
        0.9999794960021973
      ],
      "min": [
        -0.999967634677887,
        -0.9999865889549255,
        -0.9998431205749512
      ],
      "type": "VEC3"
    },
    {
      "bufferView": 1,
      "byteOffset": 262248,
      "componentType": 5126,
      "count": 32781,
      "max": [
        0.980139970779419,
        0.9858999848365784
      ],
      "min": [
        0.016540000215172768,
        0.019689977169036865
      ],
      "type": "VEC2"
    },
    {
      "bufferView": 0,
      "byteOffset": 708456,
      "componentType": 5125,
      "count": 177114,
      "type": "SCALAR"
    }
  ],
  "asset": {
    "extras": {
      "author": "SRUSH651 2th☑ (https://sketchfab.com/THE-OFFICIAL-SRUSH651)",
      "license": "CC-BY-4.0 (http://creativecommons.org/licenses/by/4.0/)",
      "source": "https://sketchfab.com/3d-models/balenciaga-track-white-b916790872f248c98d3409630fd44aac",
      "title": "Balenciaga Track WHITE"
    },
    "generator": "Sketchfab-16.53.0",
    "version": "2.0"
  },
  "bufferViews": [
    {
      "buffer": 0,
      "byteLength": 1416912,
      "name": "floatBufferViews",
      "target": 34963
    },
    {
      "buffer": 0,
      "byteLength": 524496,
      "byteOffset": 1416912,
      "byteStride": 8,
      "name": "floatBufferViews",
      "target": 34962
    },
    {
      "buffer": 0,
      "byteLength": 1573488,
      "byteOffset": 1941408,
      "byteStride": 12,
      "name": "floatBufferViews",
      "target": 34962
    }
  ],
  "buffers": [
    {
      "byteLength": 3514896,
      "uri": "scene.bin"
    }
  ],
  "images": [
    {
      "uri": "textures/Balenciaga_Track_3_white_baseColor.jpeg"
    },
    {
      "uri": "textures/lambert2_baseColor.jpeg"
    }
  ],
  "materials": [
    {
      "doubleSided": true,
      "emissiveFactor": [
        1.0,
        1.0,
        1.0
      ],
      "emissiveTexture": {
        "index": 0
      },
      "name": "Balenciaga_Track_3_white",
      "pbrMetallicRoughness": {
        "baseColorTexture": {
          "index": 0
        }
      }
    },
    {
      "doubleSided": true,
      "emissiveFactor": [
        1.0,
        1.0,
        1.0
      ],
      "emissiveTexture": {
        "index": 1
      },
      "name": "lambert2",
      "pbrMetallicRoughness": {
        "baseColorTexture": {
          "index": 1
        }
      }
    }
  ],
  "meshes": [
    {
      "name": "Balenciaga_Track_3_white1_Balenciaga_Track_3_white_0",
      "primitives": [
        {
          "attributes": {
            "NORMAL": 1,
            "POSITION": 0,
            "TEXCOORD_0": 2
          },
          "indices": 3,
          "material": 0,
          "mode": 4
        }
      ]
    },
    {
      "name": "Balenciaga_Track_3_white2_lambert2_0",
      "primitives": [
        {
          "attributes": {
            "NORMAL": 5,
            "POSITION": 4,
            "TEXCOORD_0": 6
          },
          "indices": 7,
          "material": 1,
          "mode": 4
        }
      ]
    }
  ],
  "nodes": [
    {
      "children": [
        1
      ],
      "matrix": [
        1.0,
        0.0,
        0.0,
        0.0,
        0.0,
        2.220446049250313e-16,
        -1.0,
        0.0,
        0.0,
        1.0,
        2.220446049250313e-16,
        0.0,
        0.0,
        0.0,
        0.0,
        1.0
      ],
      "name": "Sketchfab_model"
    },
    {
      "children": [
        2
      ],
      "matrix": [
        0.009999999776482582,
        0.0,
        0.0,
        0.0,
        0.0,
        2.2204459996194763e-18,
        0.009999999776482582,
        0.0,
        0.0,
        -0.009999999776482582,
        2.2204459996194763e-18,
        0.0,
        0.0,
        0.0,
        0.0,
        1.0
      ],
      "name": "USDRoot"
    },
    {
      "children": [
        3
      ],
      "name": "scene"
    },
    {
      "children": [
        4
      ],
      "matrix": [
        100.0,
        0.0,
        0.0,
        0.0,
        0.0,
        100.0,
        0.0,
        0.0,
        0.0,
        0.0,
        100.0,
        0.0,
        0.0,
        0.0,
        0.0,
        1.0
      ],
      "name": "Meshes"
    },
    {
      "children": [
        5
      ],
      "matrix": [
        1.0,
        0.0,
        0.0,
        0.0,
        0.0,
        2.220446049250313e-16,
        -1.0,
        0.0,
        0.0,
        1.0,
        2.220446049250313e-16,
        0.0,
        0.0,
        0.0,
        0.0,
        1.0
      ],
      "name": "Sketchfab_model"
    },
    {
      "children": [
        6
      ],
      "matrix": [
        0.009999999776482582,
        0.0,
        0.0,
        0.0,
        0.0,
        0.0,
        0.009999999776482582,
        0.0,
        0.0,
        -0.009999999776482582,
        0.0,
        0.0,
        0.0,
        0.0,
        0.0,
        1.0
      ],
      "name": "_1672266f0184a15893dfa3a045f25e7_fbx"
    },
    {
      "children": [
        7,
        10
      ],
      "name": "RootNode"
    },
    {
      "children": [
        8
      ],
      "name": "Balenciaga_Track_3_white1"
    },
    {
      "children": [
        9
      ],
      "name": "Balenciaga_Track_3_white1_Balenciaga_Track_3_white_0"
    },
    {
      "mesh": 0,
      "name": "Balenciaga_Track_3_white1_Balenciaga_Track_3_white_0"
    },
    {
      "children": [
        11
      ],
      "name": "Balenciaga_Track_3_white2"
    },
    {
      "children": [
        12
      ],
      "name": "Balenciaga_Track_3_white2_lambert2_0"
    },
    {
      "mesh": 1,
      "name": "Balenciaga_Track_3_white2_lambert2_0"
    }
  ],
  "samplers": [
    {
      "magFilter": 9729,
      "minFilter": 9987,
      "wrapS": 10497,
      "wrapT": 10497
    }
  ],
  "scene": 0,
  "scenes": [
    {
      "name": "Sketchfab_Scene",
      "nodes": [
        0
      ]
    }
  ],
  "textures": [
    {
      "sampler": 0,
      "source": 0
    },
    {
      "sampler": 0,
      "source": 1
    }
  ]
}
