{
  "accessors": [
    {
      "bufferView": 2,
      "componentType": 5126,
      "count": 96,
      "max": [
        0.5,
        0.5,
        0.5
      ],
      "min": [
        -0.5,
        -0.5,
        -0.5
      ],
      "type": "VEC3"
    },
    {
      "bufferView": 2,
      "byteOffset": 1152,
      "componentType": 5126,
      "count": 96,
      "max": [
        1.0,
        1.0,
        1.0
      ],
      "min": [
        -1.0,
        -1.0,
        -1.0
      ],
      "type": "VEC3"
    },
    {
      "bufferView": 1,
      "componentType": 5126,
      "count": 96,
      "max": [
        1.0,
        1.0
      ],
      "min": [
        -2.3841900542720396e-07,
        -2.3841900542720396e-07
      ],
      "type": "VEC2"
    },
    {
      "bufferView": 0,
      "componentType": 5125,
      "count": 324,
      "type": "SCALAR"
    },
    {
      "bufferView": 2,
      "byteOffset": 2304,
      "componentType": 5126,
      "count": 4025,
      "max": [
        0.22559699416160583,
        0.05991449952125549,
        -0.4465929865837097
      ],
      "min": [
        -0.42686301469802856,
        -0.5,
        -0.5
      ],
      "type": "VEC3"
    },
    {
      "bufferView": 2,
      "byteOffset": 50604,
      "componentType": 5126,
      "count": 4025,
      "max": [
        0.9998459219932556,
        0.9995090961456299,
        0.9999521970748901
      ],
      "min": [
        -0.9996417164802551,
        -0.9999766945838928,
        -0.9999893307685852
      ],
      "type": "VEC3"
    },
    {
      "bufferView": 1,
      "byteOffset": 768,
      "componentType": 5126,
      "count": 4025,
      "max": [
        0.8927680253982544,
        0.9980469942092896
      ],
      "min": [
        0.0019531298894435167,
        0.0019531298894435167
      ],
      "type": "VEC2"
    },
    {
      "bufferView": 0,
      "byteOffset": 1296,
      "componentType": 5125,
      "count": 21096,
      "type": "SCALAR"
    },
    {
      "bufferView": 2,
      "byteOffset": 98904,
      "componentType": 5126,
      "count": 3598,
      "max": [
        0.48330700397491455,
        0.4761039912700653,
        0.2818419933319092
      ],
      "min": [
        -0.48765501379966736,
        -0.049233198165893555,
        -0.4765009880065918
      ],
      "type": "VEC3"
    },
    {
      "bufferView": 2,
      "byteOffset": 142080,
      "componentType": 5126,
      "count": 3598,
      "max": [
        0.999997615814209,
        0.17576992511749268,
        0.9591691493988037
      ],
      "min": [
        -0.9999134540557861,
        -0.9997836351394653,
        -0.969349205493927
      ],
      "type": "VEC3"
    },
    {
      "bufferView": 1,
      "byteOffset": 32968,
      "componentType": 5126,
      "count": 3598,
      "max": [
        0.9980469942092896,
        0.9980469942092896
      ],
      "min": [
        0.0019531298894435167,
        0.0019531298894435167
      ],
      "type": "VEC2"
    },
    {
      "bufferView": 0,
      "byteOffset": 85680,
      "componentType": 5125,
      "count": 20832,
      "type": "SCALAR"
    },
    {
      "bufferView": 2,
      "byteOffset": 185256,
      "componentType": 5126,
      "count": 5131,
      "max": [
        0.49974098801612854,
        0.04479280114173889,
        -0.07850000262260437
      ],
      "min": [
        0.4851219952106476,
        -0.01815059967339039,
        -0.2284349948167801
      ],
      "type": "VEC3"
    },
    {
      "bufferView": 2,
      "byteOffset": 246828,
      "componentType": 5126,
      "count": 5131,
      "max": [
        0.9999998807907104,
        0.99925696849823,
        0.9987397193908691
      ],
      "min": [
        -0.06581185013055801,
        -0.9993184208869934,
        -0.9996050596237183
      ],
      "type": "VEC3"
    },
    {
      "bufferView": 1,
      "byteOffset": 61752,
      "componentType": 5126,
      "count": 5131,
      "max": [
        0.6611679792404175,
        0.9980469942092896
      ],
      "min": [
        0.0019531298894435167,
        0.0019531298894435167
      ],
      "type": "VEC2"
    },
    {
      "bufferView": 0,
      "byteOffset": 169008,
      "componentType": 5125,
      "count": 26541,
      "type": "SCALAR"
    },
    {
      "bufferView": 2,
      "byteOffset": 308400,
      "componentType": 5126,
      "count": 4469,
      "max": [
        0.5,
        0.5,
        0.2877170145511627
      ],
      "min": [
        -0.5,
        -0.049675699323415756,
        -0.48152101039886475
      ],
      "type": "VEC3"
    },
    {
      "bufferView": 2,
      "byteOffset": 362028,
      "componentType": 5126,
      "count": 4469,
      "max": [
        0.9999756813049316,
        0.9992111921310425,
        0.9999247789382935
      ],
      "min": [
        -0.9999956488609314,
        -0.9999808669090271,
        -0.9999340772628784
      ],
      "type": "VEC3"
    },
    {
      "bufferView": 1,
      "byteOffset": 102800,
      "componentType": 5126,
      "count": 4469,
      "max": [
        0.9980469942092896,
        0.9980469942092896
      ],
      "min": [
        0.0019531298894435167,
        0.0019531298894435167
      ],
      "type": "VEC2"
    },
    {
      "bufferView": 0,
      "byteOffset": 275172,
      "componentType": 5125,
      "count": 25056,
      "type": "SCALAR"
    },
    {
      "bufferView": 2,
      "byteOffset": 415656,
      "componentType": 5126,
      "count": 1313,
      "max": [
        0.45150700211524963,
        0.09848929941654205,
        0.5
      ],
      "min": [
        -0.466170996427536,
        -0.1281989961862564,
        0.06343939900398254
      ],
      "type": "VEC3"
    },
    {
      "bufferView": 2,
      "byteOffset": 431412,
      "componentType": 5126,
      "count": 1313,
      "max": [
        0.9573231339454651,
        0.9685115814208984,
        0.9972922205924988
      ],
      "min": [
        -0.9543778896331787,
        -0.9991185069084167,
        -0.9972253441810608
      ],
      "type": "VEC3"
    },
    {
      "bufferView": 1,
      "byteOffset": 138552,
      "componentType": 5126,
      "count": 1313,
      "max": [
        0.9980469942092896,
        0.7879800200462341
      ],
      "min": [
        0.0019531298894435167,
        0.0019531298894435167
      ],
      "type": "VEC2"
    },
    {
      "bufferView": 0,
      "byteOffset": 375396,
      "componentType": 5125,
      "count": 6672,
      "type": "SCALAR"
    },
    {
      "bufferView": 2,
      "byteOffset": 447168,
      "componentType": 5126,
      "count": 3888,
      "max": [
        0.3952009975910187,
        0.4230180084705353,
        0.12201900035142899
      ],
      "min": [
        -0.39726099371910095,
        0.3839400112628937,
        -0.34683001041412354
      ],
      "type": "VEC3"
    },
    {
      "bufferView": 2,
      "byteOffset": 493824,
      "componentType": 5126,
      "count": 3888,
      "max": [
        0.9986057281494141,
        0.9993866086006165,
        0.9998429417610168
      ],
      "min": [
        -0.9975200891494751,
        -0.999087393283844,
        -0.9999171495437622
      ],
      "type": "VEC3"
    },
    {
      "bufferView": 1,
      "byteOffset": 149056,
      "componentType": 5126,
      "count": 3888,
      "max": [
        1.0,
        1.0
      ],
      "min": [
        0.0,
        0.0
      ],
      "type": "VEC2"
    },
    {
      "bufferView": 0,
      "byteOffset": 402084,
      "componentType": 5125,
      "count": 22032,
      "type": "SCALAR"
    }
  ],
  "asset": {
    "extras": {
      "author": "ℜ𝔢𝔞𝔩 𝔖𝔩𝔦𝔪 𝔖𝔥𝔞𝔡𝔶 (https://sketchfab.com/real_slimshady)",
      "license": "CC-BY-4.0 (http://creativecommons.org/licenses/by/4.0/)",
      "source": "https://sketchfab.com/3d-models/samurai-cap-3d-model-a4b0e644eb9d4839bbf8d6fdd7f9307d",
      "title": "Samurai Cap 3D Model"
    },
    "generator": "Sketchfab-16.56.0",
    "version": "2.0"
  },
  "bufferViews": [
    {
      "buffer": 0,
      "byteLength": 490212,
      "name": "floatBufferViews",
      "target": 34963
    },
    {
      "buffer": 0,
      "byteLength": 180160,
      "byteOffset": 490212,
      "byteStride": 8,
      "name": "floatBufferViews",
      "target": 34962
    },
    {
      "buffer": 0,
      "byteLength": 540480,
      "byteOffset": 670372,
      "byteStride": 12,
      "name": "floatBufferViews",
      "target": 34962
    }
  ],
  "buffers": [
    {
      "byteLength": 1210852,
      "uri": "scene.bin"
    }
  ],
  "images": [
    {
      "uri": "textures/Material0-material_baseColor.png"
    },
    {
      "uri": "textures/Material1-material_baseColor.png"
    },
    {
      "uri": "textures/Material2-material_baseColor.png"
    },
    {
      "uri": "textures/Material3-material_baseColor.png"
    },
    {
      "uri": "textures/Material4-material_baseColor.png"
    },
    {
      "uri": "textures/Material5-material_baseColor.png"
    },
    {
      "uri": "textures/Material6-material_baseColor.png"
    }
  ],
  "materials": [
    {
      "doubleSided": true,
      "name": "Material0-material",
      "pbrMetallicRoughness": {
        "baseColorTexture": {
          "index": 0
        },
        "metallicFactor": 0.0,
        "roughnessFactor": 0.7603090349269914
      }
    },
    {
      "doubleSided": true,
      "name": "Material1-material",
      "pbrMetallicRoughness": {
        "baseColorTexture": {
          "index": 1
        },
        "metallicFactor": 0.0,
        "roughnessFactor": 0.6
      }
    },
    {
      "doubleSided": true,
      "name": "Material2-material",
      "pbrMetallicRoughness": {
        "baseColorTexture": {
          "index": 2
        },
        "metallicFactor": 0.0,
        "roughnessFactor": 0.6
      }
    },
    {
      "doubleSided": true,
      "name": "Material3-material",
      "pbrMetallicRoughness": {
        "baseColorTexture": {
          "index": 3
        },
        "metallicFactor": 0.0,
        "roughnessFactor": 0.728826259153617
      }
    },
    {
      "doubleSided": true,
      "name": "Material4-material",
      "pbrMetallicRoughness": {
        "baseColorTexture": {
          "index": 4
        },
        "metallicFactor": 0.0,
        "roughnessFactor": 0.7099365936895924
      }
    },
    {
      "doubleSided": true,
      "name": "Material5-material",
      "pbrMetallicRoughness": {
        "baseColorTexture": {
          "index": 5
        },
        "metallicFactor": 0.0,
        "roughnessFactor": 0.6
      }
    },
    {
      "alphaMode": "BLEND",
      "doubleSided": true,
      "name": "Material6-material",
      "pbrMetallicRoughness": {
        "baseColorFactor": [
          1.0,
          1.0,
          1.0,
          0.0
        ],
        "baseColorTexture": {
          "index": 6
        },
        "metallicFactor": 0.0,
        "roughnessFactor": 0.6
      }
    }
  ],
  "meshes": [
    {
      "name": "Material6-material",
      "primitives": [
        {
          "attributes": {
            "NORMAL": 1,
            "POSITION": 0,
            "TEXCOORD_0": 2
          },
          "indices": 3,
          "material": 6,
          "mode": 4
        }
      ]
    },
    {
      "name": "Material0-material",
      "primitives": [
        {
          "attributes": {
            "NORMAL": 5,
            "POSITION": 4,
            "TEXCOORD_0": 6
          },
          "indices": 7,
          "material": 0,
          "mode": 4
        }
      ]
    },
    {
      "name": "Material1-material",
      "primitives": [
        {
          "attributes": {
            "NORMAL": 9,
            "POSITION": 8,
            "TEXCOORD_0": 10
          },
          "indices": 11,
          "material": 1,
          "mode": 4
        }
      ]
    },
    {
      "name": "Material2-material",
      "primitives": [
        {
          "attributes": {
            "NORMAL": 13,
            "POSITION": 12,
            "TEXCOORD_0": 14
          },
          "indices": 15,
          "material": 2,
          "mode": 4
        }
      ]
    },
    {
      "name": "Material3-material",
      "primitives": [
        {
          "attributes": {
            "NORMAL": 17,
            "POSITION": 16,
            "TEXCOORD_0": 18
          },
          "indices": 19,
          "material": 3,
          "mode": 4
        }
      ]
    },
    {
      "name": "Material4-material",
      "primitives": [
        {
          "attributes": {
            "NORMAL": 21,
            "POSITION": 20,
            "TEXCOORD_0": 22
          },
          "indices": 23,
          "material": 4,
          "mode": 4
        }
      ]
    },
    {
      "name": "Material5-material",
      "primitives": [
        {
          "attributes": {
            "NORMAL": 25,
            "POSITION": 24,
            "TEXCOORD_0": 26
          },
          "indices": 27,
          "material": 5,
          "mode": 4
        }
      ]
    }
  ],
  "nodes": [
    {
      "children": [
        1
      ],
      "matrix": [
        0.9739819765090942,
        0.16119448840618136,
        -0.15929676592350003,
        0.0,
        -0.12905588746070862,
        -0.1832866072654722,
        -0.9745514988899231,
        0.0,
        -0.18628929555416107,
        0.9697537422180176,
        -0.15771475434303261,
        0.0,
        0.0,
        0.0,
        0.0,
        1.0
      ],
      "name": "Sketchfab_model"
    },
    {
      "children": [
        2,
        4
      ],
      "name": "Collada visual scene group"
    },
    {
      "children": [
        3
      ],
      "matrix": [
        0.03439,
        -0.00475303,
        -0.00684876,
        0.0,
        0.00568523,
        0.0346336,
        0.00451178,
        0.0,
        0.00609713,
        -0.00548514,
        0.0344224,
        0.0,
        0.0,
        0.0,
        0.0,
        1.0
      ],
      "name": "prim1"
    },
    {
      "mesh": 0,
      "name": "Material6-material"
    },
    {
      "children": [
        5,
        6,
        7,
        8,
        9,
        10
      ],
      "matrix": [
        0.163357,
        -0.0225775,
        -0.0325325,
        0.0,
        0.039174,
        -0.035242,
        0.221164,
        0.0,
        -0.0456638,
        -0.278178,
        -0.0362387,
        0.0,
        -0.0018615700000000001,
        -0.0376816,
        0.0163231,
        1.0
      ],
      "name": "prim0"
    },
    {
      "mesh": 1,
      "name": "Material0-material"
    },
    {
      "mesh": 2,
      "name": "Material1-material"
    },
    {
      "mesh": 3,
      "name": "Material2-material"
    },
    {
      "mesh": 4,
      "name": "Material3-material"
    },
    {
      "mesh": 5,
      "name": "Material4-material"
    },
    {
      "mesh": 6,
      "name": "Material5-material"
    }
  ],
  "samplers": [
    {
      "magFilter": 9729,
      "minFilter": 9987,
      "wrapS": 10497,
      "wrapT": 10497
    }
  ],
  "scene": 0,
  "scenes": [
    {
      "name": "Sketchfab_Scene",
      "nodes": [
        0
      ]
    }
  ],
  "textures": [
    {
      "sampler": 0,
      "source": 0
    },
    {
      "sampler": 0,
      "source": 1
    },
    {
      "sampler": 0,
      "source": 2
    },
    {
      "sampler": 0,
      "source": 3
    },
    {
      "sampler": 0,
      "source": 4
    },
    {
      "sampler": 0,
      "source": 5
    },
    {
      "sampler": 0,
      "source": 6
    }
  ]
}
