{
  "accessors": [
    {
      "bufferView": 2,
      "componentType": 5126,
      "count": 65532,
      "max": [
        0.2899453938007355,
        0.3796338737010956,
        0.7417176365852356
      ],
      "min": [
        -0.3015342056751251,
        -0.39105266332626343,
        -0.30672624707221985
      ],
      "type": "VEC3"
    },
    {
      "bufferView": 2,
      "byteOffset": 786384,
      "componentType": 5126,
      "count": 65532,
      "max": [
        0.9999793171882629,
        0.9999986886978149,
        0.9962446093559265
      ],
      "min": [
        -0.8797645568847656,
        -0.9995031952857971,
        -0.8970580101013184
      ],
      "type": "VEC3"
    },
    {
      "bufferView": 3,
      "componentType": 5126,
      "count": 65532,
      "max": [
        0.35551491379737854,
        0.9267983436584473,
        0.4719233512878418,
        1.0
      ],
      "min": [
        -0.9999952912330627,
        -0.9999256730079651,
        -0.9529632925987244,
        -1.0
      ],
      "type": "VEC4"
    },
    {
      "bufferView": 1,
      "componentType": 5126,
      "count": 65532,
      "max": [
        0.42871224880218506,
        0.6500767469406128
      ],
      "min": [
        0.3461378812789917,
        0.046999093145132065
      ],
      "type": "VEC2"
    },
    {
      "bufferView": 1,
      "byteOffset": 524256,
      "componentType": 5126,
      "count": 65532,
      "max": [
        0.42871224880218506,
        0.6500767469406128
      ],
      "min": [
        0.3461378812789917,
        0.046999093145132065
      ],
      "type": "VEC2"
    },
    {
      "bufferView": 1,
      "byteOffset": 1048512,
      "componentType": 5126,
      "count": 65532,
      "max": [
        0.42871224880218506,
        0.6500767469406128
      ],
      "min": [
        0.3461378812789917,
        0.046999093145132065
      ],
      "type": "VEC2"
    },
    {
      "bufferView": 0,
      "componentType": 5125,
      "count": 267192,
      "type": "SCALAR"
    },
    {
      "bufferView": 2,
      "byteOffset": 1572768,
      "componentType": 5126,
      "count": 31950,
      "max": [
        0.2874901294708252,
        -0.12096577137708664,
        0.677686870098114
      ],
      "min": [
        -0.03769150748848915,
        -0.38823115825653076,
        -0.29381126165390015
      ],
      "type": "VEC3"
    },
    {
      "bufferView": 2,
      "byteOffset": 1956168,
      "componentType": 5126,
      "count": 31950,
      "max": [
        0.9998071193695068,
        0.217575341463089,
        0.8914000391960144
      ],
      "min": [
        -0.5376452803611755,
        -0.9988062977790833,
        -0.8338829278945923
      ],
      "type": "VEC3"
    },
    {
      "bufferView": 3,
      "byteOffset": 1048512,
      "componentType": 5126,
      "count": 31950,
      "max": [
        0.16441868245601654,
        0.25105342268943787,
        0.3185265362262726,
        -1.0
      ],
      "min": [
        -0.999992847442627,
        -0.9966274499893188,
        -0.852665364742279,
        -1.0
      ],
      "type": "VEC4"
    },
    {
      "bufferView": 1,
      "byteOffset": 1572768,
      "componentType": 5126,
      "count": 31950,
      "max": [
        0.4287121891975403,
        0.6444648504257202
      ],
      "min": [
        0.3493620455265045,
        0.050753042101860046
      ],
      "type": "VEC2"
    },
    {
      "bufferView": 1,
      "byteOffset": 1828368,
      "componentType": 5126,
      "count": 31950,
      "max": [
        0.4287121891975403,
        0.6444648504257202
      ],
      "min": [
        0.3493620455265045,
        0.050753042101860046
      ],
      "type": "VEC2"
    },
    {
      "bufferView": 1,
      "byteOffset": 2083968,
      "componentType": 5126,
      "count": 31950,
      "max": [
        0.4287121891975403,
        0.6444648504257202
      ],
      "min": [
        0.3493620455265045,
        0.050753042101860046
      ],
      "type": "VEC2"
    },
    {
      "bufferView": 0,
      "byteOffset": 1068768,
      "componentType": 5125,
      "count": 118944,
      "type": "SCALAR"
    },
    {
      "bufferView": 2,
      "byteOffset": 2339568,
      "componentType": 5126,
      "count": 31083,
      "max": [
        0.1833549439907074,
        0.26067695021629333,
        1.038699746131897
      ],
      "min": [
        -0.3584922254085541,
        -0.3285253345966339,
        0.5702049136161804
      ],
      "type": "VEC3"
    },
    {
      "bufferView": 2,
      "byteOffset": 2712564,
      "componentType": 5126,
      "count": 31083,
      "max": [
        0.9105396866798401,
        0.8740395307540894,
        0.9315345287322998
      ],
      "min": [
        -0.9618601202964783,
        -0.8742541670799255,
        -0.4485745429992676
      ],
      "type": "VEC3"
    },
    {
      "bufferView": 1,
      "byteOffset": 2339568,
      "componentType": 5126,
      "count": 31083,
      "max": [
        0.6039857864379883,
        0.6738717555999756
      ],
      "min": [
        0.4397225081920624,
        0.11720935255289078
      ],
      "type": "VEC2"
    },
    {
      "bufferView": 1,
      "byteOffset": 2588232,
      "componentType": 5126,
      "count": 31083,
      "max": [
        0.7630432844161987,
        0.6950541734695435
      ],
      "min": [
        0.2382568120956421,
        0.23866340517997742
      ],
      "type": "VEC2"
    },
    {
      "bufferView": 0,
      "byteOffset": 1544544,
      "componentType": 5125,
      "count": 117096,
      "type": "SCALAR"
    },
    {
      "bufferView": 2,
      "byteOffset": 3085560,
      "componentType": 5126,
      "count": 65532,
      "max": [
        0.27819281816482544,
        0.23617257177829742,
        0.5802980661392212
      ],
      "min": [
        -0.3440920412540436,
        -0.31624290347099304,
        -0.243541419506073
      ],
      "type": "VEC3"
    },
    {
      "bufferView": 2,
      "byteOffset": 3871944,
      "componentType": 5126,
      "count": 65532,
      "max": [
        0.9999825954437256,
        0.8414113521575928,
        0.9996466636657715
      ],
      "min": [
        -0.9998736381530762,
        -0.9957460165023804,
        -0.9999944567680359
      ],
      "type": "VEC3"
    },
    {
      "bufferView": 3,
      "byteOffset": 1559712,
      "componentType": 5126,
      "count": 65532,
      "max": [
        0.9972476363182068,
        1.0,
        0.49508988857269287,
        1.0
      ],
      "min": [
        -0.9511530995368958,
        -0.9999844431877136,
        -0.5495057106018066,
        -1.0
      ],
      "type": "VEC4"
    },
    {
      "bufferView": 1,
      "byteOffset": 2836896,
      "componentType": 5126,
      "count": 65532,
      "max": [
        0.9030317068099976,
        0.7902058362960815
      ],
      "min": [
        0.04939870536327362,
        0.08649967610836029
      ],
      "type": "VEC2"
    },
    {
      "bufferView": 1,
      "byteOffset": 3361152,
      "componentType": 5126,
      "count": 65532,
      "max": [
        1.37039053440094,
        2.4183754920959473
      ],
      "min": [
        -0.8361525535583496,
        -1.557775855064392
      ],
      "type": "VEC2"
    },
    {
      "bufferView": 1,
      "byteOffset": 3885408,
      "componentType": 5126,
      "count": 65532,
      "max": [
        0.9030317068099976,
        0.7902058362960815
      ],
      "min": [
        0.04939870536327362,
        0.08649967610836029
      ],
      "type": "VEC2"
    },
    {
      "bufferView": 0,
      "byteOffset": 2012928,
      "componentType": 5125,
      "count": 261306,
      "type": "SCALAR"
    },
    {
      "bufferView": 2,
      "byteOffset": 4658328,
      "componentType": 5126,
      "count": 65532,
      "max": [
        0.07276250422000885,
        0.2655852138996124,
        0.5877046585083008
      ],
      "min": [
        -0.3597826063632965,
        -0.3899107873439789,
        -0.25754424929618835
      ],
      "type": "VEC3"
    },
    {
      "bufferView": 2,
      "byteOffset": 5444712,
      "componentType": 5126,
      "count": 65532,
      "max": [
        0.5711391568183899,
        0.8847399950027466,
        0.9821233749389648
      ],
      "min": [
        -0.99952232837677,
        -0.999972939491272,
        -0.868965208530426
      ],
      "type": "VEC3"
    },
    {
      "bufferView": 3,
      "byteOffset": 2608224,
      "componentType": 5126,
      "count": 65532,
      "max": [
        0.9999993443489075,
        0.5898624062538147,
        0.36592113971710205,
        1.0
      ],
      "min": [
        -0.8723411560058594,
        -0.9999997615814209,
        -0.5442560911178589,
        1.0
      ],
      "type": "VEC4"
    },
    {
      "bufferView": 1,
      "byteOffset": 4409664,
      "componentType": 5126,
      "count": 65532,
      "max": [
        0.973563551902771,
        0.7376784086227417
      ],
      "min": [
        0.5007773041725159,
        0.07352590560913086
      ],
      "type": "VEC2"
    },
    {
      "bufferView": 1,
      "byteOffset": 4933920,
      "componentType": 5126,
      "count": 65532,
      "max": [
        0.9892892241477966,
        0.6035721302032471
      ],
      "min": [
        0.5732812285423279,
        0.019179536029696465
      ],
      "type": "VEC2"
    },
    {
      "bufferView": 1,
      "byteOffset": 5458176,
      "componentType": 5126,
      "count": 65532,
      "max": [
        0.973563551902771,
        0.7376784086227417
      ],
      "min": [
        0.5007773041725159,
        0.07352590560913086
      ],
      "type": "VEC2"
    },
    {
      "bufferView": 0,
      "byteOffset": 3058152,
      "componentType": 5125,
      "count": 241953,
      "type": "SCALAR"
    },
    {
      "bufferView": 2,
      "byteOffset": 6231096,
      "componentType": 5126,
      "count": 65532,
      "max": [
        0.2900506556034088,
        0.342525839805603,
        0.7716144323348999
      ],
      "min": [
        -0.34439027309417725,
        -0.3633900582790375,
        -0.34082460403442383
      ],
      "type": "VEC3"
    },
    {
      "bufferView": 2,
      "byteOffset": 7017480,
      "componentType": 5126,
      "count": 65532,
      "max": [
        0.9999875426292419,
        0.9898329377174377,
        0.9997369050979614
      ],
      "min": [
        -0.9856355786323547,
        -0.95838862657547,
        -0.999881386756897
      ],
      "type": "VEC3"
    },
    {
      "bufferView": 3,
      "byteOffset": 3656736,
      "componentType": 5126,
      "count": 65532,
      "max": [
        0.9981637597084045,
        1.0,
        0.9999998211860657,
        1.0
      ],
      "min": [
        -0.9755452275276184,
        -0.9977033138275146,
        -0.8102878928184509,
        -1.0
      ],
      "type": "VEC4"
    },
    {
      "bufferView": 1,
      "byteOffset": 5982432,
      "componentType": 5126,
      "count": 65532,
      "max": [
        0.9198775291442871,
        0.9833128452301025
      ],
      "min": [
        0.022073807194828987,
        0.040015194565057755
      ],
      "type": "VEC2"
    },
    {
      "bufferView": 1,
      "byteOffset": 6506688,
      "componentType": 5126,
      "count": 65532,
      "max": [
        3.272862195968628,
        3.523026943206787
      ],
      "min": [
        -1.0873140096664429,
        -2.044232130050659
      ],
      "type": "VEC2"
    },
    {
      "bufferView": 1,
      "byteOffset": 7030944,
      "componentType": 5126,
      "count": 65532,
      "max": [
        0.9198775291442871,
        0.9833128452301025
      ],
      "min": [
        0.022073807194828987,
        0.040015194565057755
      ],
      "type": "VEC2"
    },
    {
      "bufferView": 0,
      "byteOffset": 4025964,
      "componentType": 5125,
      "count": 247296,
      "type": "SCALAR"
    },
    {
      "bufferView": 2,
      "byteOffset": 7803864,
      "componentType": 5126,
      "count": 31271,
      "max": [
        0.2746623158454895,
        0.27645376324653625,
        0.6716282963752747
      ],
      "min": [
        0.03462084010243416,
        -0.14267736673355103,
        -0.2875664234161377
      ],
      "type": "VEC3"
    },
    {
      "bufferView": 2,
      "byteOffset": 8179116,
      "componentType": 5126,
      "count": 31271,
      "max": [
        0.9999377131462097,
        0.8400399684906006,
        0.9998441338539124
      ],
      "min": [
        -0.9852465391159058,
        -0.7304984927177429,
        -0.9997950196266174
      ],
      "type": "VEC3"
    },
    {
      "bufferView": 3,
      "byteOffset": 4705248,
      "componentType": 5126,
      "count": 31271,
      "max": [
        0.13963346183300018,
        1.0,
        0.6336401104927063,
        1.0
      ],
      "min": [
        -0.9215630888938904,
        0.3761056661605835,
        -0.688309371471405,
        -1.0
      ],
      "type": "VEC4"
    },
    {
      "bufferView": 1,
      "byteOffset": 7555200,
      "componentType": 5126,
      "count": 31271,
      "max": [
        0.3577837347984314,
        0.9016661047935486
      ],
      "min": [
        0.06950618326663971,
        0.08419040590524673
      ],
      "type": "VEC2"
    },
    {
      "bufferView": 1,
      "byteOffset": 7805368,
      "componentType": 5126,
      "count": 31271,
      "max": [
        1.676918387413025,
        3.0180728435516357
      ],
      "min": [
        -0.7035815119743347,
        -1.7779006958007813
      ],
      "type": "VEC2"
    },
    {
      "bufferView": 1,
      "byteOffset": 8055536,
      "componentType": 5126,
      "count": 31271,
      "max": [
        0.3577837347984314,
        0.9016661047935486
      ],
      "min": [
        0.06950618326663971,
        0.08419040590524673
      ],
      "type": "VEC2"
    },
    {
      "bufferView": 0,
      "byteOffset": 5015148,
      "componentType": 5125,
      "count": 107553,
      "type": "SCALAR"
    },
    {
      "bufferView": 2,
      "byteOffset": 8554368,
      "componentType": 5126,
      "count": 7880,
      "max": [
        0.2231847047805786,
        0.2854628264904022,
        1.0457888841629028
      ],
      "min": [
        -0.3618220090866089,
        -0.34158778190612793,
        0.5623084902763367
      ],
      "type": "VEC3"
    },
    {
      "bufferView": 2,
      "byteOffset": 8648928,
      "componentType": 5126,
      "count": 7880,
      "max": [
        0.922378659248352,
        0.9906883835792542,
        0.9486647844314575
      ],
      "min": [
        -0.9573912024497986,
        -0.9408761858940125,
        -0.6151965260505676
      ],
      "type": "VEC3"
    },
    {
      "bufferView": 1,
      "byteOffset": 8305704,
      "componentType": 5126,
      "count": 7880,
      "max": [
        0.985569417476654,
        0.9741454720497131
      ],
      "min": [
        0.02238556183874607,
        0.7664213180541992
      ],
      "type": "VEC2"
    },
    {
      "bufferView": 1,
      "byteOffset": 8368744,
      "componentType": 5126,
      "count": 7880,
      "max": [
        0.985569417476654,
        0.9741454720497131
      ],
      "min": [
        0.02238556183874607,
        0.7664213180541992
      ],
      "type": "VEC2"
    },
    {
      "bufferView": 0,
      "byteOffset": 5445360,
      "componentType": 5125,
      "count": 30210,
      "type": "SCALAR"
    }
  ],
  "asset": {
    "extras": {
      "author": "Sergei (https://sketchfab.com/Sergogopowerrangers)",
      "license": "CC-BY-4.0 (http://creativecommons.org/licenses/by/4.0/)",
      "source": "https://sketchfab.com/3d-models/red-t-shirt-1ef69e8002874d2b95f81e8cc2180ef8",
      "title": "red t-Shirt"
    },
    "generator": "Sketchfab-16.15.0",
    "version": "2.0"
  },
  "bufferViews": [
    {
      "buffer": 0,
      "byteLength": 5566200,
      "name": "floatBufferViews",
      "target": 34963
    },
    {
      "buffer": 0,
      "byteLength": 8431784,
      "byteOffset": 5566200,
      "byteStride": 8,
      "name": "floatBufferViews",
      "target": 34962
    },
    {
      "buffer": 0,
      "byteLength": 8743488,
      "byteOffset": 13997984,
      "byteStride": 12,
      "name": "floatBufferViews",
      "target": 34962
    },
    {
      "buffer": 0,
      "byteLength": 5205584,
      "byteOffset": 22741472,
      "byteStride": 16,
      "name": "floatBufferViews",
      "target": 34962
    }
  ],
  "buffers": [
    {
      "byteLength": 27947056,
      "uri": "scene.bin"
    }
  ],
  "images": [
    {
      "uri": "textures/FABRIC_1_FRONT_3089567_baseColor.png"
    },
    {
      "uri": "textures/FABRIC_1_FRONT_3089567_metallicRoughness.png"
    },
    {
      "uri": "textures/FABRIC_1_FRONT_3089567_normal.png"
    },
    {
      "uri": "textures/FABRIC_2_FRONT_3542603_baseColor.png"
    }
  ],
  "materials": [
    {
      "doubleSided": true,
      "name": "FABRIC_1_FRONT_3089567",
      "normalTexture": {
        "index": 2
      },
      "pbrMetallicRoughness": {
        "baseColorTexture": {
          "index": 0
        },
        "metallicFactor": 0.0,
        "metallicRoughnessTexture": {
          "index": 1
        }
      }
    },
    {
      "doubleSided": true,
      "name": "FABRIC_2_FRONT_3542603",
      "pbrMetallicRoughness": {
        "baseColorTexture": {
          "index": 3
        },
        "metallicFactor": 0.0
      }
    },
    {
      "doubleSided": true,
      "name": "FABRIC_3_FRONT_4641753",
      "normalTexture": {
        "index": 2
      },
      "pbrMetallicRoughness": {
        "baseColorFactor": [
          1.0,
          0.0,
          0.0009274980000000258,
          1.0
        ],
        "metallicFactor": 0.0,
        "metallicRoughnessTexture": {
          "index": 1
        }
      }
    },
    {
      "doubleSided": true,
      "name": "Material.001",
      "pbrMetallicRoughness": {
        "baseColorFactor": [
          0.0,
          0.0,
          0.0,
          1.0
        ],
        "metallicFactor": 0.0
      }
    }
  ],
  "meshes": [
    {
      "name": "red dress_FABRIC 1_FRONT_3089567_0",
      "primitives": [
        {
          "attributes": {
            "NORMAL": 1,
            "POSITION": 0,
            "TANGENT": 2,
            "TEXCOORD_0": 3,
            "TEXCOORD_1": 4,
            "TEXCOORD_2": 5
          },
          "indices": 6,
          "material": 0,
          "mode": 4
        }
      ]
    },
    {
      "name": "red dress_FABRIC 1_FRONT_3089567_0",
      "primitives": [
        {
          "attributes": {
            "NORMAL": 8,
            "POSITION": 7,
            "TANGENT": 9,
            "TEXCOORD_0": 10,
            "TEXCOORD_1": 11,
            "TEXCOORD_2": 12
          },
          "indices": 13,
          "material": 0,
          "mode": 4
        }
      ]
    },
    {
      "name": "red dress.001_FABRIC 2_FRONT_3542603_0",
      "primitives": [
        {
          "attributes": {
            "NORMAL": 15,
            "POSITION": 14,
            "TEXCOORD_0": 16,
            "TEXCOORD_1": 17
          },
          "indices": 18,
          "material": 1,
          "mode": 4
        }
      ]
    },
    {
      "name": "red dress.002_FABRIC 3_FRONT_4641753_0",
      "primitives": [
        {
          "attributes": {
            "NORMAL": 20,
            "POSITION": 19,
            "TANGENT": 21,
            "TEXCOORD_0": 22,
            "TEXCOORD_1": 23,
            "TEXCOORD_2": 24
          },
          "indices": 25,
          "material": 2,
          "mode": 4
        }
      ]
    },
    {
      "name": "red dress.002_FABRIC 3_FRONT_4641753_0",
      "primitives": [
        {
          "attributes": {
            "NORMAL": 27,
            "POSITION": 26,
            "TANGENT": 28,
            "TEXCOORD_0": 29,
            "TEXCOORD_1": 30,
            "TEXCOORD_2": 31
          },
          "indices": 32,
          "material": 2,
          "mode": 4
        }
      ]
    },
    {
      "name": "red dress.002_FABRIC 3_FRONT_4641753_0",
      "primitives": [
        {
          "attributes": {
            "NORMAL": 34,
            "POSITION": 33,
            "TANGENT": 35,
            "TEXCOORD_0": 36,
            "TEXCOORD_1": 37,
            "TEXCOORD_2": 38
          },
          "indices": 39,
          "material": 2,
          "mode": 4
        }
      ]
    },
    {
      "name": "red dress.002_FABRIC 3_FRONT_4641753_0",
      "primitives": [
        {
          "attributes": {
            "NORMAL": 41,
            "POSITION": 40,
            "TANGENT": 42,
            "TEXCOORD_0": 43,
            "TEXCOORD_1": 44,
            "TEXCOORD_2": 45
          },
          "indices": 46,
          "material": 2,
          "mode": 4
        }
      ]
    },
    {
      "name": "red dress.003_Material.001_0",
      "primitives": [
        {
          "attributes": {
            "NORMAL": 48,
            "POSITION": 47,
            "TEXCOORD_0": 49,
            "TEXCOORD_1": 50
          },
          "indices": 51,
          "material": 3,
          "mode": 4
        }
      ]
    }
  ],
  "nodes": [
    {
      "children": [
        1
      ],
      "matrix": [
        1.0,
        0.0,
        0.0,
        0.0,
        0.0,
        2.220446049250313e-16,
        -1.0,
        0.0,
        0.0,
        1.0,
        2.220446049250313e-16,
        0.0,
        0.0,
        0.0,
        0.0,
        1.0
      ],
      "name": "Sketchfab_model"
    },
    {
      "children": [
        2
      ],
      "matrix": [
        0.009999999776482582,
        0.0,
        0.0,
        0.0,
        0.0,
        0.0,
        0.009999999776482582,
        0.0,
        0.0,
        -0.009999999776482582,
        0.0,
        0.0,
        0.0,
        0.0,
        0.0,
        1.0
      ],
      "name": "31e49f954dda40e7a4e904f4d7d8819f.fbx"
    },
    {
      "children": [
        3,
        6,
        8,
        13
      ],
      "name": "RootNode"
    },
    {
      "children": [
        4,
        5
      ],
      "matrix": [
        100.0,
        0.0,
        0.0,
        0.0,
        0.0,
        -1.629206793918314e-05,
        -99.99999999999868,
        0.0,
        0.0,
        99.99999999999868,
        -1.629206793918314e-05,
        0.0,
        0.0,
        0.0,
        0.0,
        1.0
      ],
      "name": "red dress"
    },
    {
      "mesh": 0,
      "name": "red dress_FABRIC 1_FRONT_3089567_0"
    },
    {
      "mesh": 1,
      "name": "red dress_FABRIC 1_FRONT_3089567_0"
    },
    {
      "children": [
        7
      ],
      "matrix": [
        100.0,
        0.0,
        0.0,
        0.0,
        0.0,
        -1.629206793918314e-05,
        -99.99999999999868,
        0.0,
        0.0,
        99.99999999999868,
        -1.629206793918314e-05,
        0.0,
        0.0,
        0.0,
        0.0,
        1.0
      ],
      "name": "red dress.001"
    },
    {
      "mesh": 2,
      "name": "red dress.001_FABRIC 2_FRONT_3542603_0"
    },
    {
      "children": [
        9,
        10,
        11,
        12
      ],
      "matrix": [
        100.0,
        0.0,
        0.0,
        0.0,
        0.0,
        -1.629206793918314e-05,
        -99.99999999999868,
        0.0,
        0.0,
        99.99999999999868,
        -1.629206793918314e-05,
        0.0,
        0.0,
        0.0,
        0.0,
        1.0
      ],
      "name": "red dress.002"
    },
    {
      "mesh": 3,
      "name": "red dress.002_FABRIC 3_FRONT_4641753_0"
    },
    {
      "mesh": 4,
      "name": "red dress.002_FABRIC 3_FRONT_4641753_0"
    },
    {
      "mesh": 5,
      "name": "red dress.002_FABRIC 3_FRONT_4641753_0"
    },
    {
      "mesh": 6,
      "name": "red dress.002_FABRIC 3_FRONT_4641753_0"
    },
    {
      "children": [
        14
      ],
      "matrix": [
        100.0,
        0.0,
        0.0,
        0.0,
        0.0,
        -1.629206793918314e-05,
        -99.99999999999868,
        0.0,
        0.0,
        99.99999999999868,
        -1.629206793918314e-05,
        0.0,
        0.0,
        0.0,
        0.0,
        1.0
      ],
      "name": "red dress.003"
    },
    {
      "mesh": 7,
      "name": "red dress.003_Material.001_0"
    }
  ],
  "samplers": [
    {
      "magFilter": 9729,
      "minFilter": 9987,
      "wrapS": 10497,
      "wrapT": 10497
    }
  ],
  "scene": 0,
  "scenes": [
    {
      "name": "Sketchfab_Scene",
      "nodes": [
        0
      ]
    }
  ],
  "textures": [
    {
      "sampler": 0,
      "source": 0
    },
    {
      "sampler": 0,
      "source": 1
    },
    {
      "sampler": 0,
      "source": 2
    },
    {
      "sampler": 0,
      "source": 3
    }
  ]
}
