{
  "accessors": [
    {
      "bufferView": 2,
      "componentType": 5126,
      "count": 3052,
      "max": [
        0.2888050079345703,
        0.015627000480890274,
        1.4730240106582642
      ],
      "min": [
        -0.055080998688936234,
        -0.14368699491024017,
        1.0031189918518066
      ],
      "type": "VEC3"
    },
    {
      "bufferView": 2,
      "byteOffset": 36624,
      "componentType": 5126,
      "count": 3052,
      "max": [
        0.9997894167900085,
        0.9987307190895081,
        0.9997650980949402
      ],
      "min": [
        -0.9998286366462708,
        -0.998860239982605,
        -0.9998542070388794
      ],
      "type": "VEC3"
    },
    {
      "bufferView": 1,
      "componentType": 5126,
      "count": 3052,
      "max": [
        0.33824801445007324,
        0.03175099939107895
      ],
      "min": [
        0.0,
        -9.7999996796716e-05
      ],
      "type": "VEC2"
    },
    {
      "bufferView": 0,
      "componentType": 5125,
      "count": 13488,
      "type": "SCALAR"
    },
    {
      "bufferView": 2,
      "byteOffset": 73248,
      "componentType": 5126,
      "count": 1538,
      "max": [
        -0.2772679924964905,
        0.07722800225019455,
        1.508965015411377
      ],
      "min": [
        -0.2990089952945709,
        0.05999099835753441,
        1.4856599569320679
      ],
      "type": "VEC3"
    },
    {
      "bufferView": 2,
      "byteOffset": 91704,
      "componentType": 5126,
      "count": 1538,
      "max": [
        0.992205798625946,
        0.9970420598983765,
        0.9984402060508728
      ],
      "min": [
        -0.9926987886428833,
        -0.9982975125312805,
        -0.9878289699554443
      ],
      "type": "VEC3"
    },
    {
      "bufferView": 1,
      "byteOffset": 24416,
      "componentType": 5126,
      "count": 1538,
      "max": [
        0.33824801445007324,
        0.021529000252485275
      ],
      "min": [
        0.0,
        -9.7999996796716e-05
      ],
      "type": "VEC2"
    },
    {
      "bufferView": 0,
      "byteOffset": 53952,
      "componentType": 5125,
      "count": 6744,
      "type": "SCALAR"
    },
    {
      "bufferView": 2,
      "byteOffset": 110160,
      "componentType": 5126,
      "count": 4968,
      "max": [
        0.6256570219993591,
        0.23673099279403687,
        1.6568100452423096
      ],
      "min": [
        -0.6271070241928101,
        -0.15246999263763428,
        0.9562039971351624
      ],
      "type": "VEC3"
    },
    {
      "bufferView": 2,
      "byteOffset": 169776,
      "componentType": 5126,
      "count": 4968,
      "max": [
        0.9999303817749023,
        0.9998544454574585,
        0.9862152338027954
      ],
      "min": [
        -0.9999973773956299,
        -0.9997720122337341,
        -0.9999721050262451
      ],
      "type": "VEC3"
    },
    {
      "bufferView": 3,
      "componentType": 5126,
      "count": 4968,
      "max": [
        0.9999710917472839,
        0.999990701675415,
        0.9998140335083008,
        1.0
      ],
      "min": [
        -0.9998835921287537,
        -0.9999054670333862,
        -0.9999710917472839,
        1.0
      ],
      "type": "VEC4"
    },
    {
      "bufferView": 1,
      "byteOffset": 36720,
      "componentType": 5126,
      "count": 4968,
      "max": [
        0.9977440237998962,
        0.9933720231056213
      ],
      "min": [
        0.0022559999488294125,
        0.0022559999488294125
      ],
      "type": "VEC2"
    },
    {
      "bufferView": 0,
      "byteOffset": 80928,
      "componentType": 5125,
      "count": 26982,
      "type": "SCALAR"
    }
  ],
  "asset": {
    "extras": {
      "author": "dejan31 (https://sketchfab.com/dejan31)",
      "license": "CC-BY-4.0 (http://creativecommons.org/licenses/by/4.0/)",
      "source": "https://sketchfab.com/3d-models/leather-jacket-44b99962eaf945a3b63b5b3afcebef31",
      "title": "Leather Jacket"
    },
    "generator": "Sketchfab-14.15.0",
    "version": "2.0"
  },
  "bufferViews": [
    {
      "buffer": 0,
      "byteLength": 188856,
      "name": "floatBufferViews",
      "target": 34963
    },
    {
      "buffer": 0,
      "byteLength": 76464,
      "byteOffset": 188856,
      "byteStride": 8,
      "name": "floatBufferViews",
      "target": 34962
    },
    {
      "buffer": 0,
      "byteLength": 229392,
      "byteOffset": 265320,
      "byteStride": 12,
      "name": "floatBufferViews",
      "target": 34962
    },
    {
      "buffer": 0,
      "byteLength": 79488,
      "byteOffset": 494712,
      "byteStride": 16,
      "name": "floatBufferViews",
      "target": 34962
    }
  ],
  "buffers": [
    {
      "byteLength": 574200,
      "uri": "scene.bin"
    }
  ],
  "images": [
    {
      "uri": "textures/defaultMat_baseColor.png"
    },
    {
      "uri": "textures/defaultMat_metallicRoughness.png"
    },
    {
      "uri": "textures/defaultMat_normal.png"
    }
  ],
  "materials": [
    {
      "doubleSided": true,
      "name": "005-0-5",
      "pbrMetallicRoughness": {
        "metallicFactor": 0.0,
        "roughnessFactor": 0.6
      }
    },
    {
      "doubleSided": true,
      "name": "005-0-5.001",
      "pbrMetallicRoughness": {
        "metallicFactor": 0.0,
        "roughnessFactor": 0.6
      }
    },
    {
      "doubleSided": true,
      "name": "defaultMat",
      "normalTexture": {
        "index": 2
      },
      "pbrMetallicRoughness": {
        "baseColorTexture": {
          "index": 0
        },
        "metallicRoughnessTexture": {
          "index": 1
        }
      }
    }
  ],
  "meshes": [
    {
      "name": "Object_0",
      "primitives": [
        {
          "attributes": {
            "NORMAL": 1,
            "POSITION": 0,
            "TEXCOORD_0": 2
          },
          "indices": 3,
          "material": 0,
          "mode": 4
        }
      ]
    },
    {
      "name": "Object_1",
      "primitives": [
        {
          "attributes": {
            "NORMAL": 5,
            "POSITION": 4,
            "TEXCOORD_0": 6
          },
          "indices": 7,
          "material": 1,
          "mode": 4
        }
      ]
    },
    {
      "name": "Object_2",
      "primitives": [
        {
          "attributes": {
            "NORMAL": 9,
            "POSITION": 8,
            "TANGENT": 10,
            "TEXCOORD_0": 11
          },
          "indices": 12,
          "material": 2,
          "mode": 4
        }
      ]
    }
  ],
  "nodes": [
    {
      "children": [
        1
      ],
      "matrix": [
        1.0,
        0.0,
        0.0,
        0.0,
        0.0,
        2.220446049250313e-16,
        -1.0,
        0.0,
        0.0,
        1.0,
        2.220446049250313e-16,
        0.0,
        0.0,
        0.0,
        0.0,
        1.0
      ],
      "name": "Sketchfab_model"
    },
    {
      "children": [
        2,
        3,
        4
      ],
      "name": "Leather-top.obj.cleaner.materialmerger.gles"
    },
    {
      "mesh": 0,
      "name": "Object_2"
    },
    {
      "mesh": 1,
      "name": "Object_3"
    },
    {
      "mesh": 2,
      "name": "Object_4"
    }
  ],
  "samplers": [
    {
      "magFilter": 9729,
      "minFilter": 9987,
      "wrapS": 10497,
      "wrapT": 10497
    }
  ],
  "scene": 0,
  "scenes": [
    {
      "name": "Sketchfab_Scene",
      "nodes": [
        0
      ]
    }
  ],
  "textures": [
    {
      "sampler": 0,
      "source": 0
    },
    {
      "sampler": 0,
      "source": 1
    },
    {
      "sampler": 0,
      "source": 2
    }
  ]
}
