{
  "accessors": [
    {
      "bufferView": 2,
      "componentType": 5126,
      "count": 4875,
      "max": [
        0.43306684494018555,
        0.14090752601623535,
        0.29493170976638794
      ],
      "min": [
        -0.4422379732131958,
        -0.15059128403663635,
        -0.3350442349910736
      ],
      "type": "VEC3"
    },
    {
      "bufferView": 2,
      "byteOffset": 58500,
      "componentType": 5126,
      "count": 4875,
      "max": [
        0.999737560749054,
        0.999940812587738,
        0.9998940229415894
      ],
      "min": [
        -0.999955415725708,
        -0.9999707937240601,
        -0.998841404914856
      ],
      "type": "VEC3"
    },
    {
      "bufferView": 3,
      "componentType": 5126,
      "count": 4875,
      "max": [
        0.9971829056739807,
        0.9998646378517151,
        0.9972659945487976,
        1.0
      ],
      "min": [
        -0.9986787438392639,
        -0.9998878836631775,
        -0.9992254376411438,
        -1.0
      ],
      "type": "VEC4"
    },
    {
      "bufferView": 1,
      "componentType": 5126,
      "count": 4875,
      "max": [
        0.9779534935951233,
        1.0
      ],
      "min": [
        -6.454224177332435e-08,
        -3.5787994789870936e-09
      ],
      "type": "VEC2"
    },
    {
      "bufferView": 0,
      "componentType": 5125,
      "count": 22170,
      "type": "SCALAR"
    }
  ],
  "asset": {
    "extras": {
      "author": "EvanLegrand (https://sketchfab.com/evan4129)",
      "license": "CC-BY-4.0 (http://creativecommons.org/licenses/by/4.0/)",
      "source": "https://sketchfab.com/3d-models/green-shirt-hood-scan-medpoly-9fccc398a0744d88be6634e0aeb2ec52",
      "title": "Green Shirt Hood Scan MEDPOLY"
    },
    "generator": "Sketchfab-15.61.0",
    "version": "2.0"
  },
  "bufferViews": [
    {
      "buffer": 0,
      "byteLength": 88680,
      "name": "floatBufferViews",
      "target": 34963
    },
    {
      "buffer": 0,
      "byteLength": 39000,
      "byteOffset": 88680,
      "byteStride": 8,
      "name": "floatBufferViews",
      "target": 34962
    },
    {
      "buffer": 0,
      "byteLength": 117000,
      "byteOffset": 127680,
      "byteStride": 12,
      "name": "floatBufferViews",
      "target": 34962
    },
    {
      "buffer": 0,
      "byteLength": 78000,
      "byteOffset": 244680,
      "byteStride": 16,
      "name": "floatBufferViews",
      "target": 34962
    }
  ],
  "buffers": [
    {
      "byteLength": 322680,
      "uri": "scene.bin"
    }
  ],
  "images": [
    {
      "uri": "textures/GreenAndHoodie_baseColor.png"
    },
    {
      "uri": "textures/GreenAndHoodie_normal.png"
    }
  ],
  "materials": [
    {
      "doubleSided": true,
      "name": "GreenAndHoodie",
      "normalTexture": {
        "index": 1
      },
      "pbrMetallicRoughness": {
        "baseColorTexture": {
          "index": 0
        },
        "metallicFactor": 0.0
      }
    }
  ],
  "meshes": [
    {
      "name": "GreenandHoodie_GreenAndHoodie_0",
      "primitives": [
        {
          "attributes": {
            "NORMAL": 1,
            "POSITION": 0,
            "TANGENT": 2,
            "TEXCOORD_0": 3
          },
          "indices": 4,
          "material": 0,
          "mode": 4
        }
      ]
    }
  ],
  "nodes": [
    {
      "children": [
        1
      ],
      "matrix": [
        1.0,
        0.0,
        0.0,
        0.0,
        0.0,
        2.220446049250313e-16,
        -1.0,
        0.0,
        0.0,
        1.0,
        2.220446049250313e-16,
        0.0,
        0.0,
        0.0,
        0.0,
        1.0
      ],
      "name": "Sketchfab_model"
    },
    {
      "children": [
        2
      ],
      "matrix": [
        0.009999999776482582,
        0.0,
        0.0,
        0.0,
        0.0,
        0.0,
        0.009999999776482582,
        0.0,
        0.0,
        -0.009999999776482582,
        0.0,
        0.0,
        0.0,
        0.0,
        0.0,
        1.0
      ],
      "name": "GreenShirtHoodMEDPOLY.fbx"
    },
    {
      "children": [
        3
      ],
      "name": "RootNode"
    },
    {
      "children": [
        4
      ],
      "matrix": [
        100.0,
        0.0,
        0.0,
        0.0,
        0.0,
        -1.629206793918314e-05,
        -99.99999999999868,
        0.0,
        0.0,
        99.99999999999868,
        -1.629206793918314e-05,
        0.0,
        213.14756774902344,
        -29.479339599609375,
        -8.95833969116211,
        1.0
      ],
      "name": "GreenandHoodie"
    },
    {
      "mesh": 0,
      "name": "GreenandHoodie_GreenAndHoodie_0"
    }
  ],
  "samplers": [
    {
      "magFilter": 9729,
      "minFilter": 9987,
      "wrapS": 10497,
      "wrapT": 10497
    }
  ],
  "scene": 0,
  "scenes": [
    {
      "name": "Sketchfab_Scene",
      "nodes": [
        0
      ]
    }
  ],
  "textures": [
    {
      "sampler": 0,
      "source": 0
    },
    {
      "sampler": 0,
      "source": 1
    }
  ]
}
