{
  "accessors": [
    {
      "bufferView": 2,
      "componentType": 5126,
      "count": 1075,
      "max": [
        0.3553711473941803,
        0.0933796837925911,
        0.41466477513313293
      ],
      "min": [
        -0.3162681460380554,
        -0.1126418262720108,
        -0.42609843611717224
      ],
      "type": "VEC3"
    },
    {
      "bufferView": 2,
      "byteOffset": 12900,
      "componentType": 5126,
      "count": 1075,
      "max": [
        0.9999582767486572,
        0.9999463558197021,
        0.9999963641166687
      ],
      "min": [
        -0.9999922513961792,
        -0.9999463558197021,
        -0.999969482421875
      ],
      "type": "VEC3"
    },
    {
      "bufferView": 1,
      "componentType": 5126,
      "count": 1075,
      "max": [
        0.9998264312744141,
        0.9996181726455688
      ],
      "min": [
        0.00037452782271429896,
        0.00019818544387817383
      ],
      "type": "VEC2"
    },
    {
      "bufferView": 1,
      "byteOffset": 8600,
      "componentType": 5126,
      "count": 1075,
      "max": [
        0.9998264312744141,
        0.9996181726455688
      ],
      "min": [
        0.00037452782271429896,
        0.00019818544387817383
      ],
      "type": "VEC2"
    },
    {
      "bufferView": 1,
      "byteOffset": 17200,
      "componentType": 5126,
      "count": 1075,
      "max": [
        0.9998264312744141,
        0.9996181726455688
      ],
      "min": [
        0.00037452782271429896,
        0.00019818544387817383
      ],
      "type": "VEC2"
    },
    {
      "bufferView": 0,
      "componentType": 5125,
      "count": 2115,
      "type": "SCALAR"
    },
    {
      "bufferView": 2,
      "byteOffset": 25800,
      "componentType": 5126,
      "count": 65532,
      "max": [
        0.3638758659362793,
        0.09285766631364822,
        0.2974439859390259
      ],
      "min": [
        -0.3254444897174835,
        -0.12061687558889389,
        -0.4999528229236603
      ],
      "type": "VEC3"
    },
    {
      "bufferView": 2,
      "byteOffset": 812184,
      "componentType": 5126,
      "count": 65532,
      "max": [
        0.9999977946281433,
        0.9999997615814209,
        0.9996863603591919
      ],
      "min": [
        -0.9999940395355225,
        -0.9999987483024597,
        -0.9999679327011108
      ],
      "type": "VEC3"
    },
    {
      "bufferView": 1,
      "byteOffset": 25800,
      "componentType": 5126,
      "count": 65532,
      "max": [
        1.0,
        1.0
      ],
      "min": [
        0.0,
        0.1654157042503357
      ],
      "type": "VEC2"
    },
    {
      "bufferView": 0,
      "byteOffset": 8460,
      "componentType": 5125,
      "count": 339594,
      "type": "SCALAR"
    },
    {
      "bufferView": 2,
      "byteOffset": 1598568,
      "componentType": 5126,
      "count": 65532,
      "max": [
        0.23396341502666473,
        0.09376931935548782,
        0.3741164207458496
      ],
      "min": [
        -0.32008010149002075,
        -0.1219291165471077,
        -0.478670209646225
      ],
      "type": "VEC3"
    },
    {
      "bufferView": 2,
      "byteOffset": 2384952,
      "componentType": 5126,
      "count": 65532,
      "max": [
        0.9999992847442627,
        0.9999988675117493,
        0.999951958656311
      ],
      "min": [
        -0.9999896287918091,
        -0.9999966025352478,
        -0.9999116659164429
      ],
      "type": "VEC3"
    },
    {
      "bufferView": 1,
      "byteOffset": 550056,
      "componentType": 5126,
      "count": 65532,
      "max": [
        0.8116715550422668,
        0.9739252328872681
      ],
      "min": [
        0.007729232311248779,
        0.0883631706237793
      ],
      "type": "VEC2"
    },
    {
      "bufferView": 0,
      "byteOffset": 1366836,
      "componentType": 5125,
      "count": 321096,
      "type": "SCALAR"
    },
    {
      "bufferView": 2,
      "byteOffset": 3171336,
      "componentType": 5126,
      "count": 65532,
      "max": [
        0.21105055510997772,
        0.12191271781921387,
        0.4006003737449646
      ],
      "min": [
        -0.19416838884353638,
        -0.11900903284549713,
        -0.431613951921463
      ],
      "type": "VEC3"
    },
    {
      "bufferView": 2,
      "byteOffset": 3957720,
      "componentType": 5126,
      "count": 65532,
      "max": [
        0.9999937415122986,
        0.9999973177909851,
        0.9999293684959412
      ],
      "min": [
        -0.99996018409729,
        -0.9999998807907104,
        -0.9999826550483704
      ],
      "type": "VEC3"
    },
    {
      "bufferView": 1,
      "byteOffset": 1074312,
      "componentType": 5126,
      "count": 65532,
      "max": [
        0.778641939163208,
        0.9304786920547485
      ],
      "min": [
        0.19012758135795593,
        0.05932426452636719
      ],
      "type": "VEC2"
    },
    {
      "bufferView": 0,
      "byteOffset": 2651220,
      "componentType": 5125,
      "count": 313548,
      "type": "SCALAR"
    },
    {
      "bufferView": 2,
      "byteOffset": 4744104,
      "componentType": 5126,
      "count": 65532,
      "max": [
        0.16423852741718292,
        0.12191271781921387,
        0.45058611035346985
      ],
      "min": [
        -0.28544753789901733,
        -0.12130947411060333,
        -0.42985349893569946
      ],
      "type": "VEC3"
    },
    {
      "bufferView": 2,
      "byteOffset": 5530488,
      "componentType": 5126,
      "count": 65532,
      "max": [
        0.9999914765357971,
        0.9999992251396179,
        0.9999983906745911
      ],
      "min": [
        -0.9999809861183167,
        -0.9999995827674866,
        -0.9999969005584717
      ],
      "type": "VEC3"
    },
    {
      "bufferView": 1,
      "byteOffset": 1598568,
      "componentType": 5126,
      "count": 65532,
      "max": [
        0.710884690284729,
        0.929633378982544
      ],
      "min": [
        0.05819222331047058,
        0.0
      ],
      "type": "VEC2"
    },
    {
      "bufferView": 0,
      "byteOffset": 3905412,
      "componentType": 5125,
      "count": 285324,
      "type": "SCALAR"
    },
    {
      "bufferView": 2,
      "byteOffset": 6316872,
      "componentType": 5126,
      "count": 62653,
      "max": [
        0.0282424483448267,
        0.12190478295087814,
        0.4504123628139496
      ],
      "min": [
        -0.3245900273323059,
        -0.11949535459280014,
        -0.4995248317718506
      ],
      "type": "VEC3"
    },
    {
      "bufferView": 2,
      "byteOffset": 7068708,
      "componentType": 5126,
      "count": 62653,
      "max": [
        0.9999945163726807,
        0.9999991059303284,
        0.9999983906745911
      ],
      "min": [
        -0.999997615814209,
        -0.9999992847442627,
        -0.9999912977218628
      ],
      "type": "VEC3"
    },
    {
      "bufferView": 1,
      "byteOffset": 2122824,
      "componentType": 5126,
      "count": 62653,
      "max": [
        0.5137895345687866,
        1.0
      ],
      "min": [
        0.0012766718864440918,
        0.00036531686782836914
      ],
      "type": "VEC2"
    },
    {
      "bufferView": 0,
      "byteOffset": 5046708,
      "componentType": 5125,
      "count": 226959,
      "type": "SCALAR"
    },
    {
      "bufferView": 2,
      "byteOffset": 7820544,
      "componentType": 5126,
      "count": 868,
      "max": [
        0.1991506814956665,
        0.0011895634233951569,
        0.46225422620773315
      ],
      "min": [
        -0.1699376106262207,
        -0.009778011590242386,
        0.26003819704055786
      ],
      "type": "VEC3"
    },
    {
      "bufferView": 2,
      "byteOffset": 7830960,
      "componentType": 5126,
      "count": 868,
      "max": [
        0.9996283054351807,
        1.0,
        1.0
      ],
      "min": [
        -0.9968708157539368,
        -1.0,
        -1.0
      ],
      "type": "VEC3"
    },
    {
      "bufferView": 1,
      "byteOffset": 2624048,
      "componentType": 5126,
      "count": 868,
      "max": [
        0.6414662003517151,
        0.998046875
      ],
      "min": [
        0.001953125,
        0.001953125
      ],
      "type": "VEC2"
    },
    {
      "bufferView": 1,
      "byteOffset": 2630992,
      "componentType": 5126,
      "count": 868,
      "max": [
        0.6414662003517151,
        0.998046875
      ],
      "min": [
        0.001953125,
        0.001953125
      ],
      "type": "VEC2"
    },
    {
      "bufferView": 1,
      "byteOffset": 2637936,
      "componentType": 5126,
      "count": 868,
      "max": [
        0.6414662003517151,
        0.998046875
      ],
      "min": [
        0.001953125,
        0.001953125
      ],
      "type": "VEC2"
    },
    {
      "bufferView": 0,
      "byteOffset": 5954544,
      "componentType": 5125,
      "count": 3384,
      "type": "SCALAR"
    },
    {
      "bufferView": 2,
      "byteOffset": 7841376,
      "componentType": 5126,
      "count": 592,
      "max": [
        0.022664546966552734,
        -0.00934166181832552,
        0.388453871011734
      ],
      "min": [
        0.006512032356113195,
        -0.010514852590858936,
        0.38049954175949097
      ],
      "type": "VEC3"
    },
    {
      "bufferView": 2,
      "byteOffset": 7848480,
      "componentType": 5126,
      "count": 592,
      "max": [
        0.9788030982017517,
        1.0,
        0.9999917149543762
      ],
      "min": [
        -1.0,
        -1.0,
        -0.999997079372406
      ],
      "type": "VEC3"
    },
    {
      "bufferView": 1,
      "byteOffset": 2644880,
      "componentType": 5126,
      "count": 592,
      "max": [
        1.0,
        1.0
      ],
      "min": [
        0.0,
        0.0
      ],
      "type": "VEC2"
    },
    {
      "bufferView": 1,
      "byteOffset": 2649616,
      "componentType": 5126,
      "count": 592,
      "max": [
        1.0,
        1.0
      ],
      "min": [
        0.0,
        0.0
      ],
      "type": "VEC2"
    },
    {
      "bufferView": 1,
      "byteOffset": 2654352,
      "componentType": 5126,
      "count": 592,
      "max": [
        1.0,
        1.0
      ],
      "min": [
        0.0,
        0.0
      ],
      "type": "VEC2"
    },
    {
      "bufferView": 0,
      "byteOffset": 5968080,
      "componentType": 5125,
      "count": 1716,
      "type": "SCALAR"
    },
    {
      "bufferView": 2,
      "byteOffset": 7855584,
      "componentType": 5126,
      "count": 1672,
      "max": [
        0.028774600476026535,
        -0.00934166181832552,
        0.38522836565971375
      ],
      "min": [
        0.00936345849186182,
        -0.01051485724747181,
        0.3605489432811737
      ],
      "type": "VEC3"
    },
    {
      "bufferView": 2,
      "byteOffset": 7875648,
      "componentType": 5126,
      "count": 1672,
      "max": [
        0.9999545216560364,
        1.0,
        0.9999996423721313
      ],
      "min": [
        -1.0,
        -1.0,
        -1.0
      ],
      "type": "VEC3"
    },
    {
      "bufferView": 1,
      "byteOffset": 2659088,
      "componentType": 5126,
      "count": 1672,
      "max": [
        1.0,
        1.0
      ],
      "min": [
        0.0,
        0.0
      ],
      "type": "VEC2"
    },
    {
      "bufferView": 1,
      "byteOffset": 2672464,
      "componentType": 5126,
      "count": 1672,
      "max": [
        1.0,
        1.0
      ],
      "min": [
        0.0,
        0.0
      ],
      "type": "VEC2"
    },
    {
      "bufferView": 1,
      "byteOffset": 2685840,
      "componentType": 5126,
      "count": 1672,
      "max": [
        1.0,
        1.0
      ],
      "min": [
        0.0,
        0.0
      ],
      "type": "VEC2"
    },
    {
      "bufferView": 0,
      "byteOffset": 5974944,
      "componentType": 5125,
      "count": 4884,
      "type": "SCALAR"
    },
    {
      "bufferView": 2,
      "byteOffset": 7895712,
      "componentType": 5126,
      "count": 1010,
      "max": [
        0.008857718668878078,
        -0.009341662749648094,
        0.38478589057922363
      ],
      "min": [
        0.0008000537054613233,
        -0.01051485724747181,
        0.36282822489738464
      ],
      "type": "VEC3"
    },
    {
      "bufferView": 2,
      "byteOffset": 7907832,
      "componentType": 5126,
      "count": 1010,
      "max": [
        1.0,
        1.0,
        0.9999801516532898
      ],
      "min": [
        -0.9999994039535522,
        -1.0,
        -0.9998205900192261
      ],
      "type": "VEC3"
    },
    {
      "bufferView": 1,
      "byteOffset": 2699216,
      "componentType": 5126,
      "count": 1010,
      "max": [
        1.0,
        1.0
      ],
      "min": [
        0.0,
        0.0
      ],
      "type": "VEC2"
    },
    {
      "bufferView": 1,
      "byteOffset": 2707296,
      "componentType": 5126,
      "count": 1010,
      "max": [
        1.0,
        1.0
      ],
      "min": [
        0.0,
        0.0
      ],
      "type": "VEC2"
    },
    {
      "bufferView": 1,
      "byteOffset": 2715376,
      "componentType": 5126,
      "count": 1010,
      "max": [
        1.0,
        1.0
      ],
      "min": [
        0.0,
        0.0
      ],
      "type": "VEC2"
    },
    {
      "bufferView": 0,
      "byteOffset": 5994480,
      "componentType": 5125,
      "count": 3012,
      "type": "SCALAR"
    }
  ],
  "asset": {
    "extras": {
      "author": "vmmaniac (https://sketchfab.com/vmmaniac)",
      "license": "CC-BY-4.0 (http://creativecommons.org/licenses/by/4.0/)",
      "source": "https://sketchfab.com/3d-models/hoodie--6-a7acea74a03a4c2c90d31bd5b6ca8cfd",
      "title": "HOODIE _6"
    },
    "generator": "Sketchfab-16.62.0",
    "version": "2.0"
  },
  "bufferViews": [
    {
      "buffer": 0,
      "byteLength": 6006528,
      "name": "floatBufferViews",
      "target": 34963
    },
    {
      "buffer": 0,
      "byteLength": 2723456,
      "byteOffset": 6006528,
      "byteStride": 8,
      "name": "floatBufferViews",
      "target": 34962
    },
    {
      "buffer": 0,
      "byteLength": 7919952,
      "byteOffset": 8729984,
      "byteStride": 12,
      "name": "floatBufferViews",
      "target": 34962
    }
  ],
  "buffers": [
    {
      "byteLength": 16649936,
      "uri": "scene.bin"
    }
  ],
  "images": [
    {
      "uri": "textures/material_0_baseColor.png"
    },
    {
      "uri": "textures/material_0_metallicRoughness.png"
    },
    {
      "uri": "textures/material_1_baseColor.png"
    },
    {
      "uri": "textures/material_2_baseColor.png"
    },
    {
      "uri": "textures/material_2_metallicRoughness.png"
    },
    {
      "uri": "textures/material_3_baseColor.png"
    },
    {
      "uri": "textures/material_3_metallicRoughness.png"
    }
  ],
  "materials": [
    {
      "name": "material_0",
      "pbrMetallicRoughness": {
        "baseColorFactor": [
          0.173734,
          0.173734,
          0.173734,
          1.0
        ],
        "baseColorTexture": {
          "index": 0
        },
        "metallicFactor": 0.0,
        "metallicRoughnessTexture": {
          "index": 1
        }
      }
    },
    {
      "name": "material_1",
      "pbrMetallicRoughness": {
        "baseColorTexture": {
          "index": 2
        },
        "metallicFactor": 0.0
      }
    },
    {
      "name": "material_2",
      "pbrMetallicRoughness": {
        "baseColorTexture": {
          "index": 3
        },
        "metallicRoughnessTexture": {
          "index": 4
        }
      }
    },
    {
      "name": "material_3",
      "pbrMetallicRoughness": {
        "baseColorTexture": {
          "index": 5
        },
        "metallicFactor": 0.0,
        "metallicRoughnessTexture": {
          "index": 6
        }
      }
    }
  ],
  "meshes": [
    {
      "name": "Object_0",
      "primitives": [
        {
          "attributes": {
            "NORMAL": 1,
            "POSITION": 0,
            "TEXCOORD_0": 2,
            "TEXCOORD_1": 3,
            "TEXCOORD_2": 4
          },
          "indices": 5,
          "material": 0,
          "mode": 4
        }
      ]
    },
    {
      "name": "Object_1",
      "primitives": [
        {
          "attributes": {
            "NORMAL": 7,
            "POSITION": 6,
            "TEXCOORD_0": 8
          },
          "indices": 9,
          "material": 1,
          "mode": 4
        }
      ]
    },
    {
      "name": "Object_2",
      "primitives": [
        {
          "attributes": {
            "NORMAL": 11,
            "POSITION": 10,
            "TEXCOORD_0": 12
          },
          "indices": 13,
          "material": 1,
          "mode": 4
        }
      ]
    },
    {
      "name": "Object_3",
      "primitives": [
        {
          "attributes": {
            "NORMAL": 15,
            "POSITION": 14,
            "TEXCOORD_0": 16
          },
          "indices": 17,
          "material": 1,
          "mode": 4
        }
      ]
    },
    {
      "name": "Object_4",
      "primitives": [
        {
          "attributes": {
            "NORMAL": 19,
            "POSITION": 18,
            "TEXCOORD_0": 20
          },
          "indices": 21,
          "material": 1,
          "mode": 4
        }
      ]
    },
    {
      "name": "Object_5",
      "primitives": [
        {
          "attributes": {
            "NORMAL": 23,
            "POSITION": 22,
            "TEXCOORD_0": 24
          },
          "indices": 25,
          "material": 1,
          "mode": 4
        }
      ]
    },
    {
      "name": "Object_6",
      "primitives": [
        {
          "attributes": {
            "NORMAL": 27,
            "POSITION": 26,
            "TEXCOORD_0": 28,
            "TEXCOORD_1": 29,
            "TEXCOORD_2": 30
          },
          "indices": 31,
          "material": 2,
          "mode": 4
        }
      ]
    },
    {
      "name": "Object_7",
      "primitives": [
        {
          "attributes": {
            "NORMAL": 33,
            "POSITION": 32,
            "TEXCOORD_0": 34,
            "TEXCOORD_1": 35,
            "TEXCOORD_2": 36
          },
          "indices": 37,
          "material": 3,
          "mode": 4
        }
      ]
    },
    {
      "name": "Object_8",
      "primitives": [
        {
          "attributes": {
            "NORMAL": 39,
            "POSITION": 38,
            "TEXCOORD_0": 40,
            "TEXCOORD_1": 41,
            "TEXCOORD_2": 42
          },
          "indices": 43,
          "material": 3,
          "mode": 4
        }
      ]
    },
    {
      "name": "Object_9",
      "primitives": [
        {
          "attributes": {
            "NORMAL": 45,
            "POSITION": 44,
            "TEXCOORD_0": 46,
            "TEXCOORD_1": 47,
            "TEXCOORD_2": 48
          },
          "indices": 49,
          "material": 3,
          "mode": 4
        }
      ]
    }
  ],
  "nodes": [
    {
      "children": [
        1
      ],
      "matrix": [
        1.0,
        0.0,
        0.0,
        0.0,
        0.0,
        2.220446049250313e-16,
        -1.0,
        0.0,
        0.0,
        1.0,
        2.220446049250313e-16,
        0.0,
        0.0,
        0.0,
        0.0,
        1.0
      ],
      "name": "Sketchfab_model"
    },
    {
      "children": [
        2
      ],
      "name": "root"
    },
    {
      "children": [
        3,
        10,
        12
      ],
      "matrix": [
        1.0,
        0.0,
        0.0,
        0.0,
        0.0,
        2.220446049250313e-16,
        1.0,
        0.0,
        0.0,
        -1.0,
        2.220446049250313e-16,
        0.0,
        0.0,
        0.0,
        0.0,
        1.0
      ],
      "name": "GLTF_SceneRootNode"
    },
    {
      "children": [
        4,
        5,
        6,
        7,
        8,
        9
      ],
      "matrix": [
        1.0,
        0.0,
        0.0,
        0.0,
        0.0,
        -1.1920928955078125e-07,
        -0.9999998807907104,
        0.0,
        0.0,
        0.9999998807907104,
        -1.1920928955078125e-07,
        0.0,
        0.09825614094734192,
        0.4999527335166931,
        -0.3458062410354614,
        1.0
      ],
      "name": "_0"
    },
    {
      "mesh": 0,
      "name": "Object_4"
    },
    {
      "mesh": 1,
      "name": "Object_5"
    },
    {
      "mesh": 2,
      "name": "Object_6"
    },
    {
      "mesh": 3,
      "name": "Object_7"
    },
    {
      "mesh": 4,
      "name": "Object_8"
    },
    {
      "mesh": 5,
      "name": "Object_9"
    },
    {
      "children": [
        11
      ],
      "matrix": [
        1.0,
        0.0,
        0.0,
        0.0,
        0.0,
        -1.1920928955078125e-07,
        -0.9999998807907104,
        0.0,
        0.0,
        0.9999998807907104,
        -1.1920928955078125e-07,
        0.0,
        0.09825614094734192,
        0.4999527335166931,
        -0.3458062410354614,
        1.0
      ],
      "name": "_1"
    },
    {
      "mesh": 6,
      "name": "Object_11"
    },
    {
      "children": [
        13,
        15,
        17
      ],
      "name": "_2"
    },
    {
      "children": [
        14
      ],
      "matrix": [
        1.0,
        0.0,
        0.0,
        0.0,
        0.0,
        -1.1920928955078125e-07,
        -0.9999998807907104,
        0.0,
        0.0,
        0.9999998807907104,
        -1.1920928955078125e-07,
        0.0,
        0.09825614094734192,
        0.4999527335166931,
        -0.3458062410354614,
        1.0
      ],
      "name": "_3"
    },
    {
      "mesh": 7,
      "name": "Object_14"
    },
    {
      "children": [
        16
      ],
      "matrix": [
        1.0,
        0.0,
        0.0,
        0.0,
        0.0,
        -1.1920928955078125e-07,
        -0.9999998807907104,
        0.0,
        0.0,
        0.9999998807907104,
        -1.1920928955078125e-07,
        0.0,
        0.09825614094734192,
        0.4999527335166931,
        -0.3458062410354614,
        1.0
      ],
      "name": "_4"
    },
    {
      "mesh": 8,
      "name": "Object_16"
    },
    {
      "children": [
        18
      ],
      "matrix": [
        1.0,
        0.0,
        0.0,
        0.0,
        0.0,
        -1.1920928955078125e-07,
        -0.9999998807907104,
        0.0,
        0.0,
        0.9999998807907104,
        -1.1920928955078125e-07,
        0.0,
        0.09825614094734192,
        0.4999527335166931,
        -0.3458062410354614,
        1.0
      ],
      "name": "_5"
    },
    {
      "mesh": 9,
      "name": "Object_18"
    }
  ],
  "samplers": [
    {
      "magFilter": 9729,
      "minFilter": 9729,
      "wrapS": 10497,
      "wrapT": 10497
    }
  ],
  "scene": 0,
  "scenes": [
    {
      "name": "Sketchfab_Scene",
      "nodes": [
        0
      ]
    }
  ],
  "textures": [
    {
      "sampler": 0,
      "source": 0
    },
    {
      "sampler": 0,
      "source": 1
    },
    {
      "sampler": 0,
      "source": 2
    },
    {
      "sampler": 0,
      "source": 3
    },
    {
      "sampler": 0,
      "source": 4
    },
    {
      "sampler": 0,
      "source": 5
    },
    {
      "sampler": 0,
      "source": 6
    }
  ]
}
