{
  "accessors": [
    {
      "bufferView": 2,
      "componentType": 5126,
      "count": 5403,
      "max": [
        0.24843847751617432,
        0.23705510795116425,
        0.09437499940395355
      ],
      "min": [
        -0.259251207113266,
        -0.32735714316368103,
        -0.15451844036579132
      ],
      "type": "VEC3"
    },
    {
      "bufferView": 2,
      "byteOffset": 64836,
      "componentType": 5126,
      "count": 5403,
      "max": [
        0.9997743964195251,
        0.9972041249275208,
        0.9999904632568359
      ],
      "min": [
        -0.9999557137489319,
        -0.9995867609977722,
        -0.9995949268341064
      ],
      "type": "VEC3"
    },
    {
      "bufferView": 1,
      "componentType": 5126,
      "count": 5403,
      "max": [
        0.9484617114067078,
        0.9999999403953552
      ],
      "min": [
        -6.248743189551931e-10,
        -1.9006137108590337e-08
      ],
      "type": "VEC2"
    },
    {
      "bufferView": 1,
      "byteOffset": 43224,
      "componentType": 5126,
      "count": 5403,
      "max": [
        0.9484617114067078,
        0.9999999403953552
      ],
      "min": [
        -6.248743189551931e-10,
        -1.9006137108590337e-08
      ],
      "type": "VEC2"
    },
    {
      "bufferView": 0,
      "componentType": 5125,
      "count": 26184,
      "type": "SCALAR"
    }
  ],
  "asset": {
    "extras": {
      "author": "EvanLegrand (https://sketchfab.com/evan4129)",
      "license": "CC-BY-4.0 (http://creativecommons.org/licenses/by/4.0/)",
      "source": "https://sketchfab.com/3d-models/cool-shirt-scan-medpoly-b8cf4da8f33340078e7da0773b68740a",
      "title": "Cool Shirt Scan MEDPOLY"
    },
    "generator": "Sketchfab-15.61.0",
    "version": "2.0"
  },
  "bufferViews": [
    {
      "buffer": 0,
      "byteLength": 104736,
      "name": "floatBufferViews",
      "target": 34963
    },
    {
      "buffer": 0,
      "byteLength": 86448,
      "byteOffset": 104736,
      "byteStride": 8,
      "name": "floatBufferViews",
      "target": 34962
    },
    {
      "buffer": 0,
      "byteLength": 129672,
      "byteOffset": 191184,
      "byteStride": 12,
      "name": "floatBufferViews",
      "target": 34962
    }
  ],
  "buffers": [
    {
      "byteLength": 320856,
      "uri": "scene.bin"
    }
  ],
  "extensionsUsed": [
    "KHR_materials_specular"
  ],
  "images": [
    {
      "uri": "textures/SwagShirt_baseColor.png"
    }
  ],
  "materials": [
    {
      "doubleSided": true,
      "extensions": {
        "KHR_materials_specular": {
          "specularColorFactor": [
            1.0,
            1.0,
            1.0
          ],
          "specularFactor": 0.0
        }
      },
      "name": "SwagShirt",
      "pbrMetallicRoughness": {
        "baseColorTexture": {
          "index": 0
        },
        "metallicFactor": 0.0
      }
    }
  ],
  "meshes": [
    {
      "name": "SwagShirt_SwagShirt_0",
      "primitives": [
        {
          "attributes": {
            "NORMAL": 1,
            "POSITION": 0,
            "TEXCOORD_0": 2,
            "TEXCOORD_1": 3
          },
          "indices": 4,
          "material": 0,
          "mode": 4
        }
      ]
    }
  ],
  "nodes": [
    {
      "children": [
        1
      ],
      "matrix": [
        1.0,
        0.0,
        0.0,
        0.0,
        0.0,
        2.220446049250313e-16,
        -1.0,
        0.0,
        0.0,
        1.0,
        2.220446049250313e-16,
        0.0,
        0.0,
        0.0,
        0.0,
        1.0
      ],
      "name": "Sketchfab_model"
    },
    {
      "children": [
        2
      ],
      "matrix": [
        0.009999999776482582,
        0.0,
        0.0,
        0.0,
        0.0,
        0.0,
        0.009999999776482582,
        0.0,
        0.0,
        -0.009999999776482582,
        0.0,
        0.0,
        0.0,
        0.0,
        0.0,
        1.0
      ],
      "name": "SwagShirt.fbx"
    },
    {
      "children": [
        3
      ],
      "name": "RootNode"
    },
    {
      "children": [
        4
      ],
      "matrix": [
        -137.9338100623848,
        0.8392947505390547,
        26.73847205944538,
        0.0,
        2.1169687920058915,
        140.336921355393,
        6.5156127648887425,
        0.0,
        -26.667750211670697,
        6.799291208007729,
        -137.7824055808218,
        0.0,
        820.25146484375,
        -25.9460506439209,
        -5.062514305114746,
        1.0
      ],
      "name": "SwagShirt"
    },
    {
      "mesh": 0,
      "name": "SwagShirt_SwagShirt_0"
    }
  ],
  "samplers": [
    {
      "magFilter": 9729,
      "minFilter": 9987,
      "wrapS": 10497,
      "wrapT": 10497
    }
  ],
  "scene": 0,
  "scenes": [
    {
      "name": "Sketchfab_Scene",
      "nodes": [
        0
      ]
    }
  ],
  "textures": [
    {
      "sampler": 0,
      "source": 0
    }
  ]
}
